M48
; DRILL file {KiCad 9.0.2} date 2025-07-20T14:31:45+0530
; FORMAT={-:-/ absolute / metric / decimal}
; #@! TF.CreationDate,2025-07-20T14:31:45+05:30
; #@! TF.GenerationSoftware,Kicad,Pcbnew,9.0.2
; #@! TF.FileFunction,Plated,1,4,PTH
FMAT,2
METRIC
; #@! TA.AperFunction,Plated,PTH,ViaDrill
T1C0.200
; #@! TA.AperFunction,Plated,PTH,ViaDrill
T2C0.300
; #@! TA.AperFunction,Plated,PTH,ComponentDrill
T3C1.000
%
G90
G05
T1
X191.0Y-86.0
X191.4Y-91.4
X191.4Y-95.2
X191.8Y-86.0
X192.2Y-95.2
X192.6Y-90.4
X192.8Y-87.6
X194.293Y-85.827
X194.4Y-82.8
X194.4Y-85.0
X194.8Y-93.2
X194.8Y-93.8
X198.6Y-88.2
X198.6Y-89.0
X198.8Y-90.6
X198.994Y-83.973
X199.425Y-84.525
X199.8Y-88.6
X199.8Y-89.6
X200.0Y-91.575
X200.9Y-95.0
X201.6Y-88.2
X202.4Y-87.7
X202.74Y-91.755
X203.0Y-94.3
X206.192Y-91.158
X207.6Y-92.275
X209.0Y-87.9
X209.1Y-89.8
X210.074Y-83.9
X210.3Y-89.8
X210.871Y-83.586
X211.6Y-83.6
X212.3Y-83.7
X212.8Y-86.8
X213.581Y-93.62
X214.6Y-86.0
X215.048Y-89.99
X215.245Y-88.797
X216.3Y-94.358
X216.5Y-83.7
X216.5Y-84.2
X217.0Y-94.375
X217.2Y-92.7
X217.7Y-92.4
X217.9Y-86.9
X218.8Y-87.0
X219.4Y-85.8
X220.2Y-90.0
X221.2Y-89.2
X221.2Y-89.8
X221.8Y-89.2
X221.8Y-89.8
X221.9Y-87.6
X225.1Y-88.099
X225.7Y-89.4
X226.1Y-86.6
X226.1Y-87.4
X226.3Y-91.04
X226.5Y-83.9
X226.5Y-85.3
X227.0Y-90.7
T2
X203.6Y-88.0
X204.2Y-88.0
X205.1Y-89.6
X205.744Y-90.536
X206.089Y-93.489
T3
X194.76Y-97.6
X195.0Y-79.4
X197.3Y-97.6
X197.54Y-79.4
X199.84Y-97.6
X200.08Y-79.4
X202.38Y-97.6
X202.62Y-79.4
X204.92Y-97.6
X205.16Y-79.4
X207.46Y-97.6
X207.7Y-79.4
X210.0Y-97.6
X210.24Y-79.4
X212.54Y-97.6
X212.78Y-79.4
X215.08Y-97.6
X215.32Y-79.4
X217.62Y-97.6
X217.86Y-79.4
X220.16Y-97.6
X220.4Y-79.4
X222.7Y-97.6
X222.94Y-79.4
X225.24Y-97.6
X225.48Y-79.4
X227.78Y-97.6
X228.02Y-79.4
X228.6Y-86.56
X228.6Y-89.1
X228.6Y-91.64
X230.32Y-97.6
X230.56Y-79.4
X232.2Y-86.52
X232.2Y-89.06
X232.2Y-91.6
M30
