%TF.GenerationSoftware,KiCad,Pcbnew,9.0.2*%
%TF.CreationDate,2025-07-20T14:30:59+05:30*%
%TF.ProjectId,Arduino nano,41726475-696e-46f2-906e-616e6f2e6b69,rev?*%
%TF.SameCoordinates,Original*%
%TF.FileFunction,Copper,L4,Bot*%
%TF.FilePolarity,Positive*%
%FSLAX46Y46*%
G04 Gerber Fmt 4.6, Leading zero omitted, Abs format (unit mm)*
G04 Created by KiCad (PCBNEW 9.0.2) date 2025-07-20 14:30:59*
%MOMM*%
%LPD*%
G01*
G04 APERTURE LIST*
G04 Aperture macros list*
%AMRoundRect*
0 Rectangle with rounded corners*
0 $1 Rounding radius*
0 $2 $3 $4 $5 $6 $7 $8 $9 X,Y pos of 4 corners*
0 Add a 4 corners polygon primitive as box body*
4,1,4,$2,$3,$4,$5,$6,$7,$8,$9,$2,$3,0*
0 Add four circle primitives for the rounded corners*
1,1,$1+$1,$2,$3*
1,1,$1+$1,$4,$5*
1,1,$1+$1,$6,$7*
1,1,$1+$1,$8,$9*
0 Add four rect primitives between the rounded corners*
20,1,$1+$1,$2,$3,$4,$5,0*
20,1,$1+$1,$4,$5,$6,$7,0*
20,1,$1+$1,$6,$7,$8,$9,0*
20,1,$1+$1,$8,$9,$2,$3,0*%
G04 Aperture macros list end*
%TA.AperFunction,ComponentPad*%
%ADD10R,1.700000X1.700000*%
%TD*%
%TA.AperFunction,ComponentPad*%
%ADD11C,1.700000*%
%TD*%
%TA.AperFunction,SMDPad,CuDef*%
%ADD12C,1.000000*%
%TD*%
%TA.AperFunction,SMDPad,CuDef*%
%ADD13RoundRect,0.225000X0.225000X0.250000X-0.225000X0.250000X-0.225000X-0.250000X0.225000X-0.250000X0*%
%TD*%
%TA.AperFunction,SMDPad,CuDef*%
%ADD14RoundRect,0.218750X-0.218750X-0.256250X0.218750X-0.256250X0.218750X0.256250X-0.218750X0.256250X0*%
%TD*%
%TA.AperFunction,SMDPad,CuDef*%
%ADD15RoundRect,0.375000X0.625000X0.375000X-0.625000X0.375000X-0.625000X-0.375000X0.625000X-0.375000X0*%
%TD*%
%TA.AperFunction,SMDPad,CuDef*%
%ADD16RoundRect,0.500000X0.500000X1.400000X-0.500000X1.400000X-0.500000X-1.400000X0.500000X-1.400000X0*%
%TD*%
%TA.AperFunction,SMDPad,CuDef*%
%ADD17RoundRect,0.243750X-0.456250X0.243750X-0.456250X-0.243750X0.456250X-0.243750X0.456250X0.243750X0*%
%TD*%
%TA.AperFunction,SMDPad,CuDef*%
%ADD18R,0.450000X1.750000*%
%TD*%
%TA.AperFunction,SMDPad,CuDef*%
%ADD19RoundRect,0.218750X0.256250X-0.218750X0.256250X0.218750X-0.256250X0.218750X-0.256250X-0.218750X0*%
%TD*%
%TA.AperFunction,SMDPad,CuDef*%
%ADD20RoundRect,0.225000X-0.250000X0.225000X-0.250000X-0.225000X0.250000X-0.225000X0.250000X0.225000X0*%
%TD*%
%TA.AperFunction,SMDPad,CuDef*%
%ADD21RoundRect,0.243750X0.243750X0.456250X-0.243750X0.456250X-0.243750X-0.456250X0.243750X-0.456250X0*%
%TD*%
%TA.AperFunction,SMDPad,CuDef*%
%ADD22RoundRect,0.225000X-0.225000X-0.250000X0.225000X-0.250000X0.225000X0.250000X-0.225000X0.250000X0*%
%TD*%
%TA.AperFunction,SMDPad,CuDef*%
%ADD23RoundRect,0.250000X-0.445000X0.457500X-0.445000X-0.457500X0.445000X-0.457500X0.445000X0.457500X0*%
%TD*%
%TA.AperFunction,SMDPad,CuDef*%
%ADD24R,0.400000X1.900000*%
%TD*%
%TA.AperFunction,ViaPad*%
%ADD25C,0.500000*%
%TD*%
%TA.AperFunction,Conductor*%
%ADD26C,0.400000*%
%TD*%
%TA.AperFunction,Conductor*%
%ADD27C,0.500000*%
%TD*%
%TA.AperFunction,Conductor*%
%ADD28C,0.300000*%
%TD*%
%TA.AperFunction,Conductor*%
%ADD29C,0.200000*%
%TD*%
%TA.AperFunction,Conductor*%
%ADD30C,0.150000*%
%TD*%
G04 APERTURE END LIST*
D10*
%TO.P,J2,1,Pin_1*%
%TO.N,VCC*%
X230320000Y-97600000D03*
D11*
%TO.P,J2,2,Pin_2*%
%TO.N,/RESET*%
X227780000Y-97600000D03*
%TO.P,J2,3,Pin_3*%
%TO.N,GND*%
X225240001Y-97600000D03*
%TO.P,J2,4,Pin_4*%
%TO.N,+5V*%
X222700000Y-97600000D03*
%TO.P,J2,5,Pin_5*%
%TO.N,/A7*%
X220160000Y-97600000D03*
%TO.P,J2,6,Pin_6*%
%TO.N,/A6*%
X217620000Y-97600000D03*
%TO.P,J2,7,Pin_7*%
%TO.N,/A5*%
X215080000Y-97600000D03*
%TO.P,J2,8,Pin_8*%
%TO.N,/A4*%
X212539999Y-97600000D03*
%TO.P,J2,9,Pin_9*%
%TO.N,/A3*%
X210000000Y-97600000D03*
%TO.P,J2,10,Pin_10*%
%TO.N,/A2*%
X207460000Y-97600000D03*
%TO.P,J2,11,Pin_11*%
%TO.N,/A1*%
X204920000Y-97600000D03*
%TO.P,J2,12,Pin_12*%
%TO.N,/A0*%
X202380001Y-97600000D03*
%TO.P,J2,13,Pin_13*%
%TO.N,/AREF*%
X199840000Y-97600000D03*
%TO.P,J2,14,Pin_14*%
%TO.N,+3.3V*%
X197300000Y-97600000D03*
%TO.P,J2,15,Pin_15*%
%TO.N,/D13{slash}SCK*%
X194760000Y-97600000D03*
%TD*%
D10*
%TO.P,J4,1,Pin_1*%
%TO.N,/D0{slash}RX*%
X230560000Y-79400000D03*
D11*
%TO.P,J4,2,Pin_2*%
%TO.N,/D1{slash}TX*%
X228020000Y-79400000D03*
%TO.P,J4,3,Pin_3*%
%TO.N,/RESET*%
X225480001Y-79400000D03*
%TO.P,J4,4,Pin_4*%
%TO.N,GND*%
X222940000Y-79400000D03*
%TO.P,J4,5,Pin_5*%
%TO.N,/D2*%
X220400000Y-79400000D03*
%TO.P,J4,6,Pin_6*%
%TO.N,/D3*%
X217860000Y-79400000D03*
%TO.P,J4,7,Pin_7*%
%TO.N,/D4*%
X215320000Y-79400000D03*
%TO.P,J4,8,Pin_8*%
%TO.N,/D5*%
X212779999Y-79400000D03*
%TO.P,J4,9,Pin_9*%
%TO.N,/D6*%
X210240000Y-79400000D03*
%TO.P,J4,10,Pin_10*%
%TO.N,/D7*%
X207700000Y-79400000D03*
%TO.P,J4,11,Pin_11*%
%TO.N,/D8*%
X205160000Y-79400000D03*
%TO.P,J4,12,Pin_12*%
%TO.N,/D9*%
X202620001Y-79400000D03*
%TO.P,J4,13,Pin_13*%
%TO.N,/D10*%
X200080000Y-79400000D03*
%TO.P,J4,14,Pin_14*%
%TO.N,/D11{slash}MOSI*%
X197540000Y-79400000D03*
%TO.P,J4,15,Pin_15*%
%TO.N,/D12{slash}MISO*%
X195000000Y-79400000D03*
%TD*%
D10*
%TO.P,J5,1,Pin_1*%
%TO.N,/D12{slash}MISO*%
X232200000Y-91600000D03*
D11*
%TO.P,J5,2,Pin_2*%
%TO.N,/D13{slash}SCK*%
X232200000Y-89060000D03*
%TO.P,J5,3,Pin_3*%
%TO.N,/RESET*%
X232200000Y-86520000D03*
%TD*%
D10*
%TO.P,J3,1,Pin_1*%
%TO.N,+5V*%
X228600000Y-91640000D03*
D11*
%TO.P,J3,2,Pin_2*%
%TO.N,/D11{slash}MOSI*%
X228600000Y-89100000D03*
%TO.P,J3,3,Pin_3*%
%TO.N,GND*%
X228600000Y-86560000D03*
%TD*%
D12*
%TO.P,TP1,1,1*%
%TO.N,/D_P*%
X193000000Y-85200000D03*
%TD*%
D13*
%TO.P,C8,1*%
%TO.N,/RESET*%
X208775000Y-93600000D03*
%TO.P,C8,2*%
%TO.N,Net-(U3-RTS)*%
X207225000Y-93600000D03*
%TD*%
D14*
%TO.P,R5,1*%
%TO.N,+5V*%
X219412499Y-84500000D03*
%TO.P,R5,2*%
%TO.N,Net-(D2-A)*%
X220987501Y-84500000D03*
%TD*%
D15*
%TO.P,U2,1,GND*%
%TO.N,GND*%
X223670000Y-87140000D03*
%TO.P,U2,2,VO*%
%TO.N,+5V*%
X223669999Y-89440000D03*
D16*
X217370001Y-89440000D03*
D15*
%TO.P,U2,3,VI*%
%TO.N,VCC*%
X223670000Y-91740000D03*
%TD*%
D17*
%TO.P,D5,1,K*%
%TO.N,Net-(D5-K)*%
X210000000Y-88862499D03*
%TO.P,D5,2,A*%
%TO.N,+5V*%
X210000000Y-90737501D03*
%TD*%
D18*
%TO.P,U3,1,TXD*%
%TO.N,/RX*%
X204625000Y-92900000D03*
%TO.P,U3,2,DTR*%
%TO.N,unconnected-(U3-DTR-Pad2)*%
X203975000Y-92900000D03*
%TO.P,U3,3,RTS*%
%TO.N,Net-(U3-RTS)*%
X203325000Y-92900000D03*
%TO.P,U3,4,VCCIO*%
%TO.N,+5V*%
X202675000Y-92900000D03*
%TO.P,U3,5,RXD*%
%TO.N,/TX*%
X202025000Y-92900000D03*
%TO.P,U3,6,RI*%
%TO.N,unconnected-(U3-RI-Pad6)*%
X201375000Y-92900000D03*
%TO.P,U3,7,GND*%
%TO.N,GND*%
X200725000Y-92900000D03*
%TO.P,U3,8*%
%TO.N,N/C*%
X200075000Y-92900000D03*
%TO.P,U3,9,DCR*%
%TO.N,unconnected-(U3-DCR-Pad9)*%
X199425000Y-92900000D03*
%TO.P,U3,10,DCD*%
%TO.N,unconnected-(U3-DCD-Pad10)*%
X198775000Y-92900000D03*
%TO.P,U3,11,CTS*%
%TO.N,unconnected-(U3-CTS-Pad11)*%
X198125000Y-92900000D03*
%TO.P,U3,12,CBUS4*%
%TO.N,unconnected-(U3-CBUS4-Pad12)*%
X197475000Y-92900000D03*
%TO.P,U3,13,CBUS2*%
%TO.N,unconnected-(U3-CBUS2-Pad13)*%
X196825000Y-92900000D03*
%TO.P,U3,14,CBUS3*%
%TO.N,unconnected-(U3-CBUS3-Pad14)*%
X196175000Y-92900000D03*
%TO.P,U3,15,USBD+*%
%TO.N,/D_P*%
X196175000Y-85700000D03*
%TO.P,U3,16,USBD-*%
%TO.N,/D_N*%
X196825000Y-85700000D03*
%TO.P,U3,17,3V3OUT*%
%TO.N,+3.3V*%
X197475000Y-85700000D03*
%TO.P,U3,18,GND*%
%TO.N,GND*%
X198125000Y-85700000D03*
%TO.P,U3,19,~{RESET}*%
%TO.N,unconnected-(U3-~{RESET}-Pad19)*%
X198775000Y-85700000D03*
%TO.P,U3,20,VCC*%
%TO.N,+5V*%
X199425000Y-85700000D03*
%TO.P,U3,21,GND*%
%TO.N,GND*%
X200075000Y-85700000D03*
%TO.P,U3,22,CBUS1*%
%TO.N,Net-(U3-CBUS1)*%
X200725000Y-85700000D03*
%TO.P,U3,23,CBUS0*%
%TO.N,Net-(U3-CBUS0)*%
X201375000Y-85700000D03*
%TO.P,U3,24*%
%TO.N,N/C*%
X202025000Y-85700000D03*
%TO.P,U3,25,AGND*%
%TO.N,GND*%
X202675000Y-85700000D03*
%TO.P,U3,26,TEST*%
X203325000Y-85700000D03*
%TO.P,U3,27,OSCI*%
%TO.N,unconnected-(U3-OSCI-Pad27)*%
X203975000Y-85700000D03*
%TO.P,U3,28,OSCO*%
%TO.N,unconnected-(U3-OSCO-Pad28)*%
X204625000Y-85700000D03*
%TD*%
D19*
%TO.P,R7,1*%
%TO.N,Net-(D5-K)*%
X209900000Y-87187501D03*
%TO.P,R7,2*%
%TO.N,Net-(U3-CBUS1)*%
X209900000Y-85612499D03*
%TD*%
D20*
%TO.P,C6,1*%
%TO.N,+5V*%
X215320000Y-90890000D03*
%TO.P,C6,2*%
%TO.N,GND*%
X215320000Y-92440000D03*
%TD*%
D21*
%TO.P,D2,1,K*%
%TO.N,GND*%
X224800000Y-84500000D03*
%TO.P,D2,2,A*%
%TO.N,Net-(D2-A)*%
X222925000Y-84500000D03*
%TD*%
D20*
%TO.P,C5,1*%
%TO.N,GND*%
X225720000Y-90365000D03*
%TO.P,C5,2*%
%TO.N,VCC*%
X225720000Y-91915000D03*
%TD*%
D22*
%TO.P,C7,1*%
%TO.N,+3.3V*%
X197025000Y-83600000D03*
%TO.P,C7,2*%
%TO.N,GND*%
X198575000Y-83600000D03*
%TD*%
D23*
%TO.P,C9,1*%
%TO.N,VBUS*%
X191400000Y-87647500D03*
%TO.P,C9,2*%
%TO.N,GND*%
X191400000Y-90352500D03*
%TD*%
D12*
%TO.P,TP2,1,1*%
%TO.N,/D_N*%
X193000000Y-83200000D03*
%TD*%
D24*
%TO.P,Y1,1,1*%
%TO.N,/XTAL2*%
X217200000Y-84300000D03*
%TO.P,Y1,2,2*%
%TO.N,GND*%
X216000000Y-84300000D03*
%TO.P,Y1,3,3*%
%TO.N,/XTAL1*%
X214800000Y-84300000D03*
%TD*%
D19*
%TO.P,R6,1*%
%TO.N,Net-(D4-K)*%
X208000000Y-87187501D03*
%TO.P,R6,2*%
%TO.N,Net-(U3-CBUS0)*%
X208000000Y-85612499D03*
%TD*%
D17*
%TO.P,D4,1,K*%
%TO.N,Net-(D4-K)*%
X207900000Y-88862499D03*
%TO.P,D4,2,A*%
%TO.N,+5V*%
X207900000Y-90737501D03*
%TD*%
D25*
%TO.N,+5V*%
X221200000Y-89800000D03*
X214600000Y-86000000D03*
X204200000Y-88000000D03*
X221800000Y-89200000D03*
X221200000Y-89200000D03*
X219400000Y-85800000D03*
X199424999Y-84525000D03*
X203600000Y-88000000D03*
X212300000Y-83700000D03*
X205744033Y-90536356D03*
X202739998Y-91754999D03*
X221800000Y-89800000D03*
%TO.N,GND*%
X218800000Y-87000000D03*
X217700000Y-92400000D03*
X217900000Y-86900000D03*
X191000000Y-86000000D03*
X217200000Y-92700000D03*
X191400000Y-91400000D03*
X203000000Y-94300000D03*
X206089079Y-93489079D03*
X191400000Y-95200000D03*
X198994084Y-83973352D03*
X216500000Y-83700000D03*
X198800000Y-90600000D03*
X194800000Y-93200000D03*
X210074000Y-83900000D03*
X226300000Y-91040000D03*
X192200000Y-95200000D03*
X226100000Y-86600000D03*
X209000000Y-87900000D03*
X226500000Y-85300000D03*
X191800000Y-86000000D03*
X225100000Y-88099000D03*
X199800000Y-88600000D03*
X209100000Y-89800000D03*
X194292619Y-85826643D03*
X216500000Y-84200000D03*
X226100000Y-87400000D03*
X221900000Y-87600000D03*
X201600000Y-88200000D03*
X226500000Y-83900000D03*
X227000000Y-90700000D03*
X202400000Y-87700000D03*
X210300000Y-89800000D03*
X192600000Y-90400000D03*
X212800000Y-86800000D03*
X199800000Y-89600000D03*
X225700000Y-89400000D03*
X194800000Y-93800000D03*
X200900000Y-95000000D03*
X194400000Y-85000000D03*
%TO.N,+3.3V*%
X194400000Y-82800000D03*
%TO.N,/RESET*%
X213580996Y-93619848D03*
%TO.N,VBUS*%
X192800000Y-87600000D03*
%TO.N,Net-(D1-A)*%
X200000000Y-91574998D03*
X220200000Y-90000000D03*
%TO.N,/D_P*%
X198600000Y-89000000D03*
%TO.N,/D_N*%
X198600000Y-88200000D03*
%TO.N,/A7*%
X207600000Y-92275000D03*
%TO.N,/A6*%
X206191744Y-91158219D03*
%TO.N,/D13{slash}SCK*%
X205100000Y-89600000D03*
%TO.N,/D0{slash}RX*%
X215047539Y-89990000D03*
%TO.N,/D1{slash}TX*%
X215245001Y-88797463D03*
%TO.N,/RX*%
X216300213Y-94357749D03*
%TO.N,/TX*%
X217000000Y-94375000D03*
%TO.N,/XTAL2*%
X210871303Y-83586233D03*
%TO.N,/XTAL1*%
X211600000Y-83600000D03*
%TD*%
D26*
%TO.N,+5V*%
X223669999Y-89440000D02*
X224360999Y-88749000D01*
D27*
X207960003Y-90737501D02*
X209900000Y-90737501D01*
D28*
X219412499Y-84500000D02*
X219412499Y-87397502D01*
D29*
X213428232Y-83849000D02*
X212449000Y-83849000D01*
D27*
X210052499Y-90890000D02*
X209900000Y-90737501D01*
D26*
X228600000Y-90869182D02*
X228600000Y-91640000D01*
X224360999Y-88749000D02*
X226479818Y-88749000D01*
D29*
X213751000Y-84171768D02*
X213428232Y-83849000D01*
D26*
X226479818Y-88749000D02*
X228600000Y-90869182D01*
D29*
X213751000Y-85151000D02*
X213751000Y-84171768D01*
D28*
X199424999Y-84525000D02*
X199424999Y-85700000D01*
D30*
X202739998Y-91754999D02*
X202675000Y-91819997D01*
D27*
X215320000Y-90890000D02*
X210052499Y-90890000D01*
D30*
X202675000Y-91819997D02*
X202675000Y-92899999D01*
D29*
X214600000Y-86000000D02*
X213751000Y-85151000D01*
D28*
X219412499Y-87397502D02*
X217370001Y-89440000D01*
D29*
X212449000Y-83849000D02*
X212300000Y-83700000D01*
%TO.N,GND*%
X191400000Y-91400000D02*
X191400000Y-90352500D01*
X202400000Y-87700000D02*
X202675000Y-87425000D01*
X225720000Y-90880000D02*
X225720000Y-90365000D01*
X202675000Y-87425000D02*
X202675000Y-85700001D01*
X200900000Y-95000000D02*
X200900000Y-94850000D01*
X217700000Y-92400000D02*
X217400000Y-92100000D01*
D30*
X216000000Y-84300000D02*
X216000000Y-83550000D01*
D29*
X225300000Y-84000000D02*
X224800000Y-84500000D01*
D30*
X216000000Y-83550000D02*
X215199000Y-82749000D01*
D29*
X216500000Y-83700000D02*
X216000000Y-84200000D01*
X192600000Y-90400000D02*
X191447500Y-90400000D01*
X202400000Y-87700000D02*
X203325000Y-86775000D01*
X226200000Y-85000000D02*
X225300000Y-85000000D01*
X224629000Y-88099000D02*
X223670000Y-87140000D01*
X226300000Y-91040000D02*
X225840000Y-91040000D01*
D30*
X215199000Y-82749000D02*
X210964659Y-82749000D01*
D29*
X225485000Y-90600000D02*
X225720000Y-90365000D01*
X200725000Y-94675000D02*
X200725000Y-92900000D01*
X223210000Y-87600000D02*
X223670000Y-87140000D01*
X225300000Y-85000000D02*
X224800000Y-84500000D01*
D30*
X210964659Y-82749000D02*
X210074000Y-83639659D01*
D29*
X225100000Y-88099000D02*
X224629000Y-88099000D01*
X215580000Y-92700000D02*
X215320000Y-92440000D01*
X200075000Y-84325000D02*
X200075000Y-85700000D01*
X226055000Y-90700000D02*
X225720000Y-90365000D01*
X217200000Y-92700000D02*
X215580000Y-92700000D01*
D26*
X225700000Y-90345000D02*
X225720000Y-90365000D01*
D29*
X200900000Y-94850000D02*
X200725000Y-94675000D01*
D30*
X210074000Y-83639659D02*
X210074000Y-83900000D01*
X198125000Y-84775000D02*
X198575000Y-84325000D01*
X198575000Y-84325000D02*
X198575000Y-83600000D01*
D29*
X216100000Y-84200000D02*
X216000000Y-84300000D01*
X203325000Y-86775000D02*
X203325000Y-85700000D01*
X198994084Y-83973352D02*
X199723352Y-83973352D01*
X216000000Y-84200000D02*
X216000000Y-84300000D01*
D30*
X198125000Y-85700001D02*
X198125000Y-84775000D01*
D29*
X225840000Y-91040000D02*
X225700000Y-90900000D01*
X217400000Y-92100000D02*
X215660000Y-92100000D01*
X199723352Y-83973352D02*
X200075000Y-84325000D01*
X216500000Y-84200000D02*
X216100000Y-84200000D01*
X226500000Y-85300000D02*
X226200000Y-85000000D01*
X226400000Y-84000000D02*
X225300000Y-84000000D01*
D26*
X225700000Y-89400000D02*
X225700000Y-90345000D01*
D29*
X225700000Y-90900000D02*
X225720000Y-90880000D01*
X191447500Y-90400000D02*
X191400000Y-90352500D01*
X226500000Y-83900000D02*
X226400000Y-84000000D01*
X215660000Y-92100000D02*
X215320000Y-92440000D01*
X227000000Y-90700000D02*
X226055000Y-90700000D01*
X221900000Y-87600000D02*
X223210000Y-87600000D01*
X225100000Y-88099000D02*
X224999000Y-88200000D01*
D30*
%TO.N,+3.3V*%
X194400000Y-82800000D02*
X195126232Y-83526232D01*
X196951232Y-83526232D02*
X197025000Y-83600000D01*
X195126232Y-83526232D02*
X196951232Y-83526232D01*
X197475000Y-84050000D02*
X197025000Y-83600000D01*
X197475000Y-85700000D02*
X197475000Y-84050000D01*
%TO.N,/RESET*%
X213580996Y-93619848D02*
X213561148Y-93600000D01*
X213561148Y-93600000D02*
X208775000Y-93600000D01*
%TO.N,Net-(U3-RTS)*%
X203325000Y-91675000D02*
X203325000Y-92900000D01*
X207225000Y-93600000D02*
X205225000Y-91600000D01*
X203400000Y-91600000D02*
X203325000Y-91675000D01*
X205225000Y-91600000D02*
X203400000Y-91600000D01*
%TO.N,VBUS*%
X192800000Y-87600000D02*
X191447500Y-87600000D01*
X191447500Y-87600000D02*
X191400000Y-87647500D01*
D29*
%TO.N,Net-(D2-A)*%
X220987501Y-84500000D02*
X222925000Y-84500000D01*
D26*
%TO.N,Net-(D4-K)*%
X207960003Y-87227498D02*
X208000000Y-87187501D01*
X208000000Y-87187501D02*
X208000000Y-88822502D01*
X208000000Y-88822502D02*
X207960003Y-88862499D01*
%TO.N,Net-(D5-K)*%
X209900000Y-87187501D02*
X209900000Y-88862499D01*
D29*
%TO.N,/D_P*%
X195958197Y-85558196D02*
X196043051Y-85643051D01*
X196043051Y-85643051D02*
X196100000Y-85700000D01*
X193774999Y-84425001D02*
X194273041Y-84425001D01*
X194273041Y-84425001D02*
X194456899Y-84425001D01*
X194883812Y-85784055D02*
X194968664Y-85868907D01*
X196275000Y-86675000D02*
X196275000Y-86450000D01*
X195194523Y-85133934D02*
X194883812Y-85444644D01*
X198600000Y-89000000D02*
X196275000Y-86675000D01*
X196100000Y-85700000D02*
X196175000Y-85700000D01*
X195079612Y-84679612D02*
X194825001Y-84425001D01*
X193000000Y-85200000D02*
X193774999Y-84425001D01*
X194825001Y-84425001D02*
X194566065Y-84425001D01*
X195308076Y-85868907D02*
X195618786Y-85558196D01*
X196175000Y-86350000D02*
X196175000Y-85700000D01*
X195079612Y-84679612D02*
X195194523Y-84794523D01*
X196275000Y-86450000D02*
X196175000Y-86350000D01*
X194456899Y-84425001D02*
X194566065Y-84425001D01*
X194968664Y-85868907D02*
G75*
G03*
X195308076Y-85868907I169706J169704D01*
G01*
X195618786Y-85558196D02*
G75*
G02*
X195958197Y-85558196I169705J-169707D01*
G01*
X194883812Y-85444644D02*
G75*
G03*
X194883861Y-85784005I169688J-169656D01*
G01*
X195194523Y-84794523D02*
G75*
G02*
X195194495Y-85133906I-169723J-169677D01*
G01*
%TO.N,/D_N*%
X193774999Y-83974999D02*
X193000000Y-83200000D01*
X196825000Y-85700000D02*
X196701000Y-85576000D01*
X196825000Y-86350000D02*
X196725000Y-86450000D01*
X195924000Y-84524000D02*
X195800000Y-84400000D01*
X198416084Y-87568782D02*
X198280335Y-87704528D01*
X197856074Y-87280266D02*
X197991820Y-87144517D01*
X198331232Y-87144518D02*
X198416084Y-87229370D01*
X198365190Y-88128793D02*
X198436397Y-88200000D01*
X195525000Y-84400000D02*
X195099999Y-83974999D01*
X195800000Y-84400000D02*
X195525000Y-84400000D01*
X198280336Y-88043940D02*
X198365190Y-88128793D01*
X196701000Y-85576000D02*
X196701000Y-84524000D01*
X196825000Y-85700000D02*
X196825000Y-86350000D01*
X196725000Y-86450000D02*
X196725000Y-86488603D01*
X198436397Y-88200000D02*
X198600000Y-88200000D01*
X195099999Y-83974999D02*
X193774999Y-83974999D01*
X196725000Y-86488603D02*
X197516662Y-87280265D01*
X196701000Y-84524000D02*
X195924000Y-84524000D01*
X198280335Y-87704528D02*
G75*
G03*
X198280369Y-88043906I169665J-169672D01*
G01*
X197516662Y-87280265D02*
G75*
G03*
X197856106Y-87280298I169738J169665D01*
G01*
X197991820Y-87144517D02*
G75*
G02*
X198331206Y-87144543I169680J-169683D01*
G01*
X198416084Y-87229370D02*
G75*
G02*
X198416108Y-87568806I-169684J-169730D01*
G01*
D30*
%TO.N,/A7*%
X208059550Y-92400000D02*
X213600000Y-92400000D01*
X218000000Y-93400000D02*
X220160000Y-95560000D01*
X214600000Y-93400000D02*
X218000000Y-93400000D01*
X220160000Y-95560000D02*
X220160000Y-96700000D01*
X207600000Y-92275000D02*
X207934550Y-92275000D01*
X207934550Y-92275000D02*
X208059550Y-92400000D01*
X213600000Y-92400000D02*
X214600000Y-93400000D01*
%TO.N,/A6*%
X213797459Y-93093848D02*
X213798873Y-93093848D01*
X209564756Y-92800000D02*
X209764756Y-93000000D01*
X214106996Y-93401971D02*
X214106996Y-93403385D01*
X206500000Y-91466475D02*
X206500000Y-92378612D01*
X217500000Y-96700000D02*
X217620000Y-96700000D01*
X209764756Y-93000000D02*
X213703611Y-93000000D01*
X213703611Y-93000000D02*
X213797459Y-93093848D01*
X217119877Y-93751000D02*
X217620000Y-94251123D01*
X206921388Y-92800000D02*
X209564756Y-92800000D01*
X206191744Y-91158219D02*
X206500000Y-91466475D01*
X206500000Y-92378612D02*
X206921388Y-92800000D01*
X214454611Y-93751000D02*
X217119877Y-93751000D01*
X213798873Y-93093848D02*
X214106996Y-93401971D01*
X214106996Y-93403385D02*
X214454611Y-93751000D01*
X217620000Y-94251123D02*
X217620000Y-96700000D01*
%TO.N,/D0{slash}RX*%
X218698999Y-85106300D02*
X218698999Y-83901001D01*
X218698999Y-83901001D02*
X219649000Y-82951000D01*
X215945701Y-89091838D02*
X215945701Y-87859598D01*
X230560000Y-81160000D02*
X230560000Y-79400000D01*
X215945701Y-87859598D02*
X218698999Y-85106300D01*
X215047539Y-89990000D02*
X215945701Y-89091838D01*
X228769000Y-82951000D02*
X230560000Y-81160000D01*
X219649000Y-82951000D02*
X228769000Y-82951000D01*
%TO.N,/D1{slash}TX*%
X215245001Y-88797463D02*
X215245001Y-88554999D01*
X215245001Y-88554999D02*
X215594701Y-88205299D01*
X215594701Y-88205299D02*
X215594701Y-87605299D01*
X215594701Y-87605299D02*
X218347999Y-84852001D01*
X219503611Y-82600000D02*
X226580000Y-82600000D01*
X226580000Y-82600000D02*
X228020000Y-81160000D01*
X218347999Y-83755612D02*
X219503611Y-82600000D01*
X228020000Y-81160000D02*
X228020000Y-79400000D01*
X218347999Y-84852001D02*
X218347999Y-83755612D01*
%TO.N,/RX*%
X204625000Y-93912441D02*
X204625000Y-92900000D01*
X204332339Y-94205102D02*
X204625000Y-93912441D01*
X216157962Y-94500000D02*
X204627237Y-94500000D01*
X216300213Y-94357749D02*
X216157962Y-94500000D01*
X204627237Y-94500000D02*
X204332339Y-94205102D01*
%TO.N,/TX*%
X202669136Y-94883749D02*
X201897776Y-94112389D01*
X202100000Y-92975000D02*
X202025000Y-92900000D01*
X217000000Y-94401839D02*
X216518090Y-94883749D01*
X201897776Y-93027224D02*
X202025000Y-92900000D01*
X201897776Y-94112389D02*
X201897776Y-93027224D01*
X216518090Y-94883749D02*
X202669136Y-94883749D01*
X217000000Y-94375000D02*
X217000000Y-94401839D01*
%TO.N,Net-(U3-CBUS0)*%
X201577000Y-84549000D02*
X201375001Y-84750999D01*
X201375001Y-84750999D02*
X201375001Y-85700000D01*
X206936501Y-84549000D02*
X201577000Y-84549000D01*
X208000000Y-85612499D02*
X206936501Y-84549000D01*
%TO.N,Net-(U3-CBUS1)*%
X208485501Y-84198000D02*
X207100000Y-84198000D01*
X207100000Y-84198000D02*
X201225001Y-84198000D01*
X209900000Y-85612499D02*
X208485501Y-84198000D01*
X200725000Y-84698001D02*
X200725000Y-85700000D01*
X201225001Y-84198000D02*
X200725000Y-84698001D01*
%TO.N,/XTAL2*%
X213782123Y-86526000D02*
X215724000Y-86526000D01*
X210871303Y-83615180D02*
X213782123Y-86526000D01*
X210871303Y-83586233D02*
X210871303Y-83615180D01*
X217200000Y-85050000D02*
X217200000Y-84300000D01*
X215724000Y-86526000D02*
X217200000Y-85050000D01*
%TO.N,/XTAL1*%
X211700000Y-83100000D02*
X214800000Y-83100000D01*
X211600000Y-83200000D02*
X211700000Y-83100000D01*
X211600000Y-83600000D02*
X211600000Y-83200000D01*
X214800000Y-83100000D02*
X214800000Y-84300000D01*
%TD*%
%TA.AperFunction,Conductor*%
%TO.N,+5V*%
G36*
X216520000Y-91440000D02*
G01*
X214971362Y-91440000D01*
X214941921Y-91431355D01*
X214911935Y-91424832D01*
X214906919Y-91421077D01*
X214904323Y-91420315D01*
X214883681Y-91403681D01*
X214756319Y-91276319D01*
X214722834Y-91214996D01*
X214720000Y-91188638D01*
X214720000Y-90841145D01*
X214739685Y-90774106D01*
X214792489Y-90728351D01*
X214861647Y-90718407D01*
X214868172Y-90719524D01*
X214945877Y-90734981D01*
X214973620Y-90740500D01*
X214973621Y-90740500D01*
X215121459Y-90740500D01*
X215232523Y-90718407D01*
X215266452Y-90711658D01*
X215403034Y-90655084D01*
X215525955Y-90572951D01*
X215630490Y-90468416D01*
X215712623Y-90345495D01*
X215724614Y-90316544D01*
X215768453Y-90262145D01*
X215834747Y-90240079D01*
X215839174Y-90240000D01*
X215920000Y-90240000D01*
X216520000Y-90040000D01*
X216520000Y-91440000D01*
G37*
%TD.AperFunction*%
%TD*%
%TA.AperFunction,Conductor*%
%TO.N,VCC*%
G36*
X224752504Y-90952504D02*
G01*
X225100000Y-91300000D01*
X225199403Y-91300000D01*
X225228843Y-91308644D01*
X225258830Y-91315168D01*
X225263845Y-91318922D01*
X225266442Y-91319685D01*
X225287084Y-91336319D01*
X225355139Y-91404374D01*
X225355149Y-91404385D01*
X225359479Y-91408715D01*
X225359480Y-91408716D01*
X225471284Y-91520520D01*
X225556434Y-91569681D01*
X225556435Y-91569682D01*
X225608209Y-91599574D01*
X225608210Y-91599575D01*
X225608212Y-91599575D01*
X225608215Y-91599577D01*
X225760943Y-91640501D01*
X225810235Y-91640501D01*
X225877274Y-91660186D01*
X225879090Y-91661375D01*
X225944505Y-91705084D01*
X226081087Y-91761658D01*
X226164887Y-91778327D01*
X226200191Y-91785350D01*
X226262102Y-91817735D01*
X226296676Y-91878451D01*
X226300000Y-91906967D01*
X226300000Y-92571667D01*
X230500000Y-95600000D01*
X231276000Y-95600000D01*
X231343039Y-95619685D01*
X231388794Y-95672489D01*
X231400000Y-95724000D01*
X231400000Y-97576000D01*
X231380315Y-97643039D01*
X231327511Y-97688794D01*
X231276000Y-97700000D01*
X229424000Y-97700000D01*
X229356961Y-97680315D01*
X229311206Y-97627511D01*
X229300000Y-97576000D01*
X229300000Y-95611100D01*
X225130782Y-92600000D01*
X222951362Y-92600000D01*
X222884323Y-92580315D01*
X222863681Y-92563681D01*
X222636319Y-92336319D01*
X222602834Y-92274996D01*
X222600000Y-92248638D01*
X222600000Y-91251362D01*
X222619685Y-91184323D01*
X222636319Y-91163681D01*
X222818181Y-90981819D01*
X222879504Y-90948334D01*
X222905862Y-90945500D01*
X224468640Y-90945500D01*
X224478786Y-90944955D01*
X224522678Y-90942603D01*
X224522686Y-90942602D01*
X224522688Y-90942602D01*
X224522689Y-90942602D01*
X224529682Y-90941849D01*
X224549036Y-90939769D01*
X224549046Y-90939767D01*
X224549049Y-90939767D01*
X224602442Y-90931115D01*
X224602442Y-90931114D01*
X224602448Y-90931114D01*
X224621492Y-90924010D01*
X224691179Y-90919022D01*
X224752504Y-90952504D01*
G37*
%TD.AperFunction*%
%TD*%
%TA.AperFunction,Conductor*%
%TO.N,+5V*%
G36*
X217394309Y-87459685D02*
G01*
X217414951Y-87476319D01*
X217421580Y-87482948D01*
X217421584Y-87482951D01*
X217544498Y-87565080D01*
X217544511Y-87565087D01*
X217678494Y-87620584D01*
X217681087Y-87621658D01*
X217681091Y-87621658D01*
X217681092Y-87621659D01*
X217826079Y-87650500D01*
X217826082Y-87650500D01*
X217973920Y-87650500D01*
X218071462Y-87631096D01*
X218118913Y-87621658D01*
X218218553Y-87580385D01*
X218288020Y-87572917D01*
X218334895Y-87591845D01*
X218444498Y-87665080D01*
X218444511Y-87665087D01*
X218581082Y-87721656D01*
X218581087Y-87721658D01*
X218581091Y-87721658D01*
X218581092Y-87721659D01*
X218726079Y-87750500D01*
X218726082Y-87750500D01*
X218873914Y-87750500D01*
X218873918Y-87750500D01*
X218880250Y-87749240D01*
X218949839Y-87755466D01*
X218959887Y-87759943D01*
X220320000Y-88440000D01*
X224069401Y-88440000D01*
X224136440Y-88459685D01*
X224157082Y-88476318D01*
X224260284Y-88579520D01*
X224347095Y-88629639D01*
X224347097Y-88629641D01*
X224385151Y-88651611D01*
X224397215Y-88658577D01*
X224549943Y-88699501D01*
X224610235Y-88699501D01*
X224623571Y-88702747D01*
X224633889Y-88701778D01*
X224654581Y-88710295D01*
X224667224Y-88713373D01*
X224673369Y-88716553D01*
X224744505Y-88764084D01*
X224848316Y-88807083D01*
X224852989Y-88809502D01*
X224874582Y-88830154D01*
X224897856Y-88848909D01*
X224899567Y-88854050D01*
X224903482Y-88857795D01*
X224910481Y-88886842D01*
X224919921Y-88915203D01*
X224920000Y-88919630D01*
X224920000Y-89614807D01*
X224900650Y-89680702D01*
X224900823Y-89680809D01*
X224900434Y-89681438D01*
X224900315Y-89681846D01*
X224899345Y-89683204D01*
X224808001Y-89831294D01*
X224807996Y-89831305D01*
X224754651Y-89992290D01*
X224744500Y-90091647D01*
X224744500Y-90164138D01*
X224735855Y-90193578D01*
X224729332Y-90223565D01*
X224725577Y-90228580D01*
X224724815Y-90231177D01*
X224708181Y-90251819D01*
X224556319Y-90403681D01*
X224494996Y-90437166D01*
X224468638Y-90440000D01*
X221015660Y-90440000D01*
X220948621Y-90420315D01*
X220902866Y-90367511D01*
X220892922Y-90298353D01*
X220901099Y-90268548D01*
X220921656Y-90218917D01*
X220921658Y-90218913D01*
X220946972Y-90091655D01*
X220950500Y-90073920D01*
X220950500Y-89926079D01*
X220921659Y-89781092D01*
X220921658Y-89781091D01*
X220921658Y-89781087D01*
X220881114Y-89683204D01*
X220865087Y-89644511D01*
X220865080Y-89644498D01*
X220782951Y-89521584D01*
X220782948Y-89521580D01*
X220678419Y-89417051D01*
X220678415Y-89417048D01*
X220555501Y-89334919D01*
X220555488Y-89334912D01*
X220418917Y-89278343D01*
X220418907Y-89278340D01*
X220273920Y-89249500D01*
X220273918Y-89249500D01*
X220126082Y-89249500D01*
X220126080Y-89249500D01*
X219981092Y-89278340D01*
X219981082Y-89278343D01*
X219844511Y-89334912D01*
X219844498Y-89334919D01*
X219721584Y-89417048D01*
X219721580Y-89417051D01*
X219617051Y-89521580D01*
X219617048Y-89521584D01*
X219534919Y-89644498D01*
X219534912Y-89644511D01*
X219478343Y-89781082D01*
X219478340Y-89781092D01*
X219449500Y-89926079D01*
X219449500Y-89926082D01*
X219449500Y-90073918D01*
X219449500Y-90073920D01*
X219449499Y-90073920D01*
X219478340Y-90218907D01*
X219478343Y-90218917D01*
X219534912Y-90355488D01*
X219534919Y-90355501D01*
X219617048Y-90478415D01*
X219617051Y-90478419D01*
X219704102Y-90565470D01*
X219737587Y-90626793D01*
X219732603Y-90696485D01*
X219690731Y-90752418D01*
X219671876Y-90764060D01*
X218346182Y-91426909D01*
X218290727Y-91440000D01*
X216520000Y-91440000D01*
X216320000Y-91040000D01*
X216320000Y-89582781D01*
X216339685Y-89515742D01*
X216356319Y-89495100D01*
X216373422Y-89477997D01*
X216406216Y-89445203D01*
X216481982Y-89313973D01*
X216521201Y-89167604D01*
X216521201Y-89016071D01*
X216521201Y-88149339D01*
X216540886Y-88082300D01*
X216557516Y-88061662D01*
X217142859Y-87476318D01*
X217169786Y-87461615D01*
X217195605Y-87445023D01*
X217201805Y-87444131D01*
X217204182Y-87442834D01*
X217230540Y-87440000D01*
X217327270Y-87440000D01*
X217394309Y-87459685D01*
G37*
%TD.AperFunction*%
%TD*%
M02*
