%TF.GenerationSoftware,KiCad,Pcbnew,9.0.2*%
%TF.CreationDate,2025-07-20T14:30:59+05:30*%
%TF.ProjectId,Arduino nano,41726475-696e-46f2-906e-616e6f2e6b69,rev?*%
%TF.SameCoordinates,Original*%
%TF.FileFunction,Soldermask,Bot*%
%TF.FilePolarity,Negative*%
%FSLAX46Y46*%
G04 Gerber Fmt 4.6, Leading zero omitted, Abs format (unit mm)*
G04 Created by KiCad (PCBNEW 9.0.2) date 2025-07-20 14:30:59*
%MOMM*%
%LPD*%
G01*
G04 APERTURE LIST*
G04 Aperture macros list*
%AMRoundRect*
0 Rectangle with rounded corners*
0 $1 Rounding radius*
0 $2 $3 $4 $5 $6 $7 $8 $9 X,Y pos of 4 corners*
0 Add a 4 corners polygon primitive as box body*
4,1,4,$2,$3,$4,$5,$6,$7,$8,$9,$2,$3,0*
0 Add four circle primitives for the rounded corners*
1,1,$1+$1,$2,$3*
1,1,$1+$1,$4,$5*
1,1,$1+$1,$6,$7*
1,1,$1+$1,$8,$9*
0 Add four rect primitives between the rounded corners*
20,1,$1+$1,$2,$3,$4,$5,0*
20,1,$1+$1,$4,$5,$6,$7,0*
20,1,$1+$1,$6,$7,$8,$9,0*
20,1,$1+$1,$8,$9,$2,$3,0*%
G04 Aperture macros list end*
%ADD10C,0.900000*%
%ADD11R,1.700000X1.700000*%
%ADD12C,1.700000*%
%ADD13C,1.000000*%
%ADD14RoundRect,0.225000X0.225000X0.250000X-0.225000X0.250000X-0.225000X-0.250000X0.225000X-0.250000X0*%
%ADD15RoundRect,0.218750X-0.218750X-0.256250X0.218750X-0.256250X0.218750X0.256250X-0.218750X0.256250X0*%
%ADD16RoundRect,0.375000X0.625000X0.375000X-0.625000X0.375000X-0.625000X-0.375000X0.625000X-0.375000X0*%
%ADD17RoundRect,0.500000X0.500000X1.400000X-0.500000X1.400000X-0.500000X-1.400000X0.500000X-1.400000X0*%
%ADD18RoundRect,0.243750X-0.456250X0.243750X-0.456250X-0.243750X0.456250X-0.243750X0.456250X0.243750X0*%
%ADD19R,0.450000X1.750000*%
%ADD20RoundRect,0.218750X0.256250X-0.218750X0.256250X0.218750X-0.256250X0.218750X-0.256250X-0.218750X0*%
%ADD21RoundRect,0.225000X-0.250000X0.225000X-0.250000X-0.225000X0.250000X-0.225000X0.250000X0.225000X0*%
%ADD22RoundRect,0.243750X0.243750X0.456250X-0.243750X0.456250X-0.243750X-0.456250X0.243750X-0.456250X0*%
%ADD23RoundRect,0.225000X-0.225000X-0.250000X0.225000X-0.250000X0.225000X0.250000X-0.225000X0.250000X0*%
%ADD24RoundRect,0.250000X-0.445000X0.457500X-0.445000X-0.457500X0.445000X-0.457500X0.445000X0.457500X0*%
%ADD25R,0.400000X1.900000*%
G04 APERTURE END LIST*
D10*
%TO.C,J1*%
X194800000Y-86800000D03*
X194800000Y-91200000D03*
%TD*%
D11*
%TO.C,J2*%
X230320000Y-97600000D03*
D12*
X227780000Y-97600000D03*
X225240001Y-97600000D03*
X222700000Y-97600000D03*
X220160000Y-97600000D03*
X217620000Y-97600000D03*
X215080000Y-97600000D03*
X212539999Y-97600000D03*
X210000000Y-97600000D03*
X207460000Y-97600000D03*
X204920000Y-97600000D03*
X202380001Y-97600000D03*
X199840000Y-97600000D03*
X197300000Y-97600000D03*
X194760000Y-97600000D03*
%TD*%
D11*
%TO.C,J4*%
X230560000Y-79400000D03*
D12*
X228020000Y-79400000D03*
X225480001Y-79400000D03*
X222940000Y-79400000D03*
X220400000Y-79400000D03*
X217860000Y-79400000D03*
X215320000Y-79400000D03*
X212779999Y-79400000D03*
X210240000Y-79400000D03*
X207700000Y-79400000D03*
X205160000Y-79400000D03*
X202620001Y-79400000D03*
X200080000Y-79400000D03*
X197540000Y-79400000D03*
X195000000Y-79400000D03*
%TD*%
D11*
%TO.C,J5*%
X232200000Y-91600000D03*
D12*
X232200000Y-89060000D03*
X232200000Y-86520000D03*
%TD*%
D11*
%TO.C,J3*%
X228600000Y-91640000D03*
D12*
X228600000Y-89100000D03*
X228600000Y-86560000D03*
%TD*%
D13*
%TO.C,TP1*%
X193000000Y-85200000D03*
%TD*%
D14*
%TO.C,C8*%
X208775000Y-93600000D03*
X207225000Y-93600000D03*
%TD*%
D15*
%TO.C,R5*%
X219412499Y-84500000D03*
X220987501Y-84500000D03*
%TD*%
D16*
%TO.C,U2*%
X223670000Y-87140000D03*
X223669999Y-89440000D03*
D17*
X217370001Y-89440000D03*
D16*
X223670000Y-91740000D03*
%TD*%
D18*
%TO.C,D5*%
X210000000Y-88862499D03*
X210000000Y-90737501D03*
%TD*%
D19*
%TO.C,U3*%
X204625000Y-92900000D03*
X203975000Y-92900000D03*
X203325000Y-92900000D03*
X202675000Y-92900000D03*
X202025000Y-92900000D03*
X201375000Y-92900000D03*
X200725000Y-92900000D03*
X200075000Y-92900000D03*
X199425000Y-92900000D03*
X198775000Y-92900000D03*
X198125000Y-92900000D03*
X197475000Y-92900000D03*
X196825000Y-92900000D03*
X196175000Y-92900000D03*
X196175000Y-85700000D03*
X196825000Y-85700000D03*
X197475000Y-85700000D03*
X198125000Y-85700000D03*
X198775000Y-85700000D03*
X199425000Y-85700000D03*
X200075000Y-85700000D03*
X200725000Y-85700000D03*
X201375000Y-85700000D03*
X202025000Y-85700000D03*
X202675000Y-85700000D03*
X203325000Y-85700000D03*
X203975000Y-85700000D03*
X204625000Y-85700000D03*
%TD*%
D20*
%TO.C,R7*%
X209900000Y-87187501D03*
X209900000Y-85612499D03*
%TD*%
D21*
%TO.C,C6*%
X215320000Y-90890000D03*
X215320000Y-92440000D03*
%TD*%
D22*
%TO.C,D2*%
X224800000Y-84500000D03*
X222925000Y-84500000D03*
%TD*%
D21*
%TO.C,C5*%
X225720000Y-90365000D03*
X225720000Y-91915000D03*
%TD*%
D23*
%TO.C,C7*%
X197025000Y-83600000D03*
X198575000Y-83600000D03*
%TD*%
D24*
%TO.C,C9*%
X191400000Y-87647500D03*
X191400000Y-90352500D03*
%TD*%
D13*
%TO.C,TP2*%
X193000000Y-83200000D03*
%TD*%
D25*
%TO.C,Y1*%
X217200000Y-84300000D03*
X216000000Y-84300000D03*
X214800000Y-84300000D03*
%TD*%
D20*
%TO.C,R6*%
X208000000Y-87187501D03*
X208000000Y-85612499D03*
%TD*%
D18*
%TO.C,D4*%
X207900000Y-88862499D03*
X207900000Y-90737501D03*
%TD*%
M02*
