%TF.GenerationSoftware,KiCad,Pcbnew,9.0.2*%
%TF.CreationDate,2025-07-20T14:30:59+05:30*%
%TF.ProjectId,Arduino nano,41726475-696e-46f2-906e-616e6f2e6b69,rev?*%
%TF.SameCoordinates,Original*%
%TF.FileFunction,Soldermask,Top*%
%TF.FilePolarity,Negative*%
%FSLAX46Y46*%
G04 Gerber Fmt 4.6, Leading zero omitted, Abs format (unit mm)*
G04 Created by KiCad (PCBNEW 9.0.2) date 2025-07-20 14:30:59*
%MOMM*%
%LPD*%
G01*
G04 APERTURE LIST*
G04 Aperture macros list*
%AMRoundRect*
0 Rectangle with rounded corners*
0 $1 Rounding radius*
0 $2 $3 $4 $5 $6 $7 $8 $9 X,Y pos of 4 corners*
0 Add a 4 corners polygon primitive as box body*
4,1,4,$2,$3,$4,$5,$6,$7,$8,$9,$2,$3,0*
0 Add four circle primitives for the rounded corners*
1,1,$1+$1,$2,$3*
1,1,$1+$1,$4,$5*
1,1,$1+$1,$6,$7*
1,1,$1+$1,$8,$9*
0 Add four rect primitives between the rounded corners*
20,1,$1+$1,$2,$3,$4,$5,0*
20,1,$1+$1,$4,$5,$6,$7,0*
20,1,$1+$1,$6,$7,$8,$9,0*
20,1,$1+$1,$8,$9,$2,$3,0*%
%AMRotRect*
0 Rectangle, with rotation*
0 The origin of the aperture is its center*
0 $1 length*
0 $2 width*
0 $3 Rotation angle, in degrees counterclockwise*
0 Add horizontal line*
21,1,$1,$2,0,0,$3*%
G04 Aperture macros list end*
%ADD10RoundRect,0.218750X-0.256250X0.218750X-0.256250X-0.218750X0.256250X-0.218750X0.256250X0.218750X0*%
%ADD11R,1.100000X2.000000*%
%ADD12R,0.800000X0.800000*%
%ADD13C,0.900000*%
%ADD14R,2.500000X0.500000*%
%ADD15R,2.500000X2.000000*%
%ADD16RoundRect,0.225000X0.335876X0.017678X0.017678X0.335876X-0.335876X-0.017678X-0.017678X-0.335876X0*%
%ADD17RoundRect,0.250000X0.457500X0.445000X-0.457500X0.445000X-0.457500X-0.445000X0.457500X-0.445000X0*%
%ADD18RoundRect,0.218750X-0.218750X-0.256250X0.218750X-0.256250X0.218750X0.256250X-0.218750X0.256250X0*%
%ADD19RoundRect,0.243750X-0.456250X0.243750X-0.456250X-0.243750X0.456250X-0.243750X0.456250X0.243750X0*%
%ADD20RoundRect,0.225000X-0.017678X0.335876X-0.335876X0.017678X0.017678X-0.335876X0.335876X-0.017678X0*%
%ADD21RoundRect,0.225000X-0.250000X0.225000X-0.250000X-0.225000X0.250000X-0.225000X0.250000X0.225000X0*%
%ADD22R,1.700000X1.700000*%
%ADD23C,1.700000*%
%ADD24R,1.000000X1.450000*%
%ADD25RoundRect,0.218750X0.218750X0.256250X-0.218750X0.256250X-0.218750X-0.256250X0.218750X-0.256250X0*%
%ADD26RoundRect,0.062500X0.220971X0.309359X-0.309359X-0.220971X-0.220971X-0.309359X0.309359X0.220971X0*%
%ADD27RoundRect,0.062500X-0.220971X0.309359X-0.309359X0.220971X0.220971X-0.309359X0.309359X-0.220971X0*%
%ADD28RotRect,3.100000X3.100000X225.000000*%
G04 APERTURE END LIST*
D10*
%TO.C,R2*%
X214400000Y-91112499D03*
X214400000Y-92687501D03*
%TD*%
D11*
%TO.C,D3*%
X203900000Y-86680000D03*
D12*
X203900000Y-84780000D03*
%TD*%
D13*
%TO.C,J1*%
X194800000Y-86800000D03*
X194800000Y-91200000D03*
D14*
X197400000Y-87400000D03*
X197400000Y-88200000D03*
X197400000Y-89000000D03*
X197400000Y-89800000D03*
X197400000Y-90600000D03*
D15*
X197400000Y-84600000D03*
X191900000Y-84600000D03*
X197400000Y-93400000D03*
X191900000Y-93400000D03*
%TD*%
D16*
%TO.C,C2*%
X213648008Y-86248008D03*
X212551992Y-85151992D03*
%TD*%
D17*
%TO.C,C4*%
X203852500Y-89200000D03*
X201147500Y-89200000D03*
%TD*%
D18*
%TO.C,R1*%
X221612499Y-84600000D03*
X223187501Y-84600000D03*
%TD*%
D10*
%TO.C,R3*%
X216200000Y-91112499D03*
X216200000Y-92687501D03*
%TD*%
D19*
%TO.C,D1*%
X218800000Y-88062499D03*
X218800000Y-89937501D03*
%TD*%
D20*
%TO.C,C3*%
X206448008Y-92551992D03*
X205351992Y-93648008D03*
%TD*%
D21*
%TO.C,C10*%
X201600000Y-85825000D03*
X201600000Y-87375000D03*
%TD*%
D20*
%TO.C,C1*%
X205248008Y-91451992D03*
X204151992Y-92548008D03*
%TD*%
D22*
%TO.C,J2*%
X230320000Y-97600000D03*
D23*
X227780000Y-97600000D03*
X225240001Y-97600000D03*
X222700000Y-97600000D03*
X220160000Y-97600000D03*
X217620000Y-97600000D03*
X215080000Y-97600000D03*
X212539999Y-97600000D03*
X210000000Y-97600000D03*
X207460000Y-97600000D03*
X204920000Y-97600000D03*
X202380001Y-97600000D03*
X199840000Y-97600000D03*
X197300000Y-97600000D03*
X194760000Y-97600000D03*
%TD*%
D22*
%TO.C,J4*%
X230560000Y-79400000D03*
D23*
X228020000Y-79400000D03*
X225480001Y-79400000D03*
X222940000Y-79400000D03*
X220400000Y-79400000D03*
X217860000Y-79400000D03*
X215320000Y-79400000D03*
X212779999Y-79400000D03*
X210240000Y-79400000D03*
X207700000Y-79400000D03*
X205160000Y-79400000D03*
X202620001Y-79400000D03*
X200080000Y-79400000D03*
X197540000Y-79400000D03*
X195000000Y-79400000D03*
%TD*%
D22*
%TO.C,J5*%
X232200000Y-91600000D03*
D23*
X232200000Y-89060000D03*
X232200000Y-86520000D03*
%TD*%
D10*
%TO.C,F1*%
X200000000Y-85812499D03*
X200000000Y-87387501D03*
%TD*%
D24*
%TO.C,SW1*%
X223250000Y-92075000D03*
X223250000Y-86925000D03*
X224950000Y-92075000D03*
X224950000Y-86925000D03*
%TD*%
D25*
%TO.C,R4*%
X201987501Y-92800000D03*
X200412499Y-92800000D03*
%TD*%
D22*
%TO.C,J3*%
X228600000Y-91640000D03*
D23*
X228600000Y-89100000D03*
X228600000Y-86560000D03*
%TD*%
D26*
%TO.C,U1*%
X212674874Y-88352854D03*
X212321320Y-87999301D03*
X211967767Y-87645747D03*
X211614213Y-87292194D03*
X211260660Y-86938641D03*
X210907107Y-86585087D03*
X210553553Y-86231534D03*
X210200000Y-85877980D03*
D27*
X209227728Y-85877980D03*
X208874175Y-86231534D03*
X208520621Y-86585087D03*
X208167068Y-86938641D03*
X207813515Y-87292194D03*
X207459961Y-87645747D03*
X207106408Y-87999301D03*
X206752854Y-88352854D03*
D26*
X206752854Y-89325126D03*
X207106408Y-89678679D03*
X207459961Y-90032233D03*
X207813515Y-90385786D03*
X208167068Y-90739339D03*
X208520621Y-91092893D03*
X208874175Y-91446446D03*
X209227728Y-91800000D03*
D27*
X210200000Y-91800000D03*
X210553553Y-91446446D03*
X210907107Y-91092893D03*
X211260660Y-90739339D03*
X211614213Y-90385786D03*
X211967767Y-90032233D03*
X212321320Y-89678679D03*
X212674874Y-89325126D03*
D28*
X209713864Y-88838990D03*
%TD*%
M02*
