%TF.GenerationSoftware,KiCad,Pcbnew,9.0.2*%
%TF.CreationDate,2025-07-20T14:30:59+05:30*%
%TF.ProjectId,Arduino nano,41726475-696e-46f2-906e-616e6f2e6b69,rev?*%
%TF.SameCoordinates,Original*%
%TF.FileFunction,Legend,Top*%
%TF.FilePolarity,Positive*%
%FSLAX46Y46*%
G04 Gerber Fmt 4.6, Leading zero omitted, Abs format (unit mm)*
G04 Created by KiCad (PCBNEW 9.0.2) date 2025-07-20 14:30:59*
%MOMM*%
%LPD*%
G01*
G04 APERTURE LIST*
%ADD10C,0.150000*%
%ADD11C,0.120000*%
G04 APERTURE END LIST*
D10*
X214954819Y-94166666D02*
X214478628Y-94499999D01*
X214954819Y-94738094D02*
X213954819Y-94738094D01*
X213954819Y-94738094D02*
X213954819Y-94357142D01*
X213954819Y-94357142D02*
X214002438Y-94261904D01*
X214002438Y-94261904D02*
X214050057Y-94214285D01*
X214050057Y-94214285D02*
X214145295Y-94166666D01*
X214145295Y-94166666D02*
X214288152Y-94166666D01*
X214288152Y-94166666D02*
X214383390Y-94214285D01*
X214383390Y-94214285D02*
X214431009Y-94261904D01*
X214431009Y-94261904D02*
X214478628Y-94357142D01*
X214478628Y-94357142D02*
X214478628Y-94738094D01*
X214050057Y-93785713D02*
X214002438Y-93738094D01*
X214002438Y-93738094D02*
X213954819Y-93642856D01*
X213954819Y-93642856D02*
X213954819Y-93404761D01*
X213954819Y-93404761D02*
X214002438Y-93309523D01*
X214002438Y-93309523D02*
X214050057Y-93261904D01*
X214050057Y-93261904D02*
X214145295Y-93214285D01*
X214145295Y-93214285D02*
X214240533Y-93214285D01*
X214240533Y-93214285D02*
X214383390Y-93261904D01*
X214383390Y-93261904D02*
X214954819Y-93833332D01*
X214954819Y-93833332D02*
X214954819Y-93214285D01*
X204354819Y-84138094D02*
X203354819Y-84138094D01*
X203354819Y-84138094D02*
X203354819Y-83899999D01*
X203354819Y-83899999D02*
X203402438Y-83757142D01*
X203402438Y-83757142D02*
X203497676Y-83661904D01*
X203497676Y-83661904D02*
X203592914Y-83614285D01*
X203592914Y-83614285D02*
X203783390Y-83566666D01*
X203783390Y-83566666D02*
X203926247Y-83566666D01*
X203926247Y-83566666D02*
X204116723Y-83614285D01*
X204116723Y-83614285D02*
X204211961Y-83661904D01*
X204211961Y-83661904D02*
X204307200Y-83757142D01*
X204307200Y-83757142D02*
X204354819Y-83899999D01*
X204354819Y-83899999D02*
X204354819Y-84138094D01*
X203354819Y-83233332D02*
X203354819Y-82614285D01*
X203354819Y-82614285D02*
X203735771Y-82947618D01*
X203735771Y-82947618D02*
X203735771Y-82804761D01*
X203735771Y-82804761D02*
X203783390Y-82709523D01*
X203783390Y-82709523D02*
X203831009Y-82661904D01*
X203831009Y-82661904D02*
X203926247Y-82614285D01*
X203926247Y-82614285D02*
X204164342Y-82614285D01*
X204164342Y-82614285D02*
X204259580Y-82661904D01*
X204259580Y-82661904D02*
X204307200Y-82709523D01*
X204307200Y-82709523D02*
X204354819Y-82804761D01*
X204354819Y-82804761D02*
X204354819Y-83090475D01*
X204354819Y-83090475D02*
X204307200Y-83185713D01*
X204307200Y-83185713D02*
X204259580Y-83233332D01*
X189054819Y-89233333D02*
X189769104Y-89233333D01*
X189769104Y-89233333D02*
X189911961Y-89280952D01*
X189911961Y-89280952D02*
X190007200Y-89376190D01*
X190007200Y-89376190D02*
X190054819Y-89519047D01*
X190054819Y-89519047D02*
X190054819Y-89614285D01*
X190054819Y-88233333D02*
X190054819Y-88804761D01*
X190054819Y-88519047D02*
X189054819Y-88519047D01*
X189054819Y-88519047D02*
X189197676Y-88614285D01*
X189197676Y-88614285D02*
X189292914Y-88709523D01*
X189292914Y-88709523D02*
X189340533Y-88804761D01*
X214327887Y-87436411D02*
X214260543Y-87436411D01*
X214260543Y-87436411D02*
X214125856Y-87369067D01*
X214125856Y-87369067D02*
X214058513Y-87301724D01*
X214058513Y-87301724D02*
X213991169Y-87167037D01*
X213991169Y-87167037D02*
X213991169Y-87032350D01*
X213991169Y-87032350D02*
X214024841Y-86931335D01*
X214024841Y-86931335D02*
X214125856Y-86762976D01*
X214125856Y-86762976D02*
X214226871Y-86661961D01*
X214226871Y-86661961D02*
X214395230Y-86560945D01*
X214395230Y-86560945D02*
X214496245Y-86527274D01*
X214496245Y-86527274D02*
X214630932Y-86527274D01*
X214630932Y-86527274D02*
X214765619Y-86594617D01*
X214765619Y-86594617D02*
X214832963Y-86661961D01*
X214832963Y-86661961D02*
X214900306Y-86796648D01*
X214900306Y-86796648D02*
X214900306Y-86863991D01*
X215169680Y-87133365D02*
X215237024Y-87133365D01*
X215237024Y-87133365D02*
X215338039Y-87167037D01*
X215338039Y-87167037D02*
X215506398Y-87335396D01*
X215506398Y-87335396D02*
X215540070Y-87436411D01*
X215540070Y-87436411D02*
X215540070Y-87503754D01*
X215540070Y-87503754D02*
X215506398Y-87604770D01*
X215506398Y-87604770D02*
X215439054Y-87672113D01*
X215439054Y-87672113D02*
X215304367Y-87739457D01*
X215304367Y-87739457D02*
X214496245Y-87739457D01*
X214496245Y-87739457D02*
X214933978Y-88177189D01*
X201233333Y-91259580D02*
X201185714Y-91307200D01*
X201185714Y-91307200D02*
X201042857Y-91354819D01*
X201042857Y-91354819D02*
X200947619Y-91354819D01*
X200947619Y-91354819D02*
X200804762Y-91307200D01*
X200804762Y-91307200D02*
X200709524Y-91211961D01*
X200709524Y-91211961D02*
X200661905Y-91116723D01*
X200661905Y-91116723D02*
X200614286Y-90926247D01*
X200614286Y-90926247D02*
X200614286Y-90783390D01*
X200614286Y-90783390D02*
X200661905Y-90592914D01*
X200661905Y-90592914D02*
X200709524Y-90497676D01*
X200709524Y-90497676D02*
X200804762Y-90402438D01*
X200804762Y-90402438D02*
X200947619Y-90354819D01*
X200947619Y-90354819D02*
X201042857Y-90354819D01*
X201042857Y-90354819D02*
X201185714Y-90402438D01*
X201185714Y-90402438D02*
X201233333Y-90450057D01*
X202090476Y-90688152D02*
X202090476Y-91354819D01*
X201852381Y-90307200D02*
X201614286Y-91021485D01*
X201614286Y-91021485D02*
X202233333Y-91021485D01*
X222233333Y-83624819D02*
X221900000Y-83148628D01*
X221661905Y-83624819D02*
X221661905Y-82624819D01*
X221661905Y-82624819D02*
X222042857Y-82624819D01*
X222042857Y-82624819D02*
X222138095Y-82672438D01*
X222138095Y-82672438D02*
X222185714Y-82720057D01*
X222185714Y-82720057D02*
X222233333Y-82815295D01*
X222233333Y-82815295D02*
X222233333Y-82958152D01*
X222233333Y-82958152D02*
X222185714Y-83053390D01*
X222185714Y-83053390D02*
X222138095Y-83101009D01*
X222138095Y-83101009D02*
X222042857Y-83148628D01*
X222042857Y-83148628D02*
X221661905Y-83148628D01*
X223185714Y-83624819D02*
X222614286Y-83624819D01*
X222900000Y-83624819D02*
X222900000Y-82624819D01*
X222900000Y-82624819D02*
X222804762Y-82767676D01*
X222804762Y-82767676D02*
X222709524Y-82862914D01*
X222709524Y-82862914D02*
X222614286Y-82910533D01*
X216754819Y-94166666D02*
X216278628Y-94499999D01*
X216754819Y-94738094D02*
X215754819Y-94738094D01*
X215754819Y-94738094D02*
X215754819Y-94357142D01*
X215754819Y-94357142D02*
X215802438Y-94261904D01*
X215802438Y-94261904D02*
X215850057Y-94214285D01*
X215850057Y-94214285D02*
X215945295Y-94166666D01*
X215945295Y-94166666D02*
X216088152Y-94166666D01*
X216088152Y-94166666D02*
X216183390Y-94214285D01*
X216183390Y-94214285D02*
X216231009Y-94261904D01*
X216231009Y-94261904D02*
X216278628Y-94357142D01*
X216278628Y-94357142D02*
X216278628Y-94738094D01*
X215754819Y-93833332D02*
X215754819Y-93214285D01*
X215754819Y-93214285D02*
X216135771Y-93547618D01*
X216135771Y-93547618D02*
X216135771Y-93404761D01*
X216135771Y-93404761D02*
X216183390Y-93309523D01*
X216183390Y-93309523D02*
X216231009Y-93261904D01*
X216231009Y-93261904D02*
X216326247Y-93214285D01*
X216326247Y-93214285D02*
X216564342Y-93214285D01*
X216564342Y-93214285D02*
X216659580Y-93261904D01*
X216659580Y-93261904D02*
X216707200Y-93309523D01*
X216707200Y-93309523D02*
X216754819Y-93404761D01*
X216754819Y-93404761D02*
X216754819Y-93690475D01*
X216754819Y-93690475D02*
X216707200Y-93785713D01*
X216707200Y-93785713D02*
X216659580Y-93833332D01*
X220214819Y-92038094D02*
X219214819Y-92038094D01*
X219214819Y-92038094D02*
X219214819Y-91799999D01*
X219214819Y-91799999D02*
X219262438Y-91657142D01*
X219262438Y-91657142D02*
X219357676Y-91561904D01*
X219357676Y-91561904D02*
X219452914Y-91514285D01*
X219452914Y-91514285D02*
X219643390Y-91466666D01*
X219643390Y-91466666D02*
X219786247Y-91466666D01*
X219786247Y-91466666D02*
X219976723Y-91514285D01*
X219976723Y-91514285D02*
X220071961Y-91561904D01*
X220071961Y-91561904D02*
X220167200Y-91657142D01*
X220167200Y-91657142D02*
X220214819Y-91799999D01*
X220214819Y-91799999D02*
X220214819Y-92038094D01*
X220214819Y-90514285D02*
X220214819Y-91085713D01*
X220214819Y-90799999D02*
X219214819Y-90799999D01*
X219214819Y-90799999D02*
X219357676Y-90895237D01*
X219357676Y-90895237D02*
X219452914Y-90990475D01*
X219452914Y-90990475D02*
X219500533Y-91085713D01*
X207047574Y-94483275D02*
X207047574Y-94550619D01*
X207047574Y-94550619D02*
X206980230Y-94685306D01*
X206980230Y-94685306D02*
X206912887Y-94752649D01*
X206912887Y-94752649D02*
X206778200Y-94819993D01*
X206778200Y-94819993D02*
X206643513Y-94819993D01*
X206643513Y-94819993D02*
X206542498Y-94786321D01*
X206542498Y-94786321D02*
X206374139Y-94685306D01*
X206374139Y-94685306D02*
X206273124Y-94584291D01*
X206273124Y-94584291D02*
X206172108Y-94415932D01*
X206172108Y-94415932D02*
X206138437Y-94314917D01*
X206138437Y-94314917D02*
X206138437Y-94180230D01*
X206138437Y-94180230D02*
X206205780Y-94045543D01*
X206205780Y-94045543D02*
X206273124Y-93978199D01*
X206273124Y-93978199D02*
X206407811Y-93910856D01*
X206407811Y-93910856D02*
X206475154Y-93910856D01*
X206643513Y-93607810D02*
X207081246Y-93170077D01*
X207081246Y-93170077D02*
X207114917Y-93675153D01*
X207114917Y-93675153D02*
X207215933Y-93574138D01*
X207215933Y-93574138D02*
X207316948Y-93540466D01*
X207316948Y-93540466D02*
X207384291Y-93540466D01*
X207384291Y-93540466D02*
X207485307Y-93574138D01*
X207485307Y-93574138D02*
X207653665Y-93742497D01*
X207653665Y-93742497D02*
X207687337Y-93843512D01*
X207687337Y-93843512D02*
X207687337Y-93910856D01*
X207687337Y-93910856D02*
X207653665Y-94011871D01*
X207653665Y-94011871D02*
X207451635Y-94213901D01*
X207451635Y-94213901D02*
X207350620Y-94247573D01*
X207350620Y-94247573D02*
X207283276Y-94247573D01*
X205759580Y-87242857D02*
X205807200Y-87290476D01*
X205807200Y-87290476D02*
X205854819Y-87433333D01*
X205854819Y-87433333D02*
X205854819Y-87528571D01*
X205854819Y-87528571D02*
X205807200Y-87671428D01*
X205807200Y-87671428D02*
X205711961Y-87766666D01*
X205711961Y-87766666D02*
X205616723Y-87814285D01*
X205616723Y-87814285D02*
X205426247Y-87861904D01*
X205426247Y-87861904D02*
X205283390Y-87861904D01*
X205283390Y-87861904D02*
X205092914Y-87814285D01*
X205092914Y-87814285D02*
X204997676Y-87766666D01*
X204997676Y-87766666D02*
X204902438Y-87671428D01*
X204902438Y-87671428D02*
X204854819Y-87528571D01*
X204854819Y-87528571D02*
X204854819Y-87433333D01*
X204854819Y-87433333D02*
X204902438Y-87290476D01*
X204902438Y-87290476D02*
X204950057Y-87242857D01*
X205854819Y-86290476D02*
X205854819Y-86861904D01*
X205854819Y-86576190D02*
X204854819Y-86576190D01*
X204854819Y-86576190D02*
X204997676Y-86671428D01*
X204997676Y-86671428D02*
X205092914Y-86766666D01*
X205092914Y-86766666D02*
X205140533Y-86861904D01*
X204854819Y-85671428D02*
X204854819Y-85576190D01*
X204854819Y-85576190D02*
X204902438Y-85480952D01*
X204902438Y-85480952D02*
X204950057Y-85433333D01*
X204950057Y-85433333D02*
X205045295Y-85385714D01*
X205045295Y-85385714D02*
X205235771Y-85338095D01*
X205235771Y-85338095D02*
X205473866Y-85338095D01*
X205473866Y-85338095D02*
X205664342Y-85385714D01*
X205664342Y-85385714D02*
X205759580Y-85433333D01*
X205759580Y-85433333D02*
X205807200Y-85480952D01*
X205807200Y-85480952D02*
X205854819Y-85576190D01*
X205854819Y-85576190D02*
X205854819Y-85671428D01*
X205854819Y-85671428D02*
X205807200Y-85766666D01*
X205807200Y-85766666D02*
X205759580Y-85814285D01*
X205759580Y-85814285D02*
X205664342Y-85861904D01*
X205664342Y-85861904D02*
X205473866Y-85909523D01*
X205473866Y-85909523D02*
X205235771Y-85909523D01*
X205235771Y-85909523D02*
X205045295Y-85861904D01*
X205045295Y-85861904D02*
X204950057Y-85814285D01*
X204950057Y-85814285D02*
X204902438Y-85766666D01*
X204902438Y-85766666D02*
X204854819Y-85671428D01*
X204036411Y-91572112D02*
X204036411Y-91639456D01*
X204036411Y-91639456D02*
X203969067Y-91774143D01*
X203969067Y-91774143D02*
X203901724Y-91841486D01*
X203901724Y-91841486D02*
X203767037Y-91908830D01*
X203767037Y-91908830D02*
X203632350Y-91908830D01*
X203632350Y-91908830D02*
X203531335Y-91875158D01*
X203531335Y-91875158D02*
X203362976Y-91774143D01*
X203362976Y-91774143D02*
X203261961Y-91673128D01*
X203261961Y-91673128D02*
X203160945Y-91504769D01*
X203160945Y-91504769D02*
X203127274Y-91403754D01*
X203127274Y-91403754D02*
X203127274Y-91269067D01*
X203127274Y-91269067D02*
X203194617Y-91134380D01*
X203194617Y-91134380D02*
X203261961Y-91067036D01*
X203261961Y-91067036D02*
X203396648Y-90999693D01*
X203396648Y-90999693D02*
X203463991Y-90999693D01*
X204777189Y-90966021D02*
X204373128Y-91370082D01*
X204575159Y-91168051D02*
X203868052Y-90460945D01*
X203868052Y-90460945D02*
X203901724Y-90629303D01*
X203901724Y-90629303D02*
X203901724Y-90763990D01*
X203901724Y-90763990D02*
X203868052Y-90865006D01*
X232544819Y-97933333D02*
X233259104Y-97933333D01*
X233259104Y-97933333D02*
X233401961Y-97980952D01*
X233401961Y-97980952D02*
X233497200Y-98076190D01*
X233497200Y-98076190D02*
X233544819Y-98219047D01*
X233544819Y-98219047D02*
X233544819Y-98314285D01*
X232640057Y-97504761D02*
X232592438Y-97457142D01*
X232592438Y-97457142D02*
X232544819Y-97361904D01*
X232544819Y-97361904D02*
X232544819Y-97123809D01*
X232544819Y-97123809D02*
X232592438Y-97028571D01*
X232592438Y-97028571D02*
X232640057Y-96980952D01*
X232640057Y-96980952D02*
X232735295Y-96933333D01*
X232735295Y-96933333D02*
X232830533Y-96933333D01*
X232830533Y-96933333D02*
X232973390Y-96980952D01*
X232973390Y-96980952D02*
X233544819Y-97552380D01*
X233544819Y-97552380D02*
X233544819Y-96933333D01*
X232784819Y-79733333D02*
X233499104Y-79733333D01*
X233499104Y-79733333D02*
X233641961Y-79780952D01*
X233641961Y-79780952D02*
X233737200Y-79876190D01*
X233737200Y-79876190D02*
X233784819Y-80019047D01*
X233784819Y-80019047D02*
X233784819Y-80114285D01*
X233118152Y-78828571D02*
X233784819Y-78828571D01*
X232737200Y-79066666D02*
X233451485Y-79304761D01*
X233451485Y-79304761D02*
X233451485Y-78685714D01*
X231866666Y-93434819D02*
X231866666Y-94149104D01*
X231866666Y-94149104D02*
X231819047Y-94291961D01*
X231819047Y-94291961D02*
X231723809Y-94387200D01*
X231723809Y-94387200D02*
X231580952Y-94434819D01*
X231580952Y-94434819D02*
X231485714Y-94434819D01*
X232819047Y-93434819D02*
X232342857Y-93434819D01*
X232342857Y-93434819D02*
X232295238Y-93911009D01*
X232295238Y-93911009D02*
X232342857Y-93863390D01*
X232342857Y-93863390D02*
X232438095Y-93815771D01*
X232438095Y-93815771D02*
X232676190Y-93815771D01*
X232676190Y-93815771D02*
X232771428Y-93863390D01*
X232771428Y-93863390D02*
X232819047Y-93911009D01*
X232819047Y-93911009D02*
X232866666Y-94006247D01*
X232866666Y-94006247D02*
X232866666Y-94244342D01*
X232866666Y-94244342D02*
X232819047Y-94339580D01*
X232819047Y-94339580D02*
X232771428Y-94387200D01*
X232771428Y-94387200D02*
X232676190Y-94434819D01*
X232676190Y-94434819D02*
X232438095Y-94434819D01*
X232438095Y-94434819D02*
X232342857Y-94387200D01*
X232342857Y-94387200D02*
X232295238Y-94339580D01*
X200331009Y-84433333D02*
X200331009Y-84766666D01*
X200854819Y-84766666D02*
X199854819Y-84766666D01*
X199854819Y-84766666D02*
X199854819Y-84290476D01*
X200854819Y-83385714D02*
X200854819Y-83957142D01*
X200854819Y-83671428D02*
X199854819Y-83671428D01*
X199854819Y-83671428D02*
X199997676Y-83766666D01*
X199997676Y-83766666D02*
X200092914Y-83861904D01*
X200092914Y-83861904D02*
X200140533Y-83957142D01*
X224507200Y-90833332D02*
X224554819Y-90690475D01*
X224554819Y-90690475D02*
X224554819Y-90452380D01*
X224554819Y-90452380D02*
X224507200Y-90357142D01*
X224507200Y-90357142D02*
X224459580Y-90309523D01*
X224459580Y-90309523D02*
X224364342Y-90261904D01*
X224364342Y-90261904D02*
X224269104Y-90261904D01*
X224269104Y-90261904D02*
X224173866Y-90309523D01*
X224173866Y-90309523D02*
X224126247Y-90357142D01*
X224126247Y-90357142D02*
X224078628Y-90452380D01*
X224078628Y-90452380D02*
X224031009Y-90642856D01*
X224031009Y-90642856D02*
X223983390Y-90738094D01*
X223983390Y-90738094D02*
X223935771Y-90785713D01*
X223935771Y-90785713D02*
X223840533Y-90833332D01*
X223840533Y-90833332D02*
X223745295Y-90833332D01*
X223745295Y-90833332D02*
X223650057Y-90785713D01*
X223650057Y-90785713D02*
X223602438Y-90738094D01*
X223602438Y-90738094D02*
X223554819Y-90642856D01*
X223554819Y-90642856D02*
X223554819Y-90404761D01*
X223554819Y-90404761D02*
X223602438Y-90261904D01*
X223554819Y-89928570D02*
X224554819Y-89690475D01*
X224554819Y-89690475D02*
X223840533Y-89499999D01*
X223840533Y-89499999D02*
X224554819Y-89309523D01*
X224554819Y-89309523D02*
X223554819Y-89071428D01*
X224554819Y-88166666D02*
X224554819Y-88738094D01*
X224554819Y-88452380D02*
X223554819Y-88452380D01*
X223554819Y-88452380D02*
X223697676Y-88547618D01*
X223697676Y-88547618D02*
X223792914Y-88642856D01*
X223792914Y-88642856D02*
X223840533Y-88738094D01*
X201633333Y-94754819D02*
X201300000Y-94278628D01*
X201061905Y-94754819D02*
X201061905Y-93754819D01*
X201061905Y-93754819D02*
X201442857Y-93754819D01*
X201442857Y-93754819D02*
X201538095Y-93802438D01*
X201538095Y-93802438D02*
X201585714Y-93850057D01*
X201585714Y-93850057D02*
X201633333Y-93945295D01*
X201633333Y-93945295D02*
X201633333Y-94088152D01*
X201633333Y-94088152D02*
X201585714Y-94183390D01*
X201585714Y-94183390D02*
X201538095Y-94231009D01*
X201538095Y-94231009D02*
X201442857Y-94278628D01*
X201442857Y-94278628D02*
X201061905Y-94278628D01*
X202490476Y-94088152D02*
X202490476Y-94754819D01*
X202252381Y-93707200D02*
X202014286Y-94421485D01*
X202014286Y-94421485D02*
X202633333Y-94421485D01*
X228266666Y-93474819D02*
X228266666Y-94189104D01*
X228266666Y-94189104D02*
X228219047Y-94331961D01*
X228219047Y-94331961D02*
X228123809Y-94427200D01*
X228123809Y-94427200D02*
X227980952Y-94474819D01*
X227980952Y-94474819D02*
X227885714Y-94474819D01*
X228647619Y-93474819D02*
X229266666Y-93474819D01*
X229266666Y-93474819D02*
X228933333Y-93855771D01*
X228933333Y-93855771D02*
X229076190Y-93855771D01*
X229076190Y-93855771D02*
X229171428Y-93903390D01*
X229171428Y-93903390D02*
X229219047Y-93951009D01*
X229219047Y-93951009D02*
X229266666Y-94046247D01*
X229266666Y-94046247D02*
X229266666Y-94284342D01*
X229266666Y-94284342D02*
X229219047Y-94379580D01*
X229219047Y-94379580D02*
X229171428Y-94427200D01*
X229171428Y-94427200D02*
X229076190Y-94474819D01*
X229076190Y-94474819D02*
X228790476Y-94474819D01*
X228790476Y-94474819D02*
X228695238Y-94427200D01*
X228695238Y-94427200D02*
X228647619Y-94379580D01*
X211497833Y-91700455D02*
X212070253Y-92272875D01*
X212070253Y-92272875D02*
X212171268Y-92306547D01*
X212171268Y-92306547D02*
X212238612Y-92306547D01*
X212238612Y-92306547D02*
X212339627Y-92272875D01*
X212339627Y-92272875D02*
X212474314Y-92138188D01*
X212474314Y-92138188D02*
X212507986Y-92037173D01*
X212507986Y-92037173D02*
X212507986Y-91969829D01*
X212507986Y-91969829D02*
X212474314Y-91868814D01*
X212474314Y-91868814D02*
X211901894Y-91296394D01*
X213316108Y-91296394D02*
X212912047Y-91700455D01*
X213114077Y-91498425D02*
X212406971Y-90791318D01*
X212406971Y-90791318D02*
X212440642Y-90959677D01*
X212440642Y-90959677D02*
X212440642Y-91094364D01*
X212440642Y-91094364D02*
X212406971Y-91195379D01*
D11*
%TO.C,R2*%
X213665000Y-90415000D02*
X213665000Y-92700000D01*
X215135000Y-90415000D02*
X213665000Y-90415000D01*
X215135000Y-92700000D02*
X215135000Y-90415000D01*
%TO.C,D3*%
X203090000Y-87940000D02*
X203090000Y-84700000D01*
X203090000Y-87940000D02*
X204710000Y-87940000D01*
X204710000Y-87940000D02*
X204710000Y-84700000D01*
%TO.C,J1*%
X188790000Y-85040000D02*
X188790000Y-92960000D01*
X188790000Y-92960000D02*
X190450000Y-92960000D01*
X190450000Y-85040000D02*
X188790000Y-85040000D01*
X193350000Y-85040000D02*
X195950000Y-85040000D01*
X195950000Y-92960000D02*
X193350000Y-92960000D01*
X198260000Y-85800000D02*
X198260000Y-86950000D01*
X198260000Y-86950000D02*
X198850000Y-86950000D01*
X198260000Y-91050000D02*
X198260000Y-92200000D01*
X198850000Y-86950000D02*
X198850000Y-87650000D01*
%TO.C,C2*%
X212838781Y-86160030D02*
X212639970Y-85961219D01*
X213560030Y-85438781D02*
X213361219Y-85239970D01*
%TO.C,C4*%
X200900000Y-90155000D02*
X204820000Y-90155000D01*
X204820000Y-88245000D02*
X200900000Y-88245000D01*
X204820000Y-90155000D02*
X204820000Y-88245000D01*
%TO.C,R1*%
X220915000Y-83865000D02*
X220915000Y-85335000D01*
X220915000Y-85335000D02*
X223200000Y-85335000D01*
X223200000Y-83865000D02*
X220915000Y-83865000D01*
%TO.C,R3*%
X215465000Y-90415000D02*
X215465000Y-92700000D01*
X216935000Y-90415000D02*
X215465000Y-90415000D01*
X216935000Y-92700000D02*
X216935000Y-90415000D01*
%TO.C,D1*%
X217840000Y-87315001D02*
X217840000Y-90000000D01*
X219760000Y-87315001D02*
X217840000Y-87315001D01*
X219760000Y-90000000D02*
X219760000Y-87315001D01*
%TO.C,C3*%
X205638781Y-92639970D02*
X205439970Y-92838781D01*
X206360030Y-93361219D02*
X206161219Y-93560030D01*
%TO.C,C10*%
X201090000Y-86459419D02*
X201090000Y-86740581D01*
X202110000Y-86459419D02*
X202110000Y-86740581D01*
%TO.C,C1*%
X204438781Y-91539970D02*
X204239970Y-91738781D01*
X205160030Y-92261219D02*
X204961219Y-92460030D01*
%TO.C,J2*%
X193430000Y-96270000D02*
X193430000Y-98930000D01*
X229049999Y-96270000D02*
X193430000Y-96270000D01*
X229049999Y-96270000D02*
X229049999Y-98930000D01*
X229049999Y-98930000D02*
X193430000Y-98930000D01*
X231650000Y-97600000D02*
X231650000Y-98930000D01*
X231650000Y-98930000D02*
X230320000Y-98930000D01*
%TO.C,J4*%
X193670000Y-78070000D02*
X193670000Y-80730000D01*
X229289999Y-78070000D02*
X193670000Y-78070000D01*
X229289999Y-78070000D02*
X229289999Y-80730000D01*
X229289999Y-80730000D02*
X193670000Y-80730000D01*
X231890000Y-79400000D02*
X231890000Y-80730000D01*
X231890000Y-80730000D02*
X230560000Y-80730000D01*
%TO.C,J5*%
X230820000Y-90330000D02*
X230820000Y-85140000D01*
X233580000Y-85140000D02*
X230820000Y-85140000D01*
X233580000Y-90330000D02*
X230820000Y-90330000D01*
X233580000Y-90330000D02*
X233580000Y-85140000D01*
X233580000Y-91600000D02*
X233580000Y-92980000D01*
X233580000Y-92980000D02*
X232200000Y-92980000D01*
%TO.C,F1*%
X199265000Y-85115000D02*
X199265000Y-87400000D01*
X200735000Y-85115000D02*
X199265000Y-85115000D01*
X200735000Y-87400000D02*
X200735000Y-85115000D01*
%TO.C,SW1*%
X222250000Y-87150001D02*
X222250000Y-88075000D01*
X222250000Y-90925000D02*
X222250000Y-91849999D01*
X224375000Y-87050000D02*
X223825000Y-87050000D01*
X224375000Y-91950000D02*
X223825000Y-91950000D01*
X225950000Y-87150001D02*
X225950000Y-91849999D01*
%TO.C,R4*%
X200400000Y-93535000D02*
X202685000Y-93535000D01*
X202685000Y-92065000D02*
X200400000Y-92065000D01*
X202685000Y-93535000D02*
X202685000Y-92065000D01*
%TO.C,J3*%
X227220000Y-90370000D02*
X227220000Y-85180000D01*
X229980000Y-85180000D02*
X227220000Y-85180000D01*
X229980000Y-90370000D02*
X227220000Y-90370000D01*
X229980000Y-90370000D02*
X229980000Y-85180000D01*
X229980000Y-91640000D02*
X229980000Y-93020000D01*
X229980000Y-93020000D02*
X228600000Y-93020000D01*
%TO.C,U1*%
X206022767Y-88838990D02*
X206358642Y-89174866D01*
X206358642Y-88503114D02*
X206022767Y-88838990D01*
X209377988Y-85483768D02*
X209713864Y-85147893D01*
X209713864Y-85147893D02*
X210049740Y-85483768D01*
X209713864Y-92530087D02*
X209377988Y-92194212D01*
X210049740Y-92194212D02*
X209713864Y-92530087D01*
X213069086Y-88503114D02*
X213235256Y-88669284D01*
X213069086Y-89174866D02*
X213192829Y-89051122D01*
X213808012Y-88902630D02*
X213468601Y-89242041D01*
X213404961Y-88838990D01*
X213808012Y-88902630D01*
G36*
X213808012Y-88902630D02*
G01*
X213468601Y-89242041D01*
X213404961Y-88838990D01*
X213808012Y-88902630D01*
G37*
%TD*%
M02*
