%TF.GenerationSoftware,KiCad,Pcbnew,9.0.2*%
%TF.CreationDate,2025-07-20T14:30:59+05:30*%
%TF.ProjectId,Arduino nano,41726475-696e-46f2-906e-616e6f2e6b69,rev?*%
%TF.SameCoordinates,Original*%
%TF.FileFunction,Copper,L1,Top*%
%TF.FilePolarity,Positive*%
%FSLAX46Y46*%
G04 Gerber Fmt 4.6, Leading zero omitted, Abs format (unit mm)*
G04 Created by KiCad (PCBNEW 9.0.2) date 2025-07-20 14:30:59*
%MOMM*%
%LPD*%
G01*
G04 APERTURE LIST*
G04 Aperture macros list*
%AMRoundRect*
0 Rectangle with rounded corners*
0 $1 Rounding radius*
0 $2 $3 $4 $5 $6 $7 $8 $9 X,Y pos of 4 corners*
0 Add a 4 corners polygon primitive as box body*
4,1,4,$2,$3,$4,$5,$6,$7,$8,$9,$2,$3,0*
0 Add four circle primitives for the rounded corners*
1,1,$1+$1,$2,$3*
1,1,$1+$1,$4,$5*
1,1,$1+$1,$6,$7*
1,1,$1+$1,$8,$9*
0 Add four rect primitives between the rounded corners*
20,1,$1+$1,$2,$3,$4,$5,0*
20,1,$1+$1,$4,$5,$6,$7,0*
20,1,$1+$1,$6,$7,$8,$9,0*
20,1,$1+$1,$8,$9,$2,$3,0*%
%AMRotRect*
0 Rectangle, with rotation*
0 The origin of the aperture is its center*
0 $1 length*
0 $2 width*
0 $3 Rotation angle, in degrees counterclockwise*
0 Add horizontal line*
21,1,$1,$2,0,0,$3*%
G04 Aperture macros list end*
%TA.AperFunction,SMDPad,CuDef*%
%ADD10RoundRect,0.218750X-0.256250X0.218750X-0.256250X-0.218750X0.256250X-0.218750X0.256250X0.218750X0*%
%TD*%
%TA.AperFunction,SMDPad,CuDef*%
%ADD11R,1.100000X2.000000*%
%TD*%
%TA.AperFunction,SMDPad,CuDef*%
%ADD12R,0.800000X0.800000*%
%TD*%
%TA.AperFunction,SMDPad,CuDef*%
%ADD13R,2.500000X0.500000*%
%TD*%
%TA.AperFunction,SMDPad,CuDef*%
%ADD14R,2.500000X2.000000*%
%TD*%
%TA.AperFunction,SMDPad,CuDef*%
%ADD15RoundRect,0.225000X0.335876X0.017678X0.017678X0.335876X-0.335876X-0.017678X-0.017678X-0.335876X0*%
%TD*%
%TA.AperFunction,SMDPad,CuDef*%
%ADD16RoundRect,0.250000X0.457500X0.445000X-0.457500X0.445000X-0.457500X-0.445000X0.457500X-0.445000X0*%
%TD*%
%TA.AperFunction,SMDPad,CuDef*%
%ADD17RoundRect,0.218750X-0.218750X-0.256250X0.218750X-0.256250X0.218750X0.256250X-0.218750X0.256250X0*%
%TD*%
%TA.AperFunction,SMDPad,CuDef*%
%ADD18RoundRect,0.243750X-0.456250X0.243750X-0.456250X-0.243750X0.456250X-0.243750X0.456250X0.243750X0*%
%TD*%
%TA.AperFunction,SMDPad,CuDef*%
%ADD19RoundRect,0.225000X-0.017678X0.335876X-0.335876X0.017678X0.017678X-0.335876X0.335876X-0.017678X0*%
%TD*%
%TA.AperFunction,SMDPad,CuDef*%
%ADD20RoundRect,0.225000X-0.250000X0.225000X-0.250000X-0.225000X0.250000X-0.225000X0.250000X0.225000X0*%
%TD*%
%TA.AperFunction,ComponentPad*%
%ADD21R,1.700000X1.700000*%
%TD*%
%TA.AperFunction,ComponentPad*%
%ADD22C,1.700000*%
%TD*%
%TA.AperFunction,SMDPad,CuDef*%
%ADD23R,1.000000X1.450000*%
%TD*%
%TA.AperFunction,SMDPad,CuDef*%
%ADD24RoundRect,0.218750X0.218750X0.256250X-0.218750X0.256250X-0.218750X-0.256250X0.218750X-0.256250X0*%
%TD*%
%TA.AperFunction,SMDPad,CuDef*%
%ADD25RoundRect,0.062500X0.220971X0.309359X-0.309359X-0.220971X-0.220971X-0.309359X0.309359X0.220971X0*%
%TD*%
%TA.AperFunction,SMDPad,CuDef*%
%ADD26RoundRect,0.062500X-0.220971X0.309359X-0.309359X0.220971X0.220971X-0.309359X0.309359X-0.220971X0*%
%TD*%
%TA.AperFunction,HeatsinkPad*%
%ADD27RotRect,3.100000X3.100000X225.000000*%
%TD*%
%TA.AperFunction,ViaPad*%
%ADD28C,0.500000*%
%TD*%
%TA.AperFunction,Conductor*%
%ADD29C,0.150000*%
%TD*%
%TA.AperFunction,Conductor*%
%ADD30C,0.300000*%
%TD*%
%TA.AperFunction,Conductor*%
%ADD31C,0.200000*%
%TD*%
%TA.AperFunction,Conductor*%
%ADD32C,0.500000*%
%TD*%
%TA.AperFunction,Conductor*%
%ADD33C,0.400000*%
%TD*%
G04 APERTURE END LIST*
D10*
%TO.P,R2,1*%
%TO.N,/D0{slash}RX*%
X214400000Y-91112499D03*
%TO.P,R2,2*%
%TO.N,/RX*%
X214400000Y-92687501D03*
%TD*%
D11*
%TO.P,D3,1,K*%
%TO.N,+5V*%
X203900000Y-86680000D03*
D12*
%TO.P,D3,2,A*%
%TO.N,VBUS*%
X203900000Y-84780000D03*
%TD*%
D13*
%TO.P,J1,1,VBUS*%
%TO.N,Net-(J1-VBUS)*%
X197400000Y-87400000D03*
%TO.P,J1,2,D-*%
%TO.N,/D_N*%
X197400000Y-88200000D03*
%TO.P,J1,3,D+*%
%TO.N,/D_P*%
X197400000Y-89000000D03*
%TO.P,J1,4,ID*%
%TO.N,unconnected-(J1-ID-Pad4)*%
X197400000Y-89800000D03*
%TO.P,J1,5,GND*%
%TO.N,GND*%
X197400000Y-90600000D03*
D14*
%TO.P,J1,6,Shield*%
X197400000Y-84600000D03*
X191900000Y-84600000D03*
X197400000Y-93400000D03*
X191900000Y-93400000D03*
%TD*%
D15*
%TO.P,C2,1*%
%TO.N,+5V*%
X213648008Y-86248008D03*
%TO.P,C2,2*%
%TO.N,GND*%
X212551992Y-85151992D03*
%TD*%
D16*
%TO.P,C4,1*%
%TO.N,+5V*%
X203852500Y-89200000D03*
%TO.P,C4,2*%
%TO.N,GND*%
X201147500Y-89200000D03*
%TD*%
D17*
%TO.P,R1,1*%
%TO.N,+5V*%
X221612499Y-84600000D03*
%TO.P,R1,2*%
%TO.N,/RESET*%
X223187501Y-84600000D03*
%TD*%
D10*
%TO.P,R3,1*%
%TO.N,/D1{slash}TX*%
X216200000Y-91112499D03*
%TO.P,R3,2*%
%TO.N,/TX*%
X216200000Y-92687501D03*
%TD*%
D18*
%TO.P,D1,1,K*%
%TO.N,GND*%
X218800000Y-88062499D03*
%TO.P,D1,2,A*%
%TO.N,Net-(D1-A)*%
X218800000Y-89937501D03*
%TD*%
D19*
%TO.P,C3,1*%
%TO.N,/AREF*%
X206448008Y-92551992D03*
%TO.P,C3,2*%
%TO.N,GND*%
X205351992Y-93648008D03*
%TD*%
D20*
%TO.P,C10,1*%
%TO.N,VBUS*%
X201600000Y-85825000D03*
%TO.P,C10,2*%
%TO.N,GND*%
X201600000Y-87375000D03*
%TD*%
D19*
%TO.P,C1,1*%
%TO.N,+5V*%
X205248008Y-91451992D03*
%TO.P,C1,2*%
%TO.N,GND*%
X204151992Y-92548008D03*
%TD*%
D21*
%TO.P,J2,1,Pin_1*%
%TO.N,VCC*%
X230320000Y-97600000D03*
D22*
%TO.P,J2,2,Pin_2*%
%TO.N,/RESET*%
X227780000Y-97600000D03*
%TO.P,J2,3,Pin_3*%
%TO.N,GND*%
X225240001Y-97600000D03*
%TO.P,J2,4,Pin_4*%
%TO.N,+5V*%
X222700000Y-97600000D03*
%TO.P,J2,5,Pin_5*%
%TO.N,/A7*%
X220160000Y-97600000D03*
%TO.P,J2,6,Pin_6*%
%TO.N,/A6*%
X217620000Y-97600000D03*
%TO.P,J2,7,Pin_7*%
%TO.N,/A5*%
X215080000Y-97600000D03*
%TO.P,J2,8,Pin_8*%
%TO.N,/A4*%
X212539999Y-97600000D03*
%TO.P,J2,9,Pin_9*%
%TO.N,/A3*%
X210000000Y-97600000D03*
%TO.P,J2,10,Pin_10*%
%TO.N,/A2*%
X207460000Y-97600000D03*
%TO.P,J2,11,Pin_11*%
%TO.N,/A1*%
X204920000Y-97600000D03*
%TO.P,J2,12,Pin_12*%
%TO.N,/A0*%
X202380001Y-97600000D03*
%TO.P,J2,13,Pin_13*%
%TO.N,/AREF*%
X199840000Y-97600000D03*
%TO.P,J2,14,Pin_14*%
%TO.N,+3.3V*%
X197300000Y-97600000D03*
%TO.P,J2,15,Pin_15*%
%TO.N,/D13{slash}SCK*%
X194760000Y-97600000D03*
%TD*%
D21*
%TO.P,J4,1,Pin_1*%
%TO.N,/D0{slash}RX*%
X230560000Y-79400000D03*
D22*
%TO.P,J4,2,Pin_2*%
%TO.N,/D1{slash}TX*%
X228020000Y-79400000D03*
%TO.P,J4,3,Pin_3*%
%TO.N,/RESET*%
X225480001Y-79400000D03*
%TO.P,J4,4,Pin_4*%
%TO.N,GND*%
X222940000Y-79400000D03*
%TO.P,J4,5,Pin_5*%
%TO.N,/D2*%
X220400000Y-79400000D03*
%TO.P,J4,6,Pin_6*%
%TO.N,/D3*%
X217860000Y-79400000D03*
%TO.P,J4,7,Pin_7*%
%TO.N,/D4*%
X215320000Y-79400000D03*
%TO.P,J4,8,Pin_8*%
%TO.N,/D5*%
X212779999Y-79400000D03*
%TO.P,J4,9,Pin_9*%
%TO.N,/D6*%
X210240000Y-79400000D03*
%TO.P,J4,10,Pin_10*%
%TO.N,/D7*%
X207700000Y-79400000D03*
%TO.P,J4,11,Pin_11*%
%TO.N,/D8*%
X205160000Y-79400000D03*
%TO.P,J4,12,Pin_12*%
%TO.N,/D9*%
X202620001Y-79400000D03*
%TO.P,J4,13,Pin_13*%
%TO.N,/D10*%
X200080000Y-79400000D03*
%TO.P,J4,14,Pin_14*%
%TO.N,/D11{slash}MOSI*%
X197540000Y-79400000D03*
%TO.P,J4,15,Pin_15*%
%TO.N,/D12{slash}MISO*%
X195000000Y-79400000D03*
%TD*%
D21*
%TO.P,J5,1,Pin_1*%
%TO.N,/D12{slash}MISO*%
X232200000Y-91600000D03*
D22*
%TO.P,J5,2,Pin_2*%
%TO.N,/D13{slash}SCK*%
X232200000Y-89060000D03*
%TO.P,J5,3,Pin_3*%
%TO.N,/RESET*%
X232200000Y-86520000D03*
%TD*%
D10*
%TO.P,F1,1*%
%TO.N,VBUS*%
X200000000Y-85812499D03*
%TO.P,F1,2*%
%TO.N,Net-(J1-VBUS)*%
X200000000Y-87387501D03*
%TD*%
D23*
%TO.P,SW1,1,1*%
%TO.N,/RESET*%
X223250000Y-92075000D03*
X223250000Y-86925000D03*
%TO.P,SW1,2,2*%
%TO.N,GND*%
X224950000Y-92075000D03*
X224950000Y-86925000D03*
%TD*%
D24*
%TO.P,R4,1*%
%TO.N,/D13{slash}SCK*%
X201987501Y-92800000D03*
%TO.P,R4,2*%
%TO.N,Net-(D1-A)*%
X200412499Y-92800000D03*
%TD*%
D21*
%TO.P,J3,1,Pin_1*%
%TO.N,+5V*%
X228600000Y-91640000D03*
D22*
%TO.P,J3,2,Pin_2*%
%TO.N,/D11{slash}MOSI*%
X228600000Y-89100000D03*
%TO.P,J3,3,Pin_3*%
%TO.N,GND*%
X228600000Y-86560000D03*
%TD*%
D25*
%TO.P,U1,1,PD3*%
%TO.N,/D3*%
X212674874Y-88352854D03*
%TO.P,U1,2,PD4*%
%TO.N,/D4*%
X212321320Y-87999301D03*
%TO.P,U1,3,GND*%
%TO.N,GND*%
X211967767Y-87645747D03*
%TO.P,U1,4,VCC*%
%TO.N,+5V*%
X211614213Y-87292194D03*
%TO.P,U1,5,GND*%
%TO.N,GND*%
X211260660Y-86938641D03*
%TO.P,U1,6,VCC*%
%TO.N,+5V*%
X210907107Y-86585087D03*
%TO.P,U1,7,XTAL1/PB6*%
%TO.N,/XTAL1*%
X210553553Y-86231534D03*
%TO.P,U1,8,XTAL2/PB7*%
%TO.N,/XTAL2*%
X210200000Y-85877980D03*
D26*
%TO.P,U1,9,PD5*%
%TO.N,/D5*%
X209227728Y-85877980D03*
%TO.P,U1,10,PD6*%
%TO.N,/D6*%
X208874175Y-86231534D03*
%TO.P,U1,11,PD7*%
%TO.N,/D7*%
X208520621Y-86585087D03*
%TO.P,U1,12,PB0*%
%TO.N,/D8*%
X208167068Y-86938641D03*
%TO.P,U1,13,PB1*%
%TO.N,/D9*%
X207813515Y-87292194D03*
%TO.P,U1,14,PB2*%
%TO.N,/D10*%
X207459961Y-87645747D03*
%TO.P,U1,15,PB3*%
%TO.N,/D11{slash}MOSI*%
X207106408Y-87999301D03*
%TO.P,U1,16,PB4*%
%TO.N,/D12{slash}MISO*%
X206752854Y-88352854D03*
D25*
%TO.P,U1,17,PB5*%
%TO.N,/D13{slash}SCK*%
X206752854Y-89325126D03*
%TO.P,U1,18,AVCC*%
%TO.N,+5V*%
X207106408Y-89678679D03*
%TO.P,U1,19,ADC6*%
%TO.N,/A6*%
X207459961Y-90032233D03*
%TO.P,U1,20,AREF*%
%TO.N,/AREF*%
X207813515Y-90385786D03*
%TO.P,U1,21,GND*%
%TO.N,GND*%
X208167068Y-90739339D03*
%TO.P,U1,22,ADC7*%
%TO.N,/A7*%
X208520621Y-91092893D03*
%TO.P,U1,23,PC0*%
%TO.N,/A0*%
X208874175Y-91446446D03*
%TO.P,U1,24,PC1*%
%TO.N,/A1*%
X209227728Y-91800000D03*
D26*
%TO.P,U1,25,PC2*%
%TO.N,/A2*%
X210200000Y-91800000D03*
%TO.P,U1,26,PC3*%
%TO.N,/A3*%
X210553553Y-91446446D03*
%TO.P,U1,27,PC4*%
%TO.N,/A4*%
X210907107Y-91092893D03*
%TO.P,U1,28,PC5*%
%TO.N,/A5*%
X211260660Y-90739339D03*
%TO.P,U1,29,~{RESET}/PC6*%
%TO.N,/RESET*%
X211614213Y-90385786D03*
%TO.P,U1,30,PD0*%
%TO.N,/D0{slash}RX*%
X211967767Y-90032233D03*
%TO.P,U1,31,PD1*%
%TO.N,/D1{slash}TX*%
X212321320Y-89678679D03*
%TO.P,U1,32,PD2*%
%TO.N,/D2*%
X212674874Y-89325126D03*
D27*
%TO.P,U1,33,GND*%
%TO.N,GND*%
X209713864Y-88838990D03*
%TD*%
D28*
%TO.N,+5V*%
X221200000Y-89800000D03*
X214600000Y-86000000D03*
X204200000Y-88000000D03*
X221800000Y-89200000D03*
X221200000Y-89200000D03*
X219400000Y-85800000D03*
X199424999Y-84525000D03*
X203600000Y-88000000D03*
X212300000Y-83700000D03*
X205744033Y-90536356D03*
X202739998Y-91754999D03*
X221800000Y-89800000D03*
%TO.N,GND*%
X218800000Y-87000000D03*
X217700000Y-92400000D03*
X217900000Y-86900000D03*
X191000000Y-86000000D03*
X217200000Y-92700000D03*
X191400000Y-91400000D03*
X203000000Y-94300000D03*
X206089079Y-93489079D03*
X191400000Y-95200000D03*
X198994084Y-83973352D03*
X216500000Y-83700000D03*
X198800000Y-90600000D03*
X194800000Y-93200000D03*
X210074000Y-83900000D03*
X226300000Y-91040000D03*
X192200000Y-95200000D03*
X226100000Y-86600000D03*
X209000000Y-87900000D03*
X226500000Y-85300000D03*
X191800000Y-86000000D03*
X225100000Y-88099000D03*
X199800000Y-88600000D03*
X209100000Y-89800000D03*
X194292619Y-85826643D03*
X216500000Y-84200000D03*
X226100000Y-87400000D03*
X221900000Y-87600000D03*
X201600000Y-88200000D03*
X226500000Y-83900000D03*
X227000000Y-90700000D03*
X202400000Y-87700000D03*
X210300000Y-89800000D03*
X192600000Y-90400000D03*
X212800000Y-86800000D03*
X199800000Y-89600000D03*
X225700000Y-89400000D03*
X194800000Y-93800000D03*
X200900000Y-95000000D03*
X194400000Y-85000000D03*
%TO.N,+3.3V*%
X194400000Y-82800000D03*
%TO.N,/RESET*%
X213580996Y-93619848D03*
%TO.N,VBUS*%
X192800000Y-87600000D03*
%TO.N,Net-(D1-A)*%
X200000000Y-91574998D03*
X220200000Y-90000000D03*
%TO.N,/D_P*%
X198600000Y-89000000D03*
%TO.N,/D_N*%
X198600000Y-88200000D03*
%TO.N,/A7*%
X207600000Y-92275000D03*
%TO.N,/A6*%
X206191744Y-91158219D03*
%TO.N,/D13{slash}SCK*%
X205100000Y-89600000D03*
%TO.N,/D0{slash}RX*%
X215047539Y-89990000D03*
%TO.N,/D1{slash}TX*%
X215245001Y-88797463D03*
%TO.N,/RX*%
X216300213Y-94357749D03*
%TO.N,/TX*%
X217000000Y-94375000D03*
%TO.N,/XTAL2*%
X210871303Y-83586233D03*
%TO.N,/XTAL1*%
X211600000Y-83600000D03*
%TD*%
D29*
%TO.N,+5V*%
X210907107Y-86585087D02*
X211302000Y-86190194D01*
D30*
X214600000Y-86000000D02*
X213896016Y-86000000D01*
D29*
X205248008Y-91380054D02*
X205248008Y-91451992D01*
D30*
X221612499Y-84987501D02*
X220800000Y-85800000D01*
X212949943Y-86100000D02*
X213097951Y-86248008D01*
X220800000Y-85800000D02*
X219400000Y-85800000D01*
X212720768Y-86100000D02*
X212949943Y-86100000D01*
X213097951Y-86248008D02*
X213648008Y-86248008D01*
D29*
X205744033Y-90536356D02*
X206091706Y-90536356D01*
X205744033Y-90536356D02*
X205744033Y-90884029D01*
D30*
X221612499Y-84600000D02*
X221612499Y-84987501D01*
D29*
X206810877Y-89974210D02*
X207106408Y-89678679D01*
X211302000Y-84698000D02*
X212300000Y-83700000D01*
D30*
X213896016Y-86000000D02*
X213648008Y-86248008D01*
D29*
X205744033Y-90884029D02*
X205248008Y-91380054D01*
X206091706Y-90536356D02*
X206653852Y-89974210D01*
X211302000Y-86190194D02*
X211302000Y-84698000D01*
X206653852Y-89974210D02*
X206810877Y-89974210D01*
D31*
X212720768Y-86100000D02*
X211614213Y-87206555D01*
D29*
X211614213Y-87292194D02*
X211614213Y-87285787D01*
D31*
X211614213Y-87206555D02*
X211614213Y-87292194D01*
D30*
%TO.N,GND*%
X218800000Y-87000000D02*
X218800000Y-88062499D01*
D32*
X213200000Y-84503984D02*
X212551992Y-85151992D01*
X192200000Y-95200000D02*
X192200000Y-94100000D01*
D31*
X226100000Y-86600000D02*
X225275000Y-86600000D01*
D30*
X211967767Y-87645747D02*
X211967767Y-87632233D01*
D31*
X209683511Y-89800000D02*
X210300000Y-89800000D01*
D30*
X209100000Y-89806407D02*
X208167068Y-90739339D01*
D31*
X225265000Y-92075000D02*
X224950000Y-92075000D01*
X225425000Y-87400000D02*
X224950000Y-86925000D01*
D32*
X196600000Y-93800000D02*
X194800000Y-93800000D01*
D30*
X211967767Y-87632233D02*
X212299000Y-87301000D01*
X211800000Y-85900000D02*
X211800000Y-85600000D01*
D31*
X211967767Y-87645747D02*
X211954253Y-87645747D01*
D32*
X212200000Y-83000000D02*
X213200000Y-83000000D01*
D30*
X209100000Y-89800000D02*
X209100000Y-89806407D01*
X218662499Y-88062499D02*
X218800000Y-88062499D01*
D32*
X198994084Y-83973352D02*
X197626648Y-83973352D01*
X196800000Y-93200000D02*
X197000000Y-93400000D01*
D31*
X209527054Y-88387990D02*
X209262864Y-88652180D01*
X227000000Y-90700000D02*
X227000000Y-90840000D01*
D32*
X206089079Y-93489079D02*
X205510921Y-93489079D01*
D30*
X217900000Y-87300000D02*
X218662499Y-88062499D01*
D32*
X201600000Y-88200000D02*
X201600000Y-87375000D01*
X200747500Y-89600000D02*
X201147500Y-89200000D01*
D31*
X226100000Y-87400000D02*
X225425000Y-87400000D01*
X210074000Y-83557744D02*
X210074000Y-83900000D01*
D32*
X197000000Y-93400000D02*
X196600000Y-93800000D01*
D31*
X225765000Y-92075000D02*
X224950000Y-92075000D01*
D30*
X212800000Y-86800000D02*
X212800000Y-86813514D01*
D32*
X191000000Y-86000000D02*
X191000000Y-85100000D01*
X194400000Y-85000000D02*
X196600000Y-85000000D01*
D31*
X226300000Y-91040000D02*
X225265000Y-92075000D01*
D32*
X191400000Y-95200000D02*
X191400000Y-93500000D01*
X197626648Y-83973352D02*
X197000000Y-84600000D01*
X194800000Y-93200000D02*
X196800000Y-93200000D01*
X191800000Y-86000000D02*
X191800000Y-84900000D01*
D30*
X217900000Y-86900000D02*
X217900000Y-87300000D01*
D31*
X210931744Y-82700000D02*
X210074000Y-83557744D01*
X211225524Y-88387990D02*
X209527054Y-88387990D01*
D32*
X191000000Y-85100000D02*
X191500000Y-84600000D01*
X195773357Y-85826643D02*
X197000000Y-84600000D01*
X199800000Y-88600000D02*
X200547500Y-88600000D01*
D30*
X212248008Y-85151992D02*
X212551992Y-85151992D01*
D32*
X205510921Y-93489079D02*
X205351992Y-93648008D01*
X194292619Y-85826643D02*
X195773357Y-85826643D01*
D31*
X211260660Y-86939340D02*
X210300000Y-87900000D01*
X209262864Y-88652180D02*
X209262864Y-89379353D01*
D29*
X198800000Y-90600000D02*
X197000000Y-90600000D01*
D30*
X211800000Y-85600000D02*
X212248008Y-85151992D01*
D32*
X213200000Y-83000000D02*
X213200000Y-84503984D01*
D29*
X203000000Y-94300000D02*
X203000000Y-93700000D01*
D32*
X191800000Y-84900000D02*
X191500000Y-84600000D01*
X199800000Y-89600000D02*
X200747500Y-89600000D01*
X201600000Y-88200000D02*
X201600000Y-88747500D01*
D31*
X209262864Y-89379353D02*
X209683511Y-89800000D01*
D32*
X191500000Y-93400000D02*
X191500000Y-91500000D01*
D29*
X203000000Y-93700000D02*
X204151992Y-92548008D01*
D32*
X191500000Y-91500000D02*
X191400000Y-91400000D01*
X192200000Y-94100000D02*
X191500000Y-93400000D01*
D31*
X211260660Y-86938641D02*
X211260660Y-86939340D01*
D30*
X212800000Y-86813514D02*
X211967767Y-87645747D01*
D31*
X209811311Y-88387990D02*
X209713864Y-88387990D01*
D32*
X191400000Y-93500000D02*
X191500000Y-93400000D01*
D31*
X211800000Y-86200000D02*
X211800000Y-85900000D01*
D32*
X211900000Y-82700000D02*
X212200000Y-83000000D01*
D31*
X211900000Y-82700000D02*
X210931744Y-82700000D01*
D32*
X200547500Y-88600000D02*
X201147500Y-89200000D01*
D29*
X211260660Y-86938641D02*
X211800000Y-86399301D01*
D31*
X227000000Y-90840000D02*
X225765000Y-92075000D01*
X210300000Y-87900000D02*
X209000000Y-87900000D01*
D32*
X201600000Y-88747500D02*
X201147500Y-89200000D01*
D31*
X225275000Y-86600000D02*
X224950000Y-86925000D01*
X211967767Y-87645747D02*
X211225524Y-88387990D01*
D32*
X196600000Y-85000000D02*
X197000000Y-84600000D01*
D29*
X211800000Y-86399301D02*
X211800000Y-86200000D01*
%TO.N,/RESET*%
X225480001Y-81160000D02*
X225480001Y-79400000D01*
D33*
X223250000Y-92075000D02*
X223250000Y-86925000D01*
D29*
X225800000Y-94900000D02*
X225980000Y-94900000D01*
D33*
X223250000Y-91775000D02*
X223300000Y-91725000D01*
D29*
X223250000Y-92075000D02*
X223250000Y-92350000D01*
X213600000Y-93600844D02*
X213600000Y-92371573D01*
X223250000Y-92350000D02*
X225800000Y-94900000D01*
X213602338Y-93641190D02*
X214641190Y-93641190D01*
X213600000Y-92371573D02*
X211614213Y-90385786D01*
X215900000Y-94900000D02*
X225800000Y-94900000D01*
X225980000Y-94900000D02*
X227780000Y-96700000D01*
X213580996Y-93619848D02*
X213602338Y-93641190D01*
X230279999Y-84600000D02*
X232200000Y-86520001D01*
X213580996Y-93619848D02*
X213600000Y-93600844D01*
X223187501Y-84600000D02*
X230279999Y-84600000D01*
X227780000Y-97600000D02*
X227780000Y-96700000D01*
X223250000Y-83390001D02*
X225480001Y-81160000D01*
X214641190Y-93641190D02*
X215900000Y-94900000D01*
X223250000Y-86925000D02*
X223250000Y-83390001D01*
%TO.N,VBUS*%
X199412499Y-86200000D02*
X199800000Y-85812499D01*
X196600000Y-86200000D02*
X199412499Y-86200000D01*
X192800000Y-87600000D02*
X195200000Y-87600000D01*
X195200000Y-87600000D02*
X196600000Y-86200000D01*
%TO.N,Net-(D1-A)*%
X220200000Y-90000000D02*
X218862499Y-90000000D01*
X218862499Y-90000000D02*
X218800000Y-89937501D01*
X200412499Y-92800000D02*
X200412499Y-91987497D01*
X200412499Y-91987497D02*
X200000000Y-91574998D01*
D33*
%TO.N,Net-(J1-VBUS)*%
X197000000Y-87400000D02*
X199787501Y-87400000D01*
X199787501Y-87400000D02*
X199800000Y-87387501D01*
D29*
%TO.N,/D_P*%
X198600000Y-89000000D02*
X197000000Y-89000000D01*
%TO.N,/D_N*%
X198600000Y-88200000D02*
X197000000Y-88200000D01*
%TO.N,/A7*%
X208033577Y-91841423D02*
X208033577Y-91579937D01*
X207600000Y-92275000D02*
X208033577Y-91841423D01*
X208507107Y-91092893D02*
X208520621Y-91092893D01*
X208033577Y-91579937D02*
X208520621Y-91092893D01*
%TO.N,/A3*%
X211000000Y-93200000D02*
X211000000Y-91892893D01*
X211000000Y-91892893D02*
X210553553Y-91446446D01*
X210000000Y-94200000D02*
X211000000Y-93200000D01*
X210000000Y-97600000D02*
X210000000Y-94200000D01*
%TO.N,/A5*%
X215080000Y-97600000D02*
X215080000Y-96700000D01*
X212890999Y-92369678D02*
X211260660Y-90739339D01*
X212890999Y-94510999D02*
X212890999Y-92369678D01*
X215080000Y-96700000D02*
X212890999Y-94510999D01*
%TO.N,/A6*%
X207459961Y-90032233D02*
X207459961Y-90040039D01*
X206191744Y-91158219D02*
X206298619Y-91158219D01*
X206592194Y-90900000D02*
X207459961Y-90032233D01*
X206298619Y-91158219D02*
X206556838Y-90900000D01*
X206556838Y-90900000D02*
X206592194Y-90900000D01*
%TO.N,/A1*%
X209227728Y-92275884D02*
X209227728Y-91800000D01*
X204920000Y-96680000D02*
X204920000Y-97600000D01*
X208849000Y-92654612D02*
X209227728Y-92275884D01*
X208849000Y-92751000D02*
X208849000Y-92654612D01*
X204920000Y-96680000D02*
X208849000Y-92751000D01*
%TO.N,/A0*%
X208578644Y-92428580D02*
X208578644Y-91881984D01*
X208874175Y-91586453D02*
X208874175Y-91446446D01*
X202380001Y-96700000D02*
X202380001Y-97600000D01*
X203506001Y-95574000D02*
X205529612Y-95574000D01*
X208498000Y-92605612D02*
X208498000Y-92509223D01*
X208578644Y-91881984D02*
X208874175Y-91586453D01*
X208498000Y-92509223D02*
X208578644Y-92428580D01*
X205529612Y-95574000D02*
X208498000Y-92605612D01*
X202380001Y-96700000D02*
X203506001Y-95574000D01*
%TO.N,/A4*%
X212539999Y-92725785D02*
X212539999Y-96700000D01*
X210907107Y-91092893D02*
X212539999Y-92725785D01*
%TO.N,/A2*%
X207460000Y-96700000D02*
X209200000Y-94960000D01*
X209200000Y-92800000D02*
X210200000Y-91800000D01*
X207460000Y-97600000D02*
X207460000Y-96700000D01*
X209200000Y-94960000D02*
X209200000Y-92800000D01*
%TO.N,/D13{slash}SCK*%
X205374874Y-89325126D02*
X206752854Y-89325126D01*
X194760000Y-96700000D02*
X196660000Y-94800000D01*
X205100000Y-89600000D02*
X205374874Y-89325126D01*
X202737926Y-92800000D02*
X205100000Y-90437926D01*
X196660000Y-94800000D02*
X199987501Y-94800000D01*
X199987501Y-94800000D02*
X201987501Y-92800000D01*
X201987501Y-92800000D02*
X202737926Y-92800000D01*
X194760000Y-96700000D02*
X194760000Y-97600000D01*
X205100000Y-90437926D02*
X205100000Y-89600000D01*
%TO.N,/AREF*%
X199840000Y-96700000D02*
X199840000Y-97600000D01*
X199840000Y-96700000D02*
X200966000Y-95574000D01*
X206500000Y-92500000D02*
X206448008Y-92551992D01*
X206500000Y-91699301D02*
X206500000Y-92500000D01*
X205248008Y-92551992D02*
X206448008Y-92551992D01*
X207813515Y-90385786D02*
X206500000Y-91699301D01*
X203806339Y-94393661D02*
X203806339Y-93987225D01*
X200966000Y-95574000D02*
X202626000Y-95574000D01*
X203806339Y-93987225D02*
X204993276Y-92800288D01*
X204999712Y-92800288D02*
X205248008Y-92551992D01*
X204993276Y-92800288D02*
X204999712Y-92800288D01*
X202626000Y-95574000D02*
X203806339Y-94393661D01*
%TO.N,/D11{slash}MOSI*%
X198200000Y-82973000D02*
X198200000Y-82100000D01*
X207106408Y-87999301D02*
X207102855Y-87999301D01*
X197540000Y-81440000D02*
X197540000Y-79400000D01*
X203969389Y-82973000D02*
X198200000Y-82973000D01*
X205251000Y-86147446D02*
X205251000Y-84254611D01*
X207102855Y-87999301D02*
X205251000Y-86147446D01*
X198200000Y-82100000D02*
X197540000Y-81440000D01*
X205251000Y-84254611D02*
X203969389Y-82973000D01*
%TO.N,/D8*%
X205020000Y-79540000D02*
X205160000Y-79400000D01*
X206700000Y-83500000D02*
X205020000Y-81820000D01*
X208167068Y-86938641D02*
X206700000Y-85471573D01*
X205020000Y-81820000D02*
X205020000Y-79540000D01*
X206700000Y-85471573D02*
X206700000Y-83500000D01*
%TO.N,/D4*%
X215180000Y-81300000D02*
X215320000Y-81160000D01*
X212321320Y-87999301D02*
X212971621Y-87349000D01*
X214351000Y-87349000D02*
X215180000Y-86520000D01*
X215180000Y-86520000D02*
X215180000Y-81300000D01*
X212971621Y-87349000D02*
X214351000Y-87349000D01*
X215320000Y-81160000D02*
X215320000Y-79400000D01*
%TO.N,/D3*%
X217720000Y-84780000D02*
X217720000Y-81300000D01*
X214800000Y-87700000D02*
X217720000Y-84780000D01*
X213300000Y-87700000D02*
X214800000Y-87700000D01*
X212674874Y-88352854D02*
X212674874Y-88325126D01*
X217860000Y-81160000D02*
X217860000Y-79400000D01*
X212674874Y-88325126D02*
X213300000Y-87700000D01*
X217720000Y-81300000D02*
X217860000Y-81160000D01*
%TO.N,/D10*%
X205602000Y-84109222D02*
X205602000Y-85787786D01*
X201262000Y-82622000D02*
X204114777Y-82622000D01*
X200080000Y-81440000D02*
X201262000Y-82622000D01*
X205602000Y-85787786D02*
X207459961Y-87645747D01*
X200080000Y-79400000D02*
X200080000Y-81440000D01*
X204114777Y-82622000D02*
X205602000Y-84109222D01*
%TO.N,/D0{slash}RX*%
X213048033Y-91112499D02*
X211967767Y-90032233D01*
X214400000Y-90637539D02*
X214400000Y-91112499D01*
X215047539Y-89990000D02*
X214400000Y-90637539D01*
X214400000Y-91112499D02*
X213048033Y-91112499D01*
%TO.N,/D5*%
X212639999Y-81300000D02*
X212779999Y-81160000D01*
X209326000Y-83474000D02*
X209626000Y-83474000D01*
X209626000Y-83474000D02*
X211800000Y-81300000D01*
X212779999Y-81160000D02*
X212779999Y-79400000D01*
X211800000Y-81300000D02*
X212639999Y-81300000D01*
X209227728Y-85877980D02*
X209227728Y-85827728D01*
X208600000Y-85200000D02*
X208600000Y-84200000D01*
X209227728Y-85827728D02*
X208600000Y-85200000D01*
X208600000Y-84200000D02*
X209326000Y-83474000D01*
%TO.N,/D7*%
X207600000Y-85664466D02*
X207600000Y-81340000D01*
X208520621Y-86585087D02*
X207600000Y-85664466D01*
X207700000Y-81240000D02*
X207700000Y-79400000D01*
X207600000Y-81340000D02*
X207700000Y-81240000D01*
%TO.N,/D1{slash}TX*%
X214396388Y-89400000D02*
X214120263Y-89676126D01*
X213323958Y-89685084D02*
X213034832Y-89974210D01*
X216200000Y-90400000D02*
X215200000Y-89400000D01*
X214120263Y-89676126D02*
X213323958Y-89676126D01*
X213323958Y-89676126D02*
X213323958Y-89685084D01*
X213034832Y-89974210D02*
X212756858Y-89974210D01*
X212756858Y-89974210D02*
X212391323Y-89608676D01*
X215517464Y-88797463D02*
X216200000Y-89479999D01*
X215200000Y-89400000D02*
X214396388Y-89400000D01*
X216200000Y-89479999D02*
X216200000Y-90400000D01*
X212391323Y-89608676D02*
X212321320Y-89678679D01*
X216200000Y-90400000D02*
X216200000Y-91112499D01*
X215245001Y-88797463D02*
X215517464Y-88797463D01*
%TO.N,/D2*%
X213974874Y-89325126D02*
X220260000Y-83040000D01*
X220400000Y-81160000D02*
X220400000Y-79400000D01*
X220260000Y-81300000D02*
X220400000Y-81160000D01*
X212674874Y-89325126D02*
X213974874Y-89325126D01*
X220260000Y-83040000D02*
X220260000Y-81300000D01*
%TO.N,/D9*%
X204260166Y-82271000D02*
X205953000Y-83963833D01*
X202480001Y-79540000D02*
X202480001Y-82271000D01*
X202480001Y-82271000D02*
X204260166Y-82271000D01*
X205953000Y-83963833D02*
X205953000Y-85431679D01*
X205953000Y-85431679D02*
X207813515Y-87292194D01*
X202620001Y-79400000D02*
X202480001Y-79540000D01*
%TO.N,/D12{slash}MISO*%
X195000000Y-79400000D02*
X195000000Y-81440000D01*
X196884000Y-83324000D02*
X203824000Y-83324000D01*
X203824000Y-83324000D02*
X204900000Y-84400000D01*
X195000000Y-81440000D02*
X196884000Y-83324000D01*
X204900000Y-86500000D02*
X206752854Y-88352854D01*
X204900000Y-84400000D02*
X204900000Y-86500000D01*
%TO.N,/D6*%
X208874175Y-86231534D02*
X208200000Y-85557359D01*
X210100000Y-81700000D02*
X210100000Y-81300000D01*
X208200000Y-85557359D02*
X208200000Y-83600000D01*
X208200000Y-83600000D02*
X210100000Y-81700000D01*
X210240000Y-81160000D02*
X210100000Y-81300000D01*
X210240000Y-79400000D02*
X210240000Y-81160000D01*
%TO.N,/RX*%
X215282463Y-93340000D02*
X215052499Y-93340000D01*
X215052499Y-93340000D02*
X214400000Y-92687501D01*
X216300213Y-94357749D02*
X215282463Y-93340000D01*
%TO.N,/TX*%
X217000000Y-94375000D02*
X217000000Y-93487501D01*
X217000000Y-93487501D02*
X216200000Y-92687501D01*
%TO.N,/XTAL2*%
X210871303Y-83586233D02*
X210599000Y-83858536D01*
X210600000Y-85500000D02*
X210222020Y-85877980D01*
X210599000Y-83999000D02*
X210600000Y-84000000D01*
X210600000Y-84000000D02*
X210600000Y-85500000D01*
X210599000Y-83858536D02*
X210599000Y-83999000D01*
X210222020Y-85877980D02*
X210200000Y-85877980D01*
%TO.N,/XTAL1*%
X210849084Y-85747304D02*
X210849084Y-85936003D01*
X211600000Y-83600000D02*
X210951000Y-84249000D01*
X210951000Y-85645389D02*
X210849084Y-85747304D01*
X210849084Y-85936003D02*
X210553553Y-86231534D01*
X210951000Y-84249000D02*
X210951000Y-85645389D01*
%TD*%
%TA.AperFunction,Conductor*%
%TO.N,VBUS*%
G36*
X204001797Y-84319685D02*
G01*
X204022439Y-84336319D01*
X204288181Y-84602061D01*
X204321666Y-84663384D01*
X204324500Y-84689742D01*
X204324500Y-85055500D01*
X204304815Y-85122539D01*
X204252011Y-85168294D01*
X204200500Y-85179500D01*
X203302129Y-85179500D01*
X203302123Y-85179501D01*
X203242516Y-85185908D01*
X203107671Y-85236202D01*
X203107664Y-85236206D01*
X202992455Y-85322452D01*
X202992452Y-85322455D01*
X202906206Y-85437664D01*
X202906202Y-85437671D01*
X202855908Y-85572517D01*
X202849145Y-85635428D01*
X202847780Y-85635281D01*
X202826348Y-85695987D01*
X202805885Y-85718096D01*
X202297064Y-86148638D01*
X202042923Y-86363681D01*
X202034675Y-86370660D01*
X201970783Y-86398937D01*
X201954578Y-86400000D01*
X199551362Y-86400000D01*
X199521921Y-86391355D01*
X199491935Y-86384832D01*
X199486919Y-86381077D01*
X199484323Y-86380315D01*
X199463681Y-86363681D01*
X199336319Y-86236319D01*
X199302834Y-86174996D01*
X199300000Y-86148638D01*
X199300000Y-85551362D01*
X199319685Y-85484323D01*
X199336319Y-85463681D01*
X199463681Y-85336319D01*
X199525004Y-85302834D01*
X199551362Y-85300000D01*
X202099998Y-85300000D01*
X202100000Y-85300000D01*
X203467664Y-84323096D01*
X203533658Y-84300149D01*
X203539738Y-84300000D01*
X203934758Y-84300000D01*
X204001797Y-84319685D01*
G37*
%TD.AperFunction*%
%TD*%
%TA.AperFunction,Conductor*%
%TO.N,+5V*%
G36*
X204267539Y-85704685D02*
G01*
X204313294Y-85757489D01*
X204324500Y-85809000D01*
X204324500Y-86575765D01*
X204363719Y-86722136D01*
X204393618Y-86773922D01*
X204439485Y-86853365D01*
X204563682Y-86977562D01*
X204597166Y-87038883D01*
X204600000Y-87065242D01*
X204600000Y-88987270D01*
X204580315Y-89054309D01*
X204563681Y-89074951D01*
X204517051Y-89121580D01*
X204517048Y-89121584D01*
X204434919Y-89244498D01*
X204434912Y-89244511D01*
X204378343Y-89381082D01*
X204378340Y-89381092D01*
X204349500Y-89526079D01*
X204349500Y-89526082D01*
X204349500Y-89673918D01*
X204349500Y-89673920D01*
X204349499Y-89673920D01*
X204378340Y-89818907D01*
X204378343Y-89818917D01*
X204382332Y-89828546D01*
X204389802Y-89898015D01*
X204358528Y-89960494D01*
X204298440Y-89996148D01*
X204267772Y-90000000D01*
X203251362Y-90000000D01*
X203221921Y-89991355D01*
X203191935Y-89984832D01*
X203186919Y-89981077D01*
X203184323Y-89980315D01*
X203163681Y-89963681D01*
X203036319Y-89836319D01*
X203002834Y-89774996D01*
X203000000Y-89748638D01*
X203000000Y-88251362D01*
X203019685Y-88184323D01*
X203036319Y-88163681D01*
X203200000Y-88000000D01*
X203200000Y-86080368D01*
X203214315Y-86022530D01*
X203220136Y-86011490D01*
X203236294Y-85991748D01*
X203303014Y-85864272D01*
X203313643Y-85834161D01*
X203315192Y-85831226D01*
X203316165Y-85828877D01*
X203316165Y-85828873D01*
X203316168Y-85828870D01*
X203316507Y-85827541D01*
X203319720Y-85816950D01*
X203324446Y-85803566D01*
X203324444Y-85803565D01*
X203337104Y-85767714D01*
X203377986Y-85711054D01*
X203443011Y-85685490D01*
X203454029Y-85685000D01*
X204200500Y-85685000D01*
X204267539Y-85704685D01*
G37*
%TD.AperFunction*%
%TD*%
M02*
