%TF.GenerationSoftware,KiCad,Pcbnew,9.0.2*%
%TF.CreationDate,2025-07-20T14:30:59+05:30*%
%TF.ProjectId,Arduino nano,41726475-696e-46f2-906e-616e6f2e6b69,rev?*%
%TF.SameCoordinates,Original*%
%TF.FileFunction,Copper,L2,Inr*%
%TF.FilePolarity,Positive*%
%FSLAX46Y46*%
G04 Gerber Fmt 4.6, Leading zero omitted, Abs format (unit mm)*
G04 Created by KiCad (PCBNEW 9.0.2) date 2025-07-20 14:30:59*
%MOMM*%
%LPD*%
G01*
G04 APERTURE LIST*
%TA.AperFunction,ComponentPad*%
%ADD10R,1.700000X1.700000*%
%TD*%
%TA.AperFunction,ComponentPad*%
%ADD11C,1.700000*%
%TD*%
%TA.AperFunction,ViaPad*%
%ADD12C,0.500000*%
%TD*%
%TA.AperFunction,Conductor*%
%ADD13C,0.300000*%
%TD*%
%TA.AperFunction,Conductor*%
%ADD14C,0.150000*%
%TD*%
G04 APERTURE END LIST*
D10*
%TO.N,VCC*%
%TO.C,J2*%
X230320000Y-97600000D03*
D11*
%TO.N,/RESET*%
X227780000Y-97600000D03*
%TO.N,GND*%
X225240001Y-97600000D03*
%TO.N,+5V*%
X222700000Y-97600000D03*
%TO.N,/A7*%
X220160000Y-97600000D03*
%TO.N,/A6*%
X217620000Y-97600000D03*
%TO.N,/A5*%
X215080000Y-97600000D03*
%TO.N,/A4*%
X212539999Y-97600000D03*
%TO.N,/A3*%
X210000000Y-97600000D03*
%TO.N,/A2*%
X207460000Y-97600000D03*
%TO.N,/A1*%
X204920000Y-97600000D03*
%TO.N,/A0*%
X202380001Y-97600000D03*
%TO.N,/AREF*%
X199840000Y-97600000D03*
%TO.N,+3.3V*%
X197300000Y-97600000D03*
%TO.N,/D13{slash}SCK*%
X194760000Y-97600000D03*
%TD*%
D10*
%TO.N,/D0{slash}RX*%
%TO.C,J4*%
X230560000Y-79400000D03*
D11*
%TO.N,/D1{slash}TX*%
X228020000Y-79400000D03*
%TO.N,/RESET*%
X225480001Y-79400000D03*
%TO.N,GND*%
X222940000Y-79400000D03*
%TO.N,/D2*%
X220400000Y-79400000D03*
%TO.N,/D3*%
X217860000Y-79400000D03*
%TO.N,/D4*%
X215320000Y-79400000D03*
%TO.N,/D5*%
X212779999Y-79400000D03*
%TO.N,/D6*%
X210240000Y-79400000D03*
%TO.N,/D7*%
X207700000Y-79400000D03*
%TO.N,/D8*%
X205160000Y-79400000D03*
%TO.N,/D9*%
X202620001Y-79400000D03*
%TO.N,/D10*%
X200080000Y-79400000D03*
%TO.N,/D11{slash}MOSI*%
X197540000Y-79400000D03*
%TO.N,/D12{slash}MISO*%
X195000000Y-79400000D03*
%TD*%
D10*
%TO.N,/D12{slash}MISO*%
%TO.C,J5*%
X232200000Y-91600000D03*
D11*
%TO.N,/D13{slash}SCK*%
X232200000Y-89060000D03*
%TO.N,/RESET*%
X232200000Y-86520000D03*
%TD*%
D10*
%TO.N,+5V*%
%TO.C,J3*%
X228600000Y-91640000D03*
D11*
%TO.N,/D11{slash}MOSI*%
X228600000Y-89100000D03*
%TO.N,GND*%
X228600000Y-86560000D03*
%TD*%
D12*
%TO.N,+5V*%
X221200000Y-89800000D03*
X214600000Y-86000000D03*
X204200000Y-88000000D03*
X221800000Y-89200000D03*
X221200000Y-89200000D03*
X219400000Y-85800000D03*
X199424999Y-84525000D03*
X203600000Y-88000000D03*
X212300000Y-83700000D03*
X205744033Y-90536356D03*
X202739998Y-91754999D03*
X221800000Y-89800000D03*
%TO.N,GND*%
X218800000Y-87000000D03*
X217700000Y-92400000D03*
X217900000Y-86900000D03*
X191000000Y-86000000D03*
X217200000Y-92700000D03*
X191400000Y-91400000D03*
X203000000Y-94300000D03*
X206089079Y-93489079D03*
X191400000Y-95200000D03*
X198994084Y-83973352D03*
X216500000Y-83700000D03*
X198800000Y-90600000D03*
X194800000Y-93200000D03*
X210074000Y-83900000D03*
X226300000Y-91040000D03*
X192200000Y-95200000D03*
X226100000Y-86600000D03*
X209000000Y-87900000D03*
X226500000Y-85300000D03*
X191800000Y-86000000D03*
X225100000Y-88099000D03*
X199800000Y-88600000D03*
X209100000Y-89800000D03*
X194292619Y-85826643D03*
X216500000Y-84200000D03*
X226100000Y-87400000D03*
X221900000Y-87600000D03*
X201600000Y-88200000D03*
X226500000Y-83900000D03*
X227000000Y-90700000D03*
X202400000Y-87700000D03*
X210300000Y-89800000D03*
X192600000Y-90400000D03*
X212800000Y-86800000D03*
X199800000Y-89600000D03*
X225700000Y-89400000D03*
X194800000Y-93800000D03*
X200900000Y-95000000D03*
X194400000Y-85000000D03*
%TO.N,+3.3V*%
X194400000Y-82800000D03*
%TO.N,/RESET*%
X213580996Y-93619848D03*
%TO.N,VBUS*%
X192800000Y-87600000D03*
%TO.N,Net-(D1-A)*%
X200000000Y-91574998D03*
X220200000Y-90000000D03*
%TO.N,/D_P*%
X198600000Y-89000000D03*
%TO.N,/D_N*%
X198600000Y-88200000D03*
%TO.N,/A7*%
X207600000Y-92275000D03*
%TO.N,/A6*%
X206191744Y-91158219D03*
%TO.N,/D13{slash}SCK*%
X205100000Y-89600000D03*
%TO.N,/D0{slash}RX*%
X215047539Y-89990000D03*
%TO.N,/D1{slash}TX*%
X215245001Y-88797463D03*
%TO.N,/RX*%
X216300213Y-94357749D03*
%TO.N,/TX*%
X217000000Y-94375000D03*
%TO.N,/XTAL2*%
X210871303Y-83586233D03*
%TO.N,/XTAL1*%
X211600000Y-83600000D03*
%TD*%
D13*
%TO.N,+5V*%
X205744033Y-90536356D02*
X205744033Y-90055967D01*
X204200000Y-88000000D02*
X207800000Y-88000000D01*
X203600000Y-88000000D02*
X204200000Y-88000000D01*
X221200000Y-89800000D02*
X221800000Y-89800000D01*
X200125000Y-84525000D02*
X203600000Y-88000000D01*
X212100000Y-88500000D02*
X214600000Y-86000000D01*
X221800000Y-95800000D02*
X221800000Y-89800000D01*
X222700000Y-96700000D02*
X221800000Y-95800000D01*
X203894997Y-90600000D02*
X205680389Y-90600000D01*
X221800000Y-89200000D02*
X221200000Y-89200000D01*
X221200000Y-89800000D02*
X221200000Y-89200000D01*
X221200000Y-89200000D02*
X221200000Y-87600000D01*
X228600000Y-91640000D02*
X223640000Y-91640000D01*
X221800000Y-89200000D02*
X221800000Y-89800000D01*
X219400000Y-85800000D02*
X214800000Y-85800000D01*
X223640000Y-91640000D02*
X221800000Y-89800000D01*
X199424999Y-84525000D02*
X200125000Y-84525000D01*
X214800000Y-85800000D02*
X214600000Y-86000000D01*
X221200000Y-87600000D02*
X219400000Y-85800000D01*
X205680389Y-90600000D02*
X205744033Y-90536356D01*
X208300000Y-88500000D02*
X212100000Y-88500000D01*
X207800000Y-88000000D02*
X208300000Y-88500000D01*
X205744033Y-90055967D02*
X207800000Y-88000000D01*
X202739998Y-91754999D02*
X203894997Y-90600000D01*
%TO.N,+3.3V*%
X195900000Y-95300000D02*
X197300000Y-96700000D01*
X194400000Y-82800000D02*
X194400000Y-83200000D01*
X195900000Y-84700000D02*
X195900000Y-95300000D01*
X194400000Y-83200000D02*
X195900000Y-84700000D01*
D14*
%TO.N,Net-(D1-A)*%
X220200000Y-90000000D02*
X218451000Y-91749000D01*
X202957875Y-92280999D02*
X200706001Y-92280999D01*
X218451000Y-91749000D02*
X203489874Y-91749000D01*
X200706001Y-92280999D02*
X200000000Y-91574998D01*
X203489874Y-91749000D02*
X202957875Y-92280999D01*
%TO.N,/D11{slash}MOSI*%
X197540000Y-81440000D02*
X197540000Y-79400000D01*
X223266645Y-82866645D02*
X198966645Y-82866645D01*
X228600000Y-89100000D02*
X228600000Y-88200000D01*
X198966645Y-82866645D02*
X197540000Y-81440000D01*
X228600000Y-88200000D02*
X223266645Y-82866645D01*
%TO.N,/D12{slash}MISO*%
X195000000Y-81440000D02*
X196960000Y-83400000D01*
X228133595Y-90226000D02*
X230826000Y-90226000D01*
X195000000Y-79400000D02*
X195000000Y-81440000D01*
X199602454Y-83400000D02*
X201002454Y-84800000D01*
X222707595Y-84800000D02*
X228133595Y-90226000D01*
X230826000Y-90226000D02*
X232200000Y-91600000D01*
X201002454Y-84800000D02*
X222707595Y-84800000D01*
X196960000Y-83400000D02*
X199602454Y-83400000D01*
%TD*%
%TA.AperFunction,Conductor*%
%TO.N,GND*%
G36*
X194322484Y-78020185D02*
G01*
X194368239Y-78072989D01*
X194378183Y-78142147D01*
X194349158Y-78205703D01*
X194311739Y-78234985D01*
X194292182Y-78244949D01*
X194120213Y-78369890D01*
X193969890Y-78520213D01*
X193844951Y-78692179D01*
X193748444Y-78881585D01*
X193682753Y-79083760D01*
X193656112Y-79251964D01*
X193649500Y-79293713D01*
X193649500Y-79506287D01*
X193682754Y-79716243D01*
X193730000Y-79861652D01*
X193748444Y-79918414D01*
X193844951Y-80107820D01*
X193969890Y-80279786D01*
X194120213Y-80430109D01*
X194292182Y-80555050D01*
X194292184Y-80555051D01*
X194356794Y-80587971D01*
X194407590Y-80635945D01*
X194424500Y-80698456D01*
X194424500Y-81515765D01*
X194463719Y-81662136D01*
X194501602Y-81727750D01*
X194539485Y-81793365D01*
X194539487Y-81793367D01*
X194586453Y-81840333D01*
X194619938Y-81901656D01*
X194614954Y-81971348D01*
X194573082Y-82027281D01*
X194507618Y-82051698D01*
X194479995Y-82049970D01*
X194479983Y-82050097D01*
X194476439Y-82049748D01*
X194474584Y-82049632D01*
X194473920Y-82049500D01*
X194473918Y-82049500D01*
X194326082Y-82049500D01*
X194326080Y-82049500D01*
X194181092Y-82078340D01*
X194181082Y-82078343D01*
X194044511Y-82134912D01*
X194044498Y-82134919D01*
X193921584Y-82217048D01*
X193921580Y-82217051D01*
X193817051Y-82321580D01*
X193817048Y-82321584D01*
X193734919Y-82444498D01*
X193734912Y-82444511D01*
X193678343Y-82581082D01*
X193678340Y-82581092D01*
X193649500Y-82726079D01*
X193649500Y-82726082D01*
X193649500Y-82873918D01*
X193649500Y-82873920D01*
X193649499Y-82873920D01*
X193678340Y-83018907D01*
X193678343Y-83018917D01*
X193737247Y-83161124D01*
X193736803Y-83161307D01*
X193739012Y-83163930D01*
X193741727Y-83176850D01*
X193748475Y-83197932D01*
X193749500Y-83205855D01*
X193749500Y-83264069D01*
X193770217Y-83368216D01*
X193771031Y-83372313D01*
X193771034Y-83372329D01*
X193774498Y-83389739D01*
X193774499Y-83389744D01*
X193823535Y-83508127D01*
X193894723Y-83614669D01*
X193894726Y-83614673D01*
X193894727Y-83614674D01*
X195213181Y-84933127D01*
X195246666Y-84994450D01*
X195249500Y-85020808D01*
X195249500Y-86096514D01*
X195229815Y-86163553D01*
X195177011Y-86209308D01*
X195107853Y-86219252D01*
X195078048Y-86211075D01*
X194989748Y-86174500D01*
X194989738Y-86174497D01*
X194864071Y-86149500D01*
X194864069Y-86149500D01*
X194735931Y-86149500D01*
X194735929Y-86149500D01*
X194610261Y-86174497D01*
X194610255Y-86174499D01*
X194491875Y-86223533D01*
X194491866Y-86223538D01*
X194385331Y-86294723D01*
X194385327Y-86294726D01*
X194294726Y-86385327D01*
X194294723Y-86385331D01*
X194223538Y-86491866D01*
X194223533Y-86491875D01*
X194174499Y-86610255D01*
X194174497Y-86610261D01*
X194149500Y-86735928D01*
X194149500Y-86735931D01*
X194149500Y-86864069D01*
X194149500Y-86864071D01*
X194149499Y-86864071D01*
X194174497Y-86989738D01*
X194174499Y-86989744D01*
X194223533Y-87108124D01*
X194223538Y-87108133D01*
X194294723Y-87214668D01*
X194294726Y-87214672D01*
X194385327Y-87305273D01*
X194385331Y-87305276D01*
X194491866Y-87376461D01*
X194491875Y-87376466D01*
X194503920Y-87381455D01*
X194610256Y-87425501D01*
X194610260Y-87425501D01*
X194610261Y-87425502D01*
X194735928Y-87450500D01*
X194735931Y-87450500D01*
X194864071Y-87450500D01*
X194948615Y-87433682D01*
X194989744Y-87425501D01*
X195078048Y-87388923D01*
X195147516Y-87381455D01*
X195209995Y-87412730D01*
X195245648Y-87472818D01*
X195249500Y-87503485D01*
X195249500Y-90496514D01*
X195229815Y-90563553D01*
X195177011Y-90609308D01*
X195107853Y-90619252D01*
X195078048Y-90611075D01*
X194989748Y-90574500D01*
X194989738Y-90574497D01*
X194864071Y-90549500D01*
X194864069Y-90549500D01*
X194735931Y-90549500D01*
X194735929Y-90549500D01*
X194610261Y-90574497D01*
X194610255Y-90574499D01*
X194491875Y-90623533D01*
X194491866Y-90623538D01*
X194385331Y-90694723D01*
X194385327Y-90694726D01*
X194294726Y-90785327D01*
X194294723Y-90785331D01*
X194223538Y-90891866D01*
X194223533Y-90891875D01*
X194174499Y-91010255D01*
X194174497Y-91010261D01*
X194149500Y-91135928D01*
X194149500Y-91135931D01*
X194149500Y-91264069D01*
X194149500Y-91264071D01*
X194149499Y-91264071D01*
X194174497Y-91389738D01*
X194174499Y-91389744D01*
X194223533Y-91508124D01*
X194223538Y-91508133D01*
X194294723Y-91614668D01*
X194294726Y-91614672D01*
X194385327Y-91705273D01*
X194385331Y-91705276D01*
X194491866Y-91776461D01*
X194491872Y-91776464D01*
X194491873Y-91776465D01*
X194610256Y-91825501D01*
X194610260Y-91825501D01*
X194610261Y-91825502D01*
X194735928Y-91850500D01*
X194735931Y-91850500D01*
X194864071Y-91850500D01*
X194948615Y-91833682D01*
X194989744Y-91825501D01*
X195078048Y-91788923D01*
X195147516Y-91781455D01*
X195209995Y-91812730D01*
X195245648Y-91872818D01*
X195249500Y-91903485D01*
X195249500Y-95364069D01*
X195249500Y-95364071D01*
X195249499Y-95364071D01*
X195274497Y-95489738D01*
X195274499Y-95489744D01*
X195323534Y-95608125D01*
X195394726Y-95714673D01*
X195394727Y-95714674D01*
X196249867Y-96569813D01*
X196265814Y-96599018D01*
X196282577Y-96627794D01*
X196282499Y-96629574D01*
X196283352Y-96631136D01*
X196280977Y-96664335D01*
X196279522Y-96697597D01*
X196278451Y-96699659D01*
X196278368Y-96700827D01*
X196263471Y-96729030D01*
X196262930Y-96729794D01*
X196144949Y-96892184D01*
X196136433Y-96908896D01*
X196131285Y-96916186D01*
X196110616Y-96932569D01*
X196092509Y-96951742D01*
X196083668Y-96953931D01*
X196076531Y-96959589D01*
X196050285Y-96962197D01*
X196024688Y-96968536D01*
X196016067Y-96965598D01*
X196007004Y-96966499D01*
X195983518Y-96954505D01*
X195958553Y-96945998D01*
X195951962Y-96938391D01*
X195944778Y-96934723D01*
X195936561Y-96920617D01*
X195919516Y-96900946D01*
X195915050Y-96892182D01*
X195790109Y-96720213D01*
X195639786Y-96569890D01*
X195467820Y-96444951D01*
X195278414Y-96348444D01*
X195278413Y-96348443D01*
X195278412Y-96348443D01*
X195076243Y-96282754D01*
X195076241Y-96282753D01*
X195076240Y-96282753D01*
X194914957Y-96257208D01*
X194866287Y-96249500D01*
X194653713Y-96249500D01*
X194605042Y-96257208D01*
X194443760Y-96282753D01*
X194241585Y-96348444D01*
X194052179Y-96444951D01*
X193880213Y-96569890D01*
X193729890Y-96720213D01*
X193604951Y-96892179D01*
X193508444Y-97081585D01*
X193442753Y-97283760D01*
X193441291Y-97292993D01*
X193409500Y-97493713D01*
X193409500Y-97706287D01*
X193442754Y-97916243D01*
X193490000Y-98061652D01*
X193508444Y-98118414D01*
X193604951Y-98307820D01*
X193729890Y-98479786D01*
X193880213Y-98630109D01*
X194052182Y-98755050D01*
X194071739Y-98765015D01*
X194122536Y-98812989D01*
X194139331Y-98880810D01*
X194116794Y-98946945D01*
X194062079Y-98990397D01*
X194015445Y-98999500D01*
X190105532Y-98999500D01*
X190103320Y-98999480D01*
X190005132Y-98997728D01*
X189989696Y-98996486D01*
X189789762Y-98967739D01*
X189772475Y-98963978D01*
X189584037Y-98908648D01*
X189567461Y-98902465D01*
X189388825Y-98820885D01*
X189373296Y-98812406D01*
X189208075Y-98706224D01*
X189193913Y-98695622D01*
X189045492Y-98567016D01*
X189032981Y-98554505D01*
X188904378Y-98406088D01*
X188893776Y-98391926D01*
X188865417Y-98347799D01*
X188787587Y-98226694D01*
X188779114Y-98211175D01*
X188779113Y-98211173D01*
X188728342Y-98100000D01*
X188697531Y-98032532D01*
X188691348Y-98015956D01*
X188687678Y-98003458D01*
X188636020Y-97827524D01*
X188636020Y-97827523D01*
X188632259Y-97810237D01*
X188623316Y-97748035D01*
X188603511Y-97610293D01*
X188602270Y-97594873D01*
X188600520Y-97496679D01*
X188600500Y-97494469D01*
X188600500Y-87673920D01*
X192049499Y-87673920D01*
X192078340Y-87818907D01*
X192078343Y-87818917D01*
X192134912Y-87955488D01*
X192134919Y-87955501D01*
X192217048Y-88078415D01*
X192217051Y-88078419D01*
X192321580Y-88182948D01*
X192321584Y-88182951D01*
X192444498Y-88265080D01*
X192444511Y-88265087D01*
X192574774Y-88319043D01*
X192581087Y-88321658D01*
X192581091Y-88321658D01*
X192581092Y-88321659D01*
X192726079Y-88350500D01*
X192726082Y-88350500D01*
X192873920Y-88350500D01*
X192971462Y-88331096D01*
X193018913Y-88321658D01*
X193155495Y-88265084D01*
X193278416Y-88182951D01*
X193382951Y-88078416D01*
X193465084Y-87955495D01*
X193521658Y-87818913D01*
X193537458Y-87739485D01*
X193550500Y-87673920D01*
X193550500Y-87526079D01*
X193521659Y-87381092D01*
X193521658Y-87381091D01*
X193521658Y-87381087D01*
X193503142Y-87336385D01*
X193465087Y-87244511D01*
X193465080Y-87244498D01*
X193382951Y-87121584D01*
X193382948Y-87121580D01*
X193278419Y-87017051D01*
X193278415Y-87017048D01*
X193155501Y-86934919D01*
X193155488Y-86934912D01*
X193018917Y-86878343D01*
X193018907Y-86878340D01*
X192873920Y-86849500D01*
X192873918Y-86849500D01*
X192726082Y-86849500D01*
X192726080Y-86849500D01*
X192581092Y-86878340D01*
X192581082Y-86878343D01*
X192444511Y-86934912D01*
X192444498Y-86934919D01*
X192321584Y-87017048D01*
X192321580Y-87017051D01*
X192217051Y-87121580D01*
X192217048Y-87121584D01*
X192134919Y-87244498D01*
X192134912Y-87244511D01*
X192078343Y-87381082D01*
X192078340Y-87381092D01*
X192049500Y-87526079D01*
X192049500Y-87526082D01*
X192049500Y-87673918D01*
X192049500Y-87673920D01*
X192049499Y-87673920D01*
X188600500Y-87673920D01*
X188600500Y-79505529D01*
X188600520Y-79503319D01*
X188601832Y-79429725D01*
X188602270Y-79405124D01*
X188603511Y-79389707D01*
X188632259Y-79189758D01*
X188636020Y-79172473D01*
X188691350Y-78984035D01*
X188697531Y-78967466D01*
X188726190Y-78904711D01*
X188779119Y-78788812D01*
X188787584Y-78773310D01*
X188893780Y-78608065D01*
X188904376Y-78593913D01*
X189032987Y-78445486D01*
X189045486Y-78432987D01*
X189193920Y-78304370D01*
X189208068Y-78293778D01*
X189373302Y-78187588D01*
X189388818Y-78179116D01*
X189567466Y-78097531D01*
X189584031Y-78091352D01*
X189772479Y-78036019D01*
X189789757Y-78032259D01*
X189989708Y-78003510D01*
X190005124Y-78002270D01*
X190101342Y-78000555D01*
X190103320Y-78000520D01*
X190105530Y-78000500D01*
X194255445Y-78000500D01*
X194322484Y-78020185D01*
G37*
%TD.AperFunction*%
%TA.AperFunction,Conductor*%
G36*
X224774076Y-97792993D02*
G01*
X224839902Y-97907007D01*
X224932994Y-98000099D01*
X225047008Y-98065925D01*
X225110591Y-98082962D01*
X224478283Y-98715269D01*
X224478283Y-98715270D01*
X224532453Y-98754626D01*
X224532452Y-98754626D01*
X224552842Y-98765015D01*
X224603639Y-98812989D01*
X224620434Y-98880810D01*
X224597897Y-98946945D01*
X224543182Y-98990397D01*
X224496548Y-98999500D01*
X223444555Y-98999500D01*
X223377516Y-98979815D01*
X223331761Y-98927011D01*
X223321817Y-98857853D01*
X223350842Y-98794297D01*
X223388261Y-98765015D01*
X223394796Y-98761684D01*
X223407816Y-98755051D01*
X223481617Y-98701432D01*
X223579786Y-98630109D01*
X223579788Y-98630106D01*
X223579792Y-98630104D01*
X223730104Y-98479792D01*
X223730106Y-98479788D01*
X223730109Y-98479786D01*
X223855048Y-98307820D01*
X223855050Y-98307817D01*
X223855051Y-98307816D01*
X223859795Y-98298504D01*
X223907767Y-98247708D01*
X223975587Y-98230911D01*
X224041723Y-98253446D01*
X224080766Y-98298503D01*
X224085374Y-98307547D01*
X224124729Y-98361716D01*
X224757038Y-97729408D01*
X224774076Y-97792993D01*
G37*
%TD.AperFunction*%
%TA.AperFunction,Conductor*%
G36*
X226355271Y-98361717D02*
G01*
X226355271Y-98361716D01*
X226394624Y-98307553D01*
X226399231Y-98298511D01*
X226447202Y-98247712D01*
X226515022Y-98230912D01*
X226581158Y-98253446D01*
X226620202Y-98298501D01*
X226624949Y-98307817D01*
X226749890Y-98479786D01*
X226900213Y-98630109D01*
X227072182Y-98755050D01*
X227091739Y-98765015D01*
X227142536Y-98812989D01*
X227159331Y-98880810D01*
X227136794Y-98946945D01*
X227082079Y-98990397D01*
X227035445Y-98999500D01*
X225983454Y-98999500D01*
X225916415Y-98979815D01*
X225870660Y-98927011D01*
X225860716Y-98857853D01*
X225889741Y-98794297D01*
X225927160Y-98765015D01*
X225947553Y-98754624D01*
X226001717Y-98715270D01*
X226001718Y-98715270D01*
X225369409Y-98082962D01*
X225432994Y-98065925D01*
X225547008Y-98000099D01*
X225640100Y-97907007D01*
X225705926Y-97792993D01*
X225722963Y-97729408D01*
X226355271Y-98361717D01*
G37*
%TD.AperFunction*%
%TA.AperFunction,Conductor*%
G36*
X233596680Y-78000520D02*
G01*
X233598689Y-78000555D01*
X233694873Y-78002270D01*
X233710293Y-78003511D01*
X233897057Y-78030364D01*
X233910237Y-78032259D01*
X233927524Y-78036019D01*
X234115959Y-78091349D01*
X234132532Y-78097531D01*
X234167410Y-78113459D01*
X234311180Y-78179116D01*
X234326694Y-78187587D01*
X234477846Y-78284727D01*
X234491926Y-78293776D01*
X234506085Y-78304376D01*
X234506088Y-78304378D01*
X234654505Y-78432981D01*
X234667016Y-78445492D01*
X234795622Y-78593913D01*
X234806224Y-78608075D01*
X234912406Y-78773296D01*
X234920885Y-78788825D01*
X235002465Y-78967461D01*
X235008648Y-78984037D01*
X235063978Y-79172475D01*
X235067739Y-79189762D01*
X235096486Y-79389696D01*
X235097728Y-79405132D01*
X235099480Y-79503318D01*
X235099500Y-79505530D01*
X235099500Y-97494468D01*
X235099480Y-97496680D01*
X235097728Y-97594866D01*
X235096486Y-97610302D01*
X235067739Y-97810236D01*
X235063978Y-97827523D01*
X235008648Y-98015961D01*
X235002465Y-98032537D01*
X234920885Y-98211173D01*
X234912406Y-98226702D01*
X234806224Y-98391923D01*
X234795622Y-98406085D01*
X234667016Y-98554506D01*
X234654505Y-98567017D01*
X234506088Y-98695620D01*
X234491926Y-98706222D01*
X234326704Y-98812405D01*
X234311175Y-98820884D01*
X234132532Y-98902467D01*
X234115956Y-98908650D01*
X233927525Y-98963978D01*
X233910237Y-98967739D01*
X233710301Y-98996486D01*
X233694866Y-98997728D01*
X233596680Y-98999480D01*
X233594468Y-98999500D01*
X231631571Y-98999500D01*
X231564532Y-98979815D01*
X231518777Y-98927011D01*
X231508833Y-98857853D01*
X231532305Y-98801189D01*
X231613793Y-98692335D01*
X231613792Y-98692335D01*
X231613796Y-98692331D01*
X231664091Y-98557483D01*
X231670500Y-98497873D01*
X231670499Y-96702128D01*
X231664091Y-96642517D01*
X231662810Y-96639083D01*
X231613797Y-96507671D01*
X231613793Y-96507664D01*
X231527547Y-96392455D01*
X231527544Y-96392452D01*
X231412335Y-96306206D01*
X231412328Y-96306202D01*
X231277482Y-96255908D01*
X231277483Y-96255908D01*
X231217883Y-96249501D01*
X231217881Y-96249500D01*
X231217873Y-96249500D01*
X231217864Y-96249500D01*
X229422129Y-96249500D01*
X229422123Y-96249501D01*
X229362516Y-96255908D01*
X229227671Y-96306202D01*
X229227664Y-96306206D01*
X229112455Y-96392452D01*
X229112452Y-96392455D01*
X229026206Y-96507664D01*
X229026203Y-96507669D01*
X228977189Y-96639083D01*
X228935317Y-96695016D01*
X228869853Y-96719433D01*
X228801580Y-96704581D01*
X228773326Y-96683430D01*
X228659786Y-96569890D01*
X228487820Y-96444951D01*
X228298414Y-96348444D01*
X228298413Y-96348443D01*
X228298412Y-96348443D01*
X228096243Y-96282754D01*
X228096241Y-96282753D01*
X228096240Y-96282753D01*
X227934957Y-96257208D01*
X227886287Y-96249500D01*
X227673713Y-96249500D01*
X227625042Y-96257208D01*
X227463760Y-96282753D01*
X227261585Y-96348444D01*
X227072179Y-96444951D01*
X226900213Y-96569890D01*
X226749890Y-96720213D01*
X226624950Y-96892181D01*
X226620201Y-96901501D01*
X226572223Y-96952294D01*
X226504402Y-96969086D01*
X226438268Y-96946545D01*
X226399232Y-96901491D01*
X226394625Y-96892449D01*
X226355271Y-96838282D01*
X226355270Y-96838282D01*
X225722963Y-97470590D01*
X225705926Y-97407007D01*
X225640100Y-97292993D01*
X225547008Y-97199901D01*
X225432994Y-97134075D01*
X225369410Y-97117037D01*
X226001717Y-96484728D01*
X225947551Y-96445375D01*
X225758218Y-96348904D01*
X225556130Y-96283242D01*
X225346247Y-96250000D01*
X225133755Y-96250000D01*
X224923873Y-96283242D01*
X224923870Y-96283242D01*
X224721783Y-96348904D01*
X224532440Y-96445380D01*
X224478283Y-96484727D01*
X224478283Y-96484728D01*
X225110592Y-97117037D01*
X225047008Y-97134075D01*
X224932994Y-97199901D01*
X224839902Y-97292993D01*
X224774076Y-97407007D01*
X224757038Y-97470591D01*
X224124729Y-96838282D01*
X224124728Y-96838282D01*
X224085381Y-96892440D01*
X224080763Y-96901503D01*
X224032785Y-96952296D01*
X223964964Y-96969088D01*
X223898830Y-96946547D01*
X223859796Y-96901496D01*
X223855050Y-96892182D01*
X223730109Y-96720213D01*
X223579786Y-96569890D01*
X223407817Y-96444949D01*
X223291262Y-96385560D01*
X223244456Y-96343967D01*
X223205276Y-96285331D01*
X223205273Y-96285327D01*
X222486819Y-95566873D01*
X222453334Y-95505550D01*
X222450500Y-95479192D01*
X222450500Y-91669808D01*
X222470185Y-91602769D01*
X222522989Y-91557014D01*
X222592147Y-91547070D01*
X222655703Y-91576095D01*
X222662181Y-91582127D01*
X223225325Y-92145272D01*
X223225326Y-92145273D01*
X223225329Y-92145275D01*
X223225331Y-92145277D01*
X223331873Y-92216465D01*
X223450256Y-92265501D01*
X223450260Y-92265501D01*
X223450261Y-92265502D01*
X223575928Y-92290500D01*
X223575931Y-92290500D01*
X227125501Y-92290500D01*
X227192540Y-92310185D01*
X227238295Y-92362989D01*
X227249501Y-92414500D01*
X227249501Y-92537876D01*
X227255908Y-92597483D01*
X227306202Y-92732328D01*
X227306206Y-92732335D01*
X227392452Y-92847544D01*
X227392455Y-92847547D01*
X227507664Y-92933793D01*
X227507671Y-92933797D01*
X227642517Y-92984091D01*
X227642516Y-92984091D01*
X227649444Y-92984835D01*
X227702127Y-92990500D01*
X229497872Y-92990499D01*
X229557483Y-92984091D01*
X229692331Y-92933796D01*
X229807546Y-92847546D01*
X229893796Y-92732331D01*
X229944091Y-92597483D01*
X229950500Y-92537873D01*
X229950499Y-90925499D01*
X229970184Y-90858461D01*
X230022987Y-90812706D01*
X230074499Y-90801500D01*
X230536258Y-90801500D01*
X230603297Y-90821185D01*
X230623939Y-90837819D01*
X230813181Y-91027061D01*
X230846666Y-91088384D01*
X230849500Y-91114742D01*
X230849500Y-92497870D01*
X230849501Y-92497876D01*
X230855908Y-92557483D01*
X230906202Y-92692328D01*
X230906206Y-92692335D01*
X230992452Y-92807544D01*
X230992455Y-92807547D01*
X231107664Y-92893793D01*
X231107671Y-92893797D01*
X231242517Y-92944091D01*
X231242516Y-92944091D01*
X231249444Y-92944835D01*
X231302127Y-92950500D01*
X233097872Y-92950499D01*
X233157483Y-92944091D01*
X233292331Y-92893796D01*
X233407546Y-92807546D01*
X233493796Y-92692331D01*
X233544091Y-92557483D01*
X233550500Y-92497873D01*
X233550499Y-90702128D01*
X233544091Y-90642517D01*
X233537012Y-90623538D01*
X233493797Y-90507671D01*
X233493793Y-90507664D01*
X233407547Y-90392455D01*
X233407544Y-90392452D01*
X233292335Y-90306206D01*
X233292328Y-90306202D01*
X233160917Y-90257189D01*
X233104983Y-90215318D01*
X233080566Y-90149853D01*
X233095418Y-90081580D01*
X233116563Y-90053332D01*
X233230104Y-89939792D01*
X233240069Y-89926077D01*
X233355048Y-89767820D01*
X233355047Y-89767820D01*
X233355051Y-89767816D01*
X233451557Y-89578412D01*
X233517246Y-89376243D01*
X233550500Y-89166287D01*
X233550500Y-88953713D01*
X233517246Y-88743757D01*
X233451557Y-88541588D01*
X233355051Y-88352184D01*
X233355049Y-88352181D01*
X233355048Y-88352179D01*
X233230109Y-88180213D01*
X233079786Y-88029890D01*
X232907820Y-87904951D01*
X232907115Y-87904591D01*
X232899054Y-87900485D01*
X232848259Y-87852512D01*
X232831463Y-87784692D01*
X232853999Y-87718556D01*
X232899054Y-87679515D01*
X232907816Y-87675051D01*
X232987647Y-87617051D01*
X233079786Y-87550109D01*
X233079788Y-87550106D01*
X233079792Y-87550104D01*
X233230104Y-87399792D01*
X233230106Y-87399788D01*
X233230109Y-87399786D01*
X233355048Y-87227820D01*
X233355047Y-87227820D01*
X233355051Y-87227816D01*
X233451557Y-87038412D01*
X233517246Y-86836243D01*
X233550500Y-86626287D01*
X233550500Y-86413713D01*
X233517246Y-86203757D01*
X233451557Y-86001588D01*
X233355051Y-85812184D01*
X233355049Y-85812181D01*
X233355048Y-85812179D01*
X233230109Y-85640213D01*
X233079786Y-85489890D01*
X232907820Y-85364951D01*
X232718414Y-85268444D01*
X232718413Y-85268443D01*
X232718412Y-85268443D01*
X232516243Y-85202754D01*
X232516241Y-85202753D01*
X232516240Y-85202753D01*
X232344169Y-85175500D01*
X232306287Y-85169500D01*
X232093713Y-85169500D01*
X232055831Y-85175500D01*
X231883760Y-85202753D01*
X231681585Y-85268444D01*
X231492179Y-85364951D01*
X231320213Y-85489890D01*
X231169890Y-85640213D01*
X231044951Y-85812179D01*
X230948444Y-86001585D01*
X230948443Y-86001587D01*
X230948443Y-86001588D01*
X230942761Y-86019074D01*
X230882753Y-86203760D01*
X230849500Y-86413713D01*
X230849500Y-86626286D01*
X230866865Y-86735928D01*
X230882754Y-86836243D01*
X230941502Y-87017051D01*
X230948444Y-87038414D01*
X231044951Y-87227820D01*
X231169890Y-87399786D01*
X231320213Y-87550109D01*
X231492182Y-87675050D01*
X231500946Y-87679516D01*
X231551742Y-87727491D01*
X231568536Y-87795312D01*
X231545998Y-87861447D01*
X231500946Y-87900484D01*
X231492182Y-87904949D01*
X231320213Y-88029890D01*
X231169890Y-88180213D01*
X231044951Y-88352179D01*
X230948444Y-88541585D01*
X230948443Y-88541587D01*
X230948443Y-88541588D01*
X230936435Y-88578545D01*
X230882753Y-88743760D01*
X230859740Y-88889061D01*
X230849500Y-88953713D01*
X230849500Y-89166287D01*
X230882754Y-89376243D01*
X230919126Y-89488184D01*
X230921121Y-89558023D01*
X230885041Y-89617856D01*
X230822340Y-89648684D01*
X230801195Y-89650500D01*
X230011802Y-89650500D01*
X229944763Y-89630815D01*
X229899008Y-89578011D01*
X229889064Y-89508853D01*
X229893871Y-89488182D01*
X229917246Y-89416243D01*
X229950500Y-89206287D01*
X229950500Y-88993713D01*
X229917246Y-88783757D01*
X229851557Y-88581588D01*
X229755051Y-88392184D01*
X229755049Y-88392181D01*
X229755048Y-88392179D01*
X229630109Y-88220213D01*
X229479786Y-88069890D01*
X229307817Y-87944949D01*
X229298504Y-87940204D01*
X229247707Y-87892230D01*
X229230912Y-87824409D01*
X229253449Y-87758274D01*
X229298507Y-87719232D01*
X229307555Y-87714622D01*
X229361716Y-87675270D01*
X229361717Y-87675270D01*
X228729408Y-87042962D01*
X228792993Y-87025925D01*
X228907007Y-86960099D01*
X229000099Y-86867007D01*
X229065925Y-86752993D01*
X229082962Y-86689408D01*
X229715270Y-87321717D01*
X229715270Y-87321716D01*
X229754622Y-87267554D01*
X229851095Y-87078217D01*
X229916757Y-86876130D01*
X229916757Y-86876127D01*
X229950000Y-86666246D01*
X229950000Y-86453753D01*
X229916757Y-86243872D01*
X229916757Y-86243869D01*
X229851095Y-86041782D01*
X229754624Y-85852449D01*
X229715270Y-85798282D01*
X229715269Y-85798282D01*
X229082962Y-86430590D01*
X229065925Y-86367007D01*
X229000099Y-86252993D01*
X228907007Y-86159901D01*
X228792993Y-86094075D01*
X228729409Y-86077037D01*
X229361716Y-85444728D01*
X229307550Y-85405375D01*
X229118217Y-85308904D01*
X228916129Y-85243242D01*
X228706246Y-85210000D01*
X228493754Y-85210000D01*
X228283872Y-85243242D01*
X228283869Y-85243242D01*
X228081782Y-85308904D01*
X227892439Y-85405380D01*
X227838282Y-85444727D01*
X227838282Y-85444728D01*
X228470591Y-86077037D01*
X228407007Y-86094075D01*
X228292993Y-86159901D01*
X228199901Y-86252993D01*
X228134075Y-86367007D01*
X228117037Y-86430591D01*
X227484728Y-85798282D01*
X227484727Y-85798282D01*
X227445380Y-85852440D01*
X227445375Y-85852448D01*
X227394914Y-85951483D01*
X227346940Y-86002279D01*
X227279119Y-86019074D01*
X227212984Y-85996536D01*
X227196749Y-85982869D01*
X223620012Y-82406132D01*
X223620010Y-82406130D01*
X223554395Y-82368247D01*
X223488781Y-82330364D01*
X223415595Y-82310754D01*
X223342411Y-82291145D01*
X223342410Y-82291145D01*
X199256387Y-82291145D01*
X199189348Y-82271460D01*
X199168706Y-82254826D01*
X198151819Y-81237939D01*
X198118334Y-81176616D01*
X198115500Y-81150258D01*
X198115500Y-80698456D01*
X198135185Y-80631417D01*
X198183205Y-80587971D01*
X198247816Y-80555051D01*
X198334138Y-80492335D01*
X198419786Y-80430109D01*
X198419788Y-80430106D01*
X198419792Y-80430104D01*
X198570104Y-80279792D01*
X198570106Y-80279788D01*
X198570109Y-80279786D01*
X198695048Y-80107820D01*
X198695047Y-80107820D01*
X198695051Y-80107816D01*
X198699514Y-80099054D01*
X198747488Y-80048259D01*
X198815308Y-80031463D01*
X198881444Y-80053999D01*
X198920484Y-80099054D01*
X198924591Y-80107115D01*
X198924951Y-80107820D01*
X199049890Y-80279786D01*
X199200213Y-80430109D01*
X199372179Y-80555048D01*
X199372181Y-80555049D01*
X199372184Y-80555051D01*
X199561588Y-80651557D01*
X199763757Y-80717246D01*
X199973713Y-80750500D01*
X199973714Y-80750500D01*
X200186286Y-80750500D01*
X200186287Y-80750500D01*
X200396243Y-80717246D01*
X200598412Y-80651557D01*
X200787816Y-80555051D01*
X200874138Y-80492335D01*
X200959786Y-80430109D01*
X200959788Y-80430106D01*
X200959792Y-80430104D01*
X201110104Y-80279792D01*
X201110106Y-80279788D01*
X201110109Y-80279786D01*
X201235048Y-80107821D01*
X201235188Y-80107547D01*
X201239513Y-80099056D01*
X201287484Y-80048260D01*
X201355304Y-80031462D01*
X201421440Y-80053996D01*
X201460484Y-80099052D01*
X201464950Y-80107817D01*
X201589891Y-80279786D01*
X201740214Y-80430109D01*
X201912180Y-80555048D01*
X201912182Y-80555049D01*
X201912185Y-80555051D01*
X202101589Y-80651557D01*
X202303758Y-80717246D01*
X202513714Y-80750500D01*
X202513715Y-80750500D01*
X202726287Y-80750500D01*
X202726288Y-80750500D01*
X202936244Y-80717246D01*
X203138413Y-80651557D01*
X203327817Y-80555051D01*
X203414139Y-80492335D01*
X203499787Y-80430109D01*
X203499789Y-80430106D01*
X203499793Y-80430104D01*
X203650105Y-80279792D01*
X203650107Y-80279788D01*
X203650110Y-80279786D01*
X203775049Y-80107820D01*
X203775048Y-80107820D01*
X203775052Y-80107816D01*
X203779513Y-80099058D01*
X203827484Y-80048262D01*
X203895304Y-80031464D01*
X203961441Y-80053998D01*
X204000484Y-80099054D01*
X204004949Y-80107817D01*
X204129890Y-80279786D01*
X204280213Y-80430109D01*
X204452179Y-80555048D01*
X204452181Y-80555049D01*
X204452184Y-80555051D01*
X204641588Y-80651557D01*
X204843757Y-80717246D01*
X205053713Y-80750500D01*
X205053714Y-80750500D01*
X205266286Y-80750500D01*
X205266287Y-80750500D01*
X205476243Y-80717246D01*
X205678412Y-80651557D01*
X205867816Y-80555051D01*
X205954138Y-80492335D01*
X206039786Y-80430109D01*
X206039788Y-80430106D01*
X206039792Y-80430104D01*
X206190104Y-80279792D01*
X206190106Y-80279788D01*
X206190109Y-80279786D01*
X206315048Y-80107820D01*
X206315047Y-80107820D01*
X206315051Y-80107816D01*
X206319514Y-80099054D01*
X206367488Y-80048259D01*
X206435308Y-80031463D01*
X206501444Y-80053999D01*
X206540484Y-80099054D01*
X206544591Y-80107115D01*
X206544951Y-80107820D01*
X206669890Y-80279786D01*
X206820213Y-80430109D01*
X206992179Y-80555048D01*
X206992181Y-80555049D01*
X206992184Y-80555051D01*
X207181588Y-80651557D01*
X207383757Y-80717246D01*
X207593713Y-80750500D01*
X207593714Y-80750500D01*
X207806286Y-80750500D01*
X207806287Y-80750500D01*
X208016243Y-80717246D01*
X208218412Y-80651557D01*
X208407816Y-80555051D01*
X208494138Y-80492335D01*
X208579786Y-80430109D01*
X208579788Y-80430106D01*
X208579792Y-80430104D01*
X208730104Y-80279792D01*
X208730106Y-80279788D01*
X208730109Y-80279786D01*
X208855048Y-80107820D01*
X208855047Y-80107820D01*
X208855051Y-80107816D01*
X208859514Y-80099054D01*
X208907488Y-80048259D01*
X208975308Y-80031463D01*
X209041444Y-80053999D01*
X209080484Y-80099054D01*
X209084591Y-80107115D01*
X209084951Y-80107820D01*
X209209890Y-80279786D01*
X209360213Y-80430109D01*
X209532179Y-80555048D01*
X209532181Y-80555049D01*
X209532184Y-80555051D01*
X209721588Y-80651557D01*
X209923757Y-80717246D01*
X210133713Y-80750500D01*
X210133714Y-80750500D01*
X210346286Y-80750500D01*
X210346287Y-80750500D01*
X210556243Y-80717246D01*
X210758412Y-80651557D01*
X210947816Y-80555051D01*
X211034138Y-80492335D01*
X211119786Y-80430109D01*
X211119788Y-80430106D01*
X211119792Y-80430104D01*
X211270104Y-80279792D01*
X211270106Y-80279788D01*
X211270109Y-80279786D01*
X211395048Y-80107820D01*
X211395047Y-80107820D01*
X211395051Y-80107816D01*
X211399512Y-80099058D01*
X211447483Y-80048262D01*
X211515303Y-80031464D01*
X211581440Y-80053998D01*
X211620483Y-80099054D01*
X211624948Y-80107817D01*
X211749889Y-80279786D01*
X211900212Y-80430109D01*
X212072178Y-80555048D01*
X212072180Y-80555049D01*
X212072183Y-80555051D01*
X212261587Y-80651557D01*
X212463756Y-80717246D01*
X212673712Y-80750500D01*
X212673713Y-80750500D01*
X212886285Y-80750500D01*
X212886286Y-80750500D01*
X213096242Y-80717246D01*
X213298411Y-80651557D01*
X213487815Y-80555051D01*
X213574137Y-80492335D01*
X213659785Y-80430109D01*
X213659787Y-80430106D01*
X213659791Y-80430104D01*
X213810103Y-80279792D01*
X213810105Y-80279788D01*
X213810108Y-80279786D01*
X213935047Y-80107821D01*
X213935187Y-80107547D01*
X213939512Y-80099056D01*
X213987483Y-80048260D01*
X214055303Y-80031462D01*
X214121439Y-80053996D01*
X214160483Y-80099052D01*
X214164949Y-80107817D01*
X214289890Y-80279786D01*
X214440213Y-80430109D01*
X214612179Y-80555048D01*
X214612181Y-80555049D01*
X214612184Y-80555051D01*
X214801588Y-80651557D01*
X215003757Y-80717246D01*
X215213713Y-80750500D01*
X215213714Y-80750500D01*
X215426286Y-80750500D01*
X215426287Y-80750500D01*
X215636243Y-80717246D01*
X215838412Y-80651557D01*
X216027816Y-80555051D01*
X216114138Y-80492335D01*
X216199786Y-80430109D01*
X216199788Y-80430106D01*
X216199792Y-80430104D01*
X216350104Y-80279792D01*
X216350106Y-80279788D01*
X216350109Y-80279786D01*
X216475048Y-80107820D01*
X216475047Y-80107820D01*
X216475051Y-80107816D01*
X216479514Y-80099054D01*
X216527488Y-80048259D01*
X216595308Y-80031463D01*
X216661444Y-80053999D01*
X216700484Y-80099054D01*
X216704591Y-80107115D01*
X216704951Y-80107820D01*
X216829890Y-80279786D01*
X216980213Y-80430109D01*
X217152179Y-80555048D01*
X217152181Y-80555049D01*
X217152184Y-80555051D01*
X217341588Y-80651557D01*
X217543757Y-80717246D01*
X217753713Y-80750500D01*
X217753714Y-80750500D01*
X217966286Y-80750500D01*
X217966287Y-80750500D01*
X218176243Y-80717246D01*
X218378412Y-80651557D01*
X218567816Y-80555051D01*
X218654138Y-80492335D01*
X218739786Y-80430109D01*
X218739788Y-80430106D01*
X218739792Y-80430104D01*
X218890104Y-80279792D01*
X218890106Y-80279788D01*
X218890109Y-80279786D01*
X219015048Y-80107820D01*
X219015047Y-80107820D01*
X219015051Y-80107816D01*
X219019514Y-80099054D01*
X219067488Y-80048259D01*
X219135308Y-80031463D01*
X219201444Y-80053999D01*
X219240484Y-80099054D01*
X219244591Y-80107115D01*
X219244951Y-80107820D01*
X219369890Y-80279786D01*
X219520213Y-80430109D01*
X219692179Y-80555048D01*
X219692181Y-80555049D01*
X219692184Y-80555051D01*
X219881588Y-80651557D01*
X220083757Y-80717246D01*
X220293713Y-80750500D01*
X220293714Y-80750500D01*
X220506286Y-80750500D01*
X220506287Y-80750500D01*
X220716243Y-80717246D01*
X220918412Y-80651557D01*
X221107816Y-80555051D01*
X221194138Y-80492335D01*
X221279786Y-80430109D01*
X221279788Y-80430106D01*
X221279792Y-80430104D01*
X221430104Y-80279792D01*
X221430106Y-80279788D01*
X221430109Y-80279786D01*
X221515890Y-80161717D01*
X221555051Y-80107816D01*
X221559793Y-80098508D01*
X221607763Y-80047711D01*
X221675583Y-80030911D01*
X221741719Y-80053445D01*
X221780763Y-80098500D01*
X221785373Y-80107547D01*
X221824728Y-80161716D01*
X222457037Y-79529408D01*
X222474075Y-79592993D01*
X222539901Y-79707007D01*
X222632993Y-79800099D01*
X222747007Y-79865925D01*
X222810590Y-79882962D01*
X222178282Y-80515269D01*
X222178282Y-80515270D01*
X222232449Y-80554624D01*
X222421782Y-80651095D01*
X222623870Y-80716757D01*
X222833754Y-80750000D01*
X223046246Y-80750000D01*
X223256127Y-80716757D01*
X223256130Y-80716757D01*
X223458217Y-80651095D01*
X223647554Y-80554622D01*
X223701716Y-80515270D01*
X223701717Y-80515270D01*
X223069408Y-79882962D01*
X223132993Y-79865925D01*
X223247007Y-79800099D01*
X223340099Y-79707007D01*
X223405925Y-79592993D01*
X223422962Y-79529408D01*
X224055270Y-80161717D01*
X224055270Y-80161716D01*
X224094623Y-80107553D01*
X224099231Y-80098509D01*
X224147202Y-80047710D01*
X224215022Y-80030910D01*
X224281158Y-80053444D01*
X224320202Y-80098499D01*
X224324950Y-80107817D01*
X224449891Y-80279786D01*
X224600214Y-80430109D01*
X224772180Y-80555048D01*
X224772182Y-80555049D01*
X224772185Y-80555051D01*
X224961589Y-80651557D01*
X225163758Y-80717246D01*
X225373714Y-80750500D01*
X225373715Y-80750500D01*
X225586287Y-80750500D01*
X225586288Y-80750500D01*
X225796244Y-80717246D01*
X225998413Y-80651557D01*
X226187817Y-80555051D01*
X226274139Y-80492335D01*
X226359787Y-80430109D01*
X226359789Y-80430106D01*
X226359793Y-80430104D01*
X226510105Y-80279792D01*
X226510107Y-80279788D01*
X226510110Y-80279786D01*
X226635049Y-80107820D01*
X226635048Y-80107820D01*
X226635052Y-80107816D01*
X226639513Y-80099058D01*
X226687484Y-80048262D01*
X226755304Y-80031464D01*
X226821441Y-80053998D01*
X226860484Y-80099054D01*
X226864949Y-80107817D01*
X226989890Y-80279786D01*
X227140213Y-80430109D01*
X227312179Y-80555048D01*
X227312181Y-80555049D01*
X227312184Y-80555051D01*
X227501588Y-80651557D01*
X227703757Y-80717246D01*
X227913713Y-80750500D01*
X227913714Y-80750500D01*
X228126286Y-80750500D01*
X228126287Y-80750500D01*
X228336243Y-80717246D01*
X228538412Y-80651557D01*
X228727816Y-80555051D01*
X228899792Y-80430104D01*
X229013329Y-80316566D01*
X229074648Y-80283084D01*
X229144340Y-80288068D01*
X229200274Y-80329939D01*
X229217189Y-80360917D01*
X229266202Y-80492328D01*
X229266206Y-80492335D01*
X229352452Y-80607544D01*
X229352455Y-80607547D01*
X229467664Y-80693793D01*
X229467671Y-80693797D01*
X229602517Y-80744091D01*
X229602516Y-80744091D01*
X229609444Y-80744835D01*
X229662127Y-80750500D01*
X231457872Y-80750499D01*
X231517483Y-80744091D01*
X231652331Y-80693796D01*
X231767546Y-80607546D01*
X231853796Y-80492331D01*
X231904091Y-80357483D01*
X231910500Y-80297873D01*
X231910499Y-78502128D01*
X231904091Y-78442517D01*
X231902810Y-78439083D01*
X231853797Y-78307671D01*
X231853793Y-78307664D01*
X231772305Y-78198811D01*
X231747887Y-78133347D01*
X231762738Y-78065074D01*
X231812143Y-78015668D01*
X231871571Y-78000500D01*
X233594470Y-78000500D01*
X233596680Y-78000520D01*
G37*
%TD.AperFunction*%
%TA.AperFunction,Conductor*%
G36*
X195333335Y-82593467D02*
G01*
X195359666Y-82613546D01*
X196499485Y-83753365D01*
X196606635Y-83860515D01*
X196737865Y-83936281D01*
X196884234Y-83975500D01*
X198657557Y-83975500D01*
X198724596Y-83995185D01*
X198770351Y-84047989D01*
X198780295Y-84117147D01*
X198762375Y-84163909D01*
X198762788Y-84164130D01*
X198761031Y-84167415D01*
X198760657Y-84168394D01*
X198759917Y-84169500D01*
X198759911Y-84169511D01*
X198703342Y-84306082D01*
X198703339Y-84306092D01*
X198674499Y-84451079D01*
X198674499Y-84451082D01*
X198674499Y-84598918D01*
X198674499Y-84598920D01*
X198674498Y-84598920D01*
X198703339Y-84743907D01*
X198703342Y-84743917D01*
X198759911Y-84880488D01*
X198759918Y-84880501D01*
X198842047Y-85003415D01*
X198842050Y-85003419D01*
X198946579Y-85107948D01*
X198946583Y-85107951D01*
X199069497Y-85190080D01*
X199069510Y-85190087D01*
X199197839Y-85243242D01*
X199206086Y-85246658D01*
X199206090Y-85246658D01*
X199206091Y-85246659D01*
X199351078Y-85275500D01*
X199351081Y-85275500D01*
X199498919Y-85275500D01*
X199596461Y-85256096D01*
X199643912Y-85246658D01*
X199767337Y-85195533D01*
X199836803Y-85188065D01*
X199899282Y-85219340D01*
X199902468Y-85222414D01*
X202847397Y-88167342D01*
X202875150Y-88213642D01*
X202876011Y-88213286D01*
X202934912Y-88355488D01*
X202934919Y-88355501D01*
X203017048Y-88478415D01*
X203017051Y-88478419D01*
X203121580Y-88582948D01*
X203121584Y-88582951D01*
X203244498Y-88665080D01*
X203244511Y-88665087D01*
X203329420Y-88700257D01*
X203381087Y-88721658D01*
X203381091Y-88721658D01*
X203381092Y-88721659D01*
X203526079Y-88750500D01*
X203526082Y-88750500D01*
X203673920Y-88750500D01*
X203771462Y-88731096D01*
X203818913Y-88721658D01*
X203852547Y-88707725D01*
X203922016Y-88700257D01*
X203947452Y-88707725D01*
X203981087Y-88721658D01*
X203981091Y-88721658D01*
X203981092Y-88721659D01*
X204126079Y-88750500D01*
X204126082Y-88750500D01*
X204273920Y-88750500D01*
X204371462Y-88731096D01*
X204418913Y-88721658D01*
X204555495Y-88665084D01*
X204555496Y-88665083D01*
X204561122Y-88662753D01*
X204561479Y-88663614D01*
X204569401Y-88661630D01*
X204578905Y-88655523D01*
X204613840Y-88650500D01*
X204807756Y-88650500D01*
X204874795Y-88670185D01*
X204920550Y-88722989D01*
X204930494Y-88792147D01*
X204901469Y-88855703D01*
X204855209Y-88889061D01*
X204744507Y-88934914D01*
X204744498Y-88934919D01*
X204621584Y-89017048D01*
X204621580Y-89017051D01*
X204517051Y-89121580D01*
X204517048Y-89121584D01*
X204434919Y-89244498D01*
X204434912Y-89244511D01*
X204378343Y-89381082D01*
X204378340Y-89381092D01*
X204349500Y-89526079D01*
X204349500Y-89526082D01*
X204349500Y-89673918D01*
X204349500Y-89673920D01*
X204349499Y-89673920D01*
X204374840Y-89801308D01*
X204368613Y-89870900D01*
X204325751Y-89926077D01*
X204259861Y-89949322D01*
X204253223Y-89949500D01*
X203830926Y-89949500D01*
X203705258Y-89974497D01*
X203705252Y-89974499D01*
X203586867Y-90023535D01*
X203480328Y-90094722D01*
X203480321Y-90094728D01*
X202572652Y-91002397D01*
X202526355Y-91030148D01*
X202526712Y-91031010D01*
X202384505Y-91089913D01*
X202384496Y-91089918D01*
X202261582Y-91172047D01*
X202261578Y-91172050D01*
X202157049Y-91276579D01*
X202157046Y-91276583D01*
X202074917Y-91399497D01*
X202074910Y-91399510D01*
X202018341Y-91536081D01*
X202018338Y-91536091D01*
X202004494Y-91605691D01*
X201972109Y-91667602D01*
X201911393Y-91702176D01*
X201882877Y-91705499D01*
X200995742Y-91705499D01*
X200966301Y-91696854D01*
X200936315Y-91690331D01*
X200931299Y-91686576D01*
X200928703Y-91685814D01*
X200908061Y-91669180D01*
X200853549Y-91614668D01*
X200779712Y-91540831D01*
X200746229Y-91479510D01*
X200745778Y-91477343D01*
X200730296Y-91399510D01*
X200721658Y-91356085D01*
X200721656Y-91356080D01*
X200665087Y-91219509D01*
X200665080Y-91219496D01*
X200582951Y-91096582D01*
X200582948Y-91096578D01*
X200478419Y-90992049D01*
X200478415Y-90992046D01*
X200355501Y-90909917D01*
X200355488Y-90909910D01*
X200218917Y-90853341D01*
X200218907Y-90853338D01*
X200073920Y-90824498D01*
X200073918Y-90824498D01*
X199926082Y-90824498D01*
X199926080Y-90824498D01*
X199781092Y-90853338D01*
X199781082Y-90853341D01*
X199644511Y-90909910D01*
X199644498Y-90909917D01*
X199521584Y-90992046D01*
X199521580Y-90992049D01*
X199417051Y-91096578D01*
X199417048Y-91096582D01*
X199334919Y-91219496D01*
X199334912Y-91219509D01*
X199278343Y-91356080D01*
X199278340Y-91356090D01*
X199249500Y-91501077D01*
X199249500Y-91501080D01*
X199249500Y-91648916D01*
X199249500Y-91648918D01*
X199249499Y-91648918D01*
X199278340Y-91793905D01*
X199278343Y-91793915D01*
X199334912Y-91930486D01*
X199334919Y-91930499D01*
X199417048Y-92053413D01*
X199417051Y-92053417D01*
X199521580Y-92157946D01*
X199521584Y-92157949D01*
X199644498Y-92240078D01*
X199644511Y-92240085D01*
X199753625Y-92285281D01*
X199781087Y-92296656D01*
X199902345Y-92320776D01*
X199964256Y-92353161D01*
X199965783Y-92354661D01*
X200105030Y-92493907D01*
X200241145Y-92630022D01*
X200241155Y-92630033D01*
X200245485Y-92634363D01*
X200245486Y-92634364D01*
X200352636Y-92741514D01*
X200483866Y-92817280D01*
X200630234Y-92856499D01*
X200630235Y-92856499D01*
X200630236Y-92856499D01*
X203033639Y-92856499D01*
X203033641Y-92856499D01*
X203180010Y-92817280D01*
X203311240Y-92741514D01*
X203691934Y-92360818D01*
X203753257Y-92327334D01*
X203779615Y-92324500D01*
X206742879Y-92324500D01*
X206809918Y-92344185D01*
X206855673Y-92396989D01*
X206864496Y-92424308D01*
X206878340Y-92493907D01*
X206878343Y-92493917D01*
X206934912Y-92630488D01*
X206934919Y-92630501D01*
X207017048Y-92753415D01*
X207017051Y-92753419D01*
X207121580Y-92857948D01*
X207121584Y-92857951D01*
X207244498Y-92940080D01*
X207244511Y-92940087D01*
X207366215Y-92990498D01*
X207381087Y-92996658D01*
X207381091Y-92996658D01*
X207381092Y-92996659D01*
X207526079Y-93025500D01*
X207526082Y-93025500D01*
X207673920Y-93025500D01*
X207771462Y-93006096D01*
X207818913Y-92996658D01*
X207924547Y-92952902D01*
X207955488Y-92940087D01*
X207955488Y-92940086D01*
X207955495Y-92940084D01*
X208078416Y-92857951D01*
X208182951Y-92753416D01*
X208265084Y-92630495D01*
X208321658Y-92493913D01*
X208335504Y-92424308D01*
X208367889Y-92362397D01*
X208428605Y-92327823D01*
X208457121Y-92324500D01*
X218526764Y-92324500D01*
X218526766Y-92324500D01*
X218673135Y-92285281D01*
X218804365Y-92209515D01*
X220234167Y-90779712D01*
X220295488Y-90746229D01*
X220297622Y-90745784D01*
X220418913Y-90721658D01*
X220555495Y-90665084D01*
X220678416Y-90582951D01*
X220751821Y-90509545D01*
X220764983Y-90502358D01*
X220775085Y-90491272D01*
X220795027Y-90485953D01*
X220813142Y-90476062D01*
X220829210Y-90476836D01*
X220842595Y-90473267D01*
X220868344Y-90478723D01*
X220877394Y-90479160D01*
X220882250Y-90480718D01*
X220981087Y-90521658D01*
X221056640Y-90536686D01*
X221063393Y-90538854D01*
X221086671Y-90554648D01*
X221111603Y-90567690D01*
X221115198Y-90574004D01*
X221121210Y-90578083D01*
X221132253Y-90603955D01*
X221146177Y-90628406D01*
X221147486Y-90639639D01*
X221148640Y-90642343D01*
X221148143Y-90645277D01*
X221149500Y-90656922D01*
X221149500Y-95864070D01*
X221161720Y-95925500D01*
X221161720Y-95925502D01*
X221174497Y-95989736D01*
X221174499Y-95989744D01*
X221223534Y-96108125D01*
X221294726Y-96214673D01*
X221294727Y-96214674D01*
X221649868Y-96569813D01*
X221665813Y-96599014D01*
X221682578Y-96627795D01*
X221682500Y-96629574D01*
X221683353Y-96631136D01*
X221680978Y-96664333D01*
X221679523Y-96697598D01*
X221678452Y-96699660D01*
X221678369Y-96700827D01*
X221663471Y-96729030D01*
X221662930Y-96729794D01*
X221544949Y-96892184D01*
X221536436Y-96908891D01*
X221531284Y-96916186D01*
X221510619Y-96932566D01*
X221492509Y-96951742D01*
X221483667Y-96953931D01*
X221476530Y-96959589D01*
X221450286Y-96962197D01*
X221424688Y-96968536D01*
X221416067Y-96965598D01*
X221407003Y-96966499D01*
X221383515Y-96954504D01*
X221358553Y-96945998D01*
X221351962Y-96938392D01*
X221344777Y-96934723D01*
X221336559Y-96920615D01*
X221319516Y-96900946D01*
X221315050Y-96892182D01*
X221190109Y-96720213D01*
X221039786Y-96569890D01*
X220867820Y-96444951D01*
X220678414Y-96348444D01*
X220678413Y-96348443D01*
X220678412Y-96348443D01*
X220476243Y-96282754D01*
X220476241Y-96282753D01*
X220476240Y-96282753D01*
X220314957Y-96257208D01*
X220266287Y-96249500D01*
X220053713Y-96249500D01*
X220005042Y-96257208D01*
X219843760Y-96282753D01*
X219641585Y-96348444D01*
X219452179Y-96444951D01*
X219280213Y-96569890D01*
X219129890Y-96720213D01*
X219004949Y-96892182D01*
X219000484Y-96900946D01*
X218952509Y-96951742D01*
X218884688Y-96968536D01*
X218818553Y-96945998D01*
X218779516Y-96900946D01*
X218775050Y-96892182D01*
X218650109Y-96720213D01*
X218499786Y-96569890D01*
X218327820Y-96444951D01*
X218138414Y-96348444D01*
X218138413Y-96348443D01*
X218138412Y-96348443D01*
X217936243Y-96282754D01*
X217936241Y-96282753D01*
X217936240Y-96282753D01*
X217774957Y-96257208D01*
X217726287Y-96249500D01*
X217513713Y-96249500D01*
X217465042Y-96257208D01*
X217303760Y-96282753D01*
X217101585Y-96348444D01*
X216912179Y-96444951D01*
X216740213Y-96569890D01*
X216589890Y-96720213D01*
X216464949Y-96892182D01*
X216460484Y-96900946D01*
X216412509Y-96951742D01*
X216344688Y-96968536D01*
X216278553Y-96945998D01*
X216239516Y-96900946D01*
X216235050Y-96892182D01*
X216110109Y-96720213D01*
X215959786Y-96569890D01*
X215787820Y-96444951D01*
X215598414Y-96348444D01*
X215598413Y-96348443D01*
X215598412Y-96348443D01*
X215396243Y-96282754D01*
X215396241Y-96282753D01*
X215396240Y-96282753D01*
X215234957Y-96257208D01*
X215186287Y-96249500D01*
X214973713Y-96249500D01*
X214925042Y-96257208D01*
X214763760Y-96282753D01*
X214561585Y-96348444D01*
X214372179Y-96444951D01*
X214200213Y-96569890D01*
X214049890Y-96720213D01*
X213924948Y-96892184D01*
X213924946Y-96892187D01*
X213920481Y-96900950D01*
X213872505Y-96951744D01*
X213804683Y-96968537D01*
X213738549Y-96945997D01*
X213699513Y-96900944D01*
X213695180Y-96892440D01*
X213695050Y-96892184D01*
X213695048Y-96892181D01*
X213695047Y-96892179D01*
X213570108Y-96720213D01*
X213419785Y-96569890D01*
X213247819Y-96444951D01*
X213058413Y-96348444D01*
X213058412Y-96348443D01*
X213058411Y-96348443D01*
X212856242Y-96282754D01*
X212856240Y-96282753D01*
X212856239Y-96282753D01*
X212694956Y-96257208D01*
X212646286Y-96249500D01*
X212433712Y-96249500D01*
X212385041Y-96257208D01*
X212223759Y-96282753D01*
X212021584Y-96348444D01*
X211832178Y-96444951D01*
X211660212Y-96569890D01*
X211509889Y-96720213D01*
X211384947Y-96892183D01*
X211380481Y-96900949D01*
X211332505Y-96951742D01*
X211264683Y-96968535D01*
X211198549Y-96945995D01*
X211159513Y-96900942D01*
X211155181Y-96892440D01*
X211155051Y-96892184D01*
X211155049Y-96892181D01*
X211155048Y-96892179D01*
X211030109Y-96720213D01*
X210879786Y-96569890D01*
X210707820Y-96444951D01*
X210518414Y-96348444D01*
X210518413Y-96348443D01*
X210518412Y-96348443D01*
X210316243Y-96282754D01*
X210316241Y-96282753D01*
X210316240Y-96282753D01*
X210154957Y-96257208D01*
X210106287Y-96249500D01*
X209893713Y-96249500D01*
X209845042Y-96257208D01*
X209683760Y-96282753D01*
X209481585Y-96348444D01*
X209292179Y-96444951D01*
X209120213Y-96569890D01*
X208969890Y-96720213D01*
X208844949Y-96892182D01*
X208840484Y-96900946D01*
X208792509Y-96951742D01*
X208724688Y-96968536D01*
X208658553Y-96945998D01*
X208619516Y-96900946D01*
X208615050Y-96892182D01*
X208490109Y-96720213D01*
X208339786Y-96569890D01*
X208167820Y-96444951D01*
X207978414Y-96348444D01*
X207978413Y-96348443D01*
X207978412Y-96348443D01*
X207776243Y-96282754D01*
X207776241Y-96282753D01*
X207776240Y-96282753D01*
X207614957Y-96257208D01*
X207566287Y-96249500D01*
X207353713Y-96249500D01*
X207305042Y-96257208D01*
X207143760Y-96282753D01*
X206941585Y-96348444D01*
X206752179Y-96444951D01*
X206580213Y-96569890D01*
X206429890Y-96720213D01*
X206304949Y-96892182D01*
X206300484Y-96900946D01*
X206252509Y-96951742D01*
X206184688Y-96968536D01*
X206118553Y-96945998D01*
X206079516Y-96900946D01*
X206075050Y-96892182D01*
X205950109Y-96720213D01*
X205799786Y-96569890D01*
X205627820Y-96444951D01*
X205438414Y-96348444D01*
X205438413Y-96348443D01*
X205438412Y-96348443D01*
X205236243Y-96282754D01*
X205236241Y-96282753D01*
X205236240Y-96282753D01*
X205074957Y-96257208D01*
X205026287Y-96249500D01*
X204813713Y-96249500D01*
X204765042Y-96257208D01*
X204603760Y-96282753D01*
X204401585Y-96348444D01*
X204212179Y-96444951D01*
X204040213Y-96569890D01*
X203889890Y-96720213D01*
X203764948Y-96892183D01*
X203760482Y-96900949D01*
X203712506Y-96951742D01*
X203644684Y-96968535D01*
X203578550Y-96945995D01*
X203539514Y-96900942D01*
X203535182Y-96892440D01*
X203535052Y-96892184D01*
X203535050Y-96892181D01*
X203535049Y-96892179D01*
X203410110Y-96720213D01*
X203259787Y-96569890D01*
X203087821Y-96444951D01*
X202898415Y-96348444D01*
X202898414Y-96348443D01*
X202898413Y-96348443D01*
X202696244Y-96282754D01*
X202696242Y-96282753D01*
X202696241Y-96282753D01*
X202534958Y-96257208D01*
X202486288Y-96249500D01*
X202273714Y-96249500D01*
X202225043Y-96257208D01*
X202063761Y-96282753D01*
X201861586Y-96348444D01*
X201672180Y-96444951D01*
X201500214Y-96569890D01*
X201349891Y-96720213D01*
X201224949Y-96892184D01*
X201224947Y-96892187D01*
X201220482Y-96900950D01*
X201172506Y-96951744D01*
X201104684Y-96968537D01*
X201038550Y-96945997D01*
X200999514Y-96900944D01*
X200995181Y-96892440D01*
X200995051Y-96892184D01*
X200995049Y-96892181D01*
X200995048Y-96892179D01*
X200870109Y-96720213D01*
X200719786Y-96569890D01*
X200547820Y-96444951D01*
X200358414Y-96348444D01*
X200358413Y-96348443D01*
X200358412Y-96348443D01*
X200156243Y-96282754D01*
X200156241Y-96282753D01*
X200156240Y-96282753D01*
X199994957Y-96257208D01*
X199946287Y-96249500D01*
X199733713Y-96249500D01*
X199685042Y-96257208D01*
X199523760Y-96282753D01*
X199321585Y-96348444D01*
X199132179Y-96444951D01*
X198960213Y-96569890D01*
X198809890Y-96720213D01*
X198684949Y-96892182D01*
X198680484Y-96900946D01*
X198632509Y-96951742D01*
X198564688Y-96968536D01*
X198498553Y-96945998D01*
X198459516Y-96900946D01*
X198455050Y-96892182D01*
X198330109Y-96720213D01*
X198179786Y-96569890D01*
X198007817Y-96444949D01*
X197891264Y-96385563D01*
X197844455Y-96343967D01*
X197819223Y-96306204D01*
X197805277Y-96285331D01*
X197805276Y-96285330D01*
X197805272Y-96285325D01*
X196586819Y-95066872D01*
X196553334Y-95005549D01*
X196550500Y-94979191D01*
X196550500Y-94431669D01*
X215549712Y-94431669D01*
X215578553Y-94576656D01*
X215578556Y-94576666D01*
X215635125Y-94713237D01*
X215635132Y-94713250D01*
X215717261Y-94836164D01*
X215717264Y-94836168D01*
X215821793Y-94940697D01*
X215821797Y-94940700D01*
X215944711Y-95022829D01*
X215944724Y-95022836D01*
X216081295Y-95079405D01*
X216081300Y-95079407D01*
X216081304Y-95079407D01*
X216081305Y-95079408D01*
X216226292Y-95108249D01*
X216226295Y-95108249D01*
X216374133Y-95108249D01*
X216471675Y-95088845D01*
X216519126Y-95079407D01*
X216581830Y-95053433D01*
X216651298Y-95045965D01*
X216676734Y-95053433D01*
X216781087Y-95096658D01*
X216781091Y-95096658D01*
X216781092Y-95096659D01*
X216926079Y-95125500D01*
X216926082Y-95125500D01*
X217073920Y-95125500D01*
X217171462Y-95106096D01*
X217218913Y-95096658D01*
X217355495Y-95040084D01*
X217478416Y-94957951D01*
X217582951Y-94853416D01*
X217665084Y-94730495D01*
X217672233Y-94713237D01*
X217721656Y-94593917D01*
X217721658Y-94593913D01*
X217750500Y-94448918D01*
X217750500Y-94301082D01*
X217750500Y-94301079D01*
X217721659Y-94156092D01*
X217721658Y-94156091D01*
X217721658Y-94156087D01*
X217721656Y-94156082D01*
X217665087Y-94019511D01*
X217665080Y-94019498D01*
X217582951Y-93896584D01*
X217582948Y-93896580D01*
X217478419Y-93792051D01*
X217478415Y-93792048D01*
X217355501Y-93709919D01*
X217355488Y-93709912D01*
X217218917Y-93653343D01*
X217218907Y-93653340D01*
X217073920Y-93624500D01*
X217073918Y-93624500D01*
X216926082Y-93624500D01*
X216926080Y-93624500D01*
X216781093Y-93653340D01*
X216781086Y-93653342D01*
X216718379Y-93679315D01*
X216648910Y-93686782D01*
X216623477Y-93679314D01*
X216519130Y-93636092D01*
X216519120Y-93636089D01*
X216374133Y-93607249D01*
X216374131Y-93607249D01*
X216226295Y-93607249D01*
X216226293Y-93607249D01*
X216081305Y-93636089D01*
X216081295Y-93636092D01*
X215944724Y-93692661D01*
X215944711Y-93692668D01*
X215821797Y-93774797D01*
X215821793Y-93774800D01*
X215717264Y-93879329D01*
X215717261Y-93879333D01*
X215635132Y-94002247D01*
X215635125Y-94002260D01*
X215578556Y-94138831D01*
X215578553Y-94138841D01*
X215549713Y-94283828D01*
X215549713Y-94283831D01*
X215549713Y-94431667D01*
X215549713Y-94431669D01*
X215549712Y-94431669D01*
X196550500Y-94431669D01*
X196550500Y-93693768D01*
X212830495Y-93693768D01*
X212859336Y-93838755D01*
X212859339Y-93838765D01*
X212915908Y-93975336D01*
X212915915Y-93975349D01*
X212998044Y-94098263D01*
X212998047Y-94098267D01*
X213102576Y-94202796D01*
X213102580Y-94202799D01*
X213225494Y-94284928D01*
X213225507Y-94284935D01*
X213362078Y-94341504D01*
X213362083Y-94341506D01*
X213362087Y-94341506D01*
X213362088Y-94341507D01*
X213507075Y-94370348D01*
X213507078Y-94370348D01*
X213654916Y-94370348D01*
X213752458Y-94350944D01*
X213799909Y-94341506D01*
X213936491Y-94284932D01*
X214059412Y-94202799D01*
X214059415Y-94202796D01*
X214072154Y-94190058D01*
X214163944Y-94098267D01*
X214163947Y-94098264D01*
X214246080Y-93975343D01*
X214302654Y-93838761D01*
X214328283Y-93709919D01*
X214331496Y-93693768D01*
X214331496Y-93545927D01*
X214302655Y-93400940D01*
X214302654Y-93400939D01*
X214302654Y-93400935D01*
X214302652Y-93400930D01*
X214246083Y-93264359D01*
X214246076Y-93264346D01*
X214163947Y-93141432D01*
X214163944Y-93141428D01*
X214059415Y-93036899D01*
X214059411Y-93036896D01*
X213936497Y-92954767D01*
X213936484Y-92954760D01*
X213799913Y-92898191D01*
X213799903Y-92898188D01*
X213654916Y-92869348D01*
X213654914Y-92869348D01*
X213507078Y-92869348D01*
X213507076Y-92869348D01*
X213362088Y-92898188D01*
X213362078Y-92898191D01*
X213225507Y-92954760D01*
X213225494Y-92954767D01*
X213102580Y-93036896D01*
X213102576Y-93036899D01*
X212998047Y-93141428D01*
X212998044Y-93141432D01*
X212915915Y-93264346D01*
X212915908Y-93264359D01*
X212859339Y-93400930D01*
X212859336Y-93400940D01*
X212830496Y-93545927D01*
X212830496Y-93545930D01*
X212830496Y-93693766D01*
X212830496Y-93693768D01*
X212830495Y-93693768D01*
X196550500Y-93693768D01*
X196550500Y-88273920D01*
X197849499Y-88273920D01*
X197878340Y-88418907D01*
X197878343Y-88418917D01*
X197933694Y-88552548D01*
X197941163Y-88622018D01*
X197933694Y-88647452D01*
X197878343Y-88781082D01*
X197878340Y-88781092D01*
X197849500Y-88926079D01*
X197849500Y-89073918D01*
X197878340Y-89218907D01*
X197878343Y-89218917D01*
X197934912Y-89355488D01*
X197934919Y-89355501D01*
X198017048Y-89478415D01*
X198017051Y-89478419D01*
X198121580Y-89582948D01*
X198121584Y-89582951D01*
X198244498Y-89665080D01*
X198244511Y-89665087D01*
X198381082Y-89721656D01*
X198381087Y-89721658D01*
X198381091Y-89721658D01*
X198381092Y-89721659D01*
X198526079Y-89750500D01*
X198526082Y-89750500D01*
X198673920Y-89750500D01*
X198771462Y-89731096D01*
X198818913Y-89721658D01*
X198955495Y-89665084D01*
X199078416Y-89582951D01*
X199182951Y-89478416D01*
X199265084Y-89355495D01*
X199265459Y-89354591D01*
X199297042Y-89278342D01*
X199321658Y-89218913D01*
X199350500Y-89073918D01*
X199350500Y-88926082D01*
X199350500Y-88926079D01*
X199321659Y-88781092D01*
X199321658Y-88781091D01*
X199321658Y-88781087D01*
X199266304Y-88647452D01*
X199258836Y-88577983D01*
X199266305Y-88552547D01*
X199273610Y-88534912D01*
X199321658Y-88418913D01*
X199336743Y-88343077D01*
X199350500Y-88273920D01*
X199350500Y-88126079D01*
X199321659Y-87981092D01*
X199321658Y-87981091D01*
X199321658Y-87981087D01*
X199311060Y-87955501D01*
X199265087Y-87844511D01*
X199265080Y-87844498D01*
X199182951Y-87721584D01*
X199182948Y-87721580D01*
X199078419Y-87617051D01*
X199078415Y-87617048D01*
X198955501Y-87534919D01*
X198955488Y-87534912D01*
X198818917Y-87478343D01*
X198818907Y-87478340D01*
X198673920Y-87449500D01*
X198673918Y-87449500D01*
X198526082Y-87449500D01*
X198526080Y-87449500D01*
X198381092Y-87478340D01*
X198381082Y-87478343D01*
X198244511Y-87534912D01*
X198244498Y-87534919D01*
X198121584Y-87617048D01*
X198121580Y-87617051D01*
X198017051Y-87721580D01*
X198017048Y-87721584D01*
X197934919Y-87844498D01*
X197934912Y-87844511D01*
X197878343Y-87981082D01*
X197878340Y-87981092D01*
X197849500Y-88126079D01*
X197849500Y-88126082D01*
X197849500Y-88273918D01*
X197849500Y-88273920D01*
X197849499Y-88273920D01*
X196550500Y-88273920D01*
X196550500Y-84635928D01*
X196525502Y-84510261D01*
X196525501Y-84510260D01*
X196525501Y-84510256D01*
X196476465Y-84391873D01*
X196476463Y-84391870D01*
X196458565Y-84365083D01*
X196458564Y-84365083D01*
X196405276Y-84285330D01*
X196405274Y-84285328D01*
X196405272Y-84285325D01*
X196405271Y-84285324D01*
X195171378Y-83051432D01*
X195137893Y-82990109D01*
X195137442Y-82939560D01*
X195150500Y-82873918D01*
X195150500Y-82726082D01*
X195150370Y-82725428D01*
X195150401Y-82725077D01*
X195149903Y-82720017D01*
X195150862Y-82719922D01*
X195156591Y-82655837D01*
X195199449Y-82600656D01*
X195265337Y-82577405D01*
X195333335Y-82593467D01*
G37*
%TD.AperFunction*%
%TA.AperFunction,Conductor*%
G36*
X218993357Y-86452302D02*
G01*
X218999414Y-86451210D01*
X219033612Y-86459939D01*
X219042012Y-86463418D01*
X219044505Y-86465084D01*
X219181087Y-86521658D01*
X219184030Y-86522243D01*
X219192426Y-86525721D01*
X219232655Y-86552601D01*
X220513181Y-87833127D01*
X220546666Y-87894450D01*
X220549500Y-87920808D01*
X220549500Y-88786160D01*
X220536385Y-88838520D01*
X220537247Y-88838878D01*
X220478342Y-88981086D01*
X220478340Y-88981092D01*
X220449500Y-89126079D01*
X220449500Y-89133330D01*
X220429815Y-89200369D01*
X220377011Y-89246124D01*
X220307853Y-89256068D01*
X220301311Y-89254948D01*
X220273919Y-89249500D01*
X220273918Y-89249500D01*
X220126082Y-89249500D01*
X220126080Y-89249500D01*
X219981092Y-89278340D01*
X219981082Y-89278343D01*
X219844511Y-89334912D01*
X219844498Y-89334919D01*
X219721584Y-89417048D01*
X219721580Y-89417051D01*
X219617051Y-89521580D01*
X219617048Y-89521584D01*
X219534919Y-89644498D01*
X219534912Y-89644511D01*
X219478343Y-89781082D01*
X219478340Y-89781092D01*
X219454221Y-89902345D01*
X219421836Y-89964256D01*
X219420285Y-89965834D01*
X218248939Y-91137181D01*
X218187616Y-91170666D01*
X218161258Y-91173500D01*
X207061751Y-91173500D01*
X206994712Y-91153815D01*
X206948957Y-91101011D01*
X206940134Y-91073692D01*
X206913403Y-90939311D01*
X206913402Y-90939310D01*
X206913402Y-90939306D01*
X206901229Y-90909917D01*
X206856831Y-90802730D01*
X206856824Y-90802717D01*
X206774695Y-90679803D01*
X206774692Y-90679799D01*
X206670163Y-90575270D01*
X206670159Y-90575267D01*
X206547242Y-90493136D01*
X206546824Y-90492913D01*
X206546645Y-90492737D01*
X206544824Y-90491521D01*
X206543910Y-90491305D01*
X206542836Y-90490192D01*
X206542174Y-90489750D01*
X206542270Y-90489605D01*
X206520751Y-90467305D01*
X206496977Y-90443954D01*
X206496211Y-90441873D01*
X206495394Y-90441026D01*
X206483653Y-90407742D01*
X206468138Y-90329742D01*
X206474365Y-90260150D01*
X206502072Y-90217873D01*
X206656025Y-90063920D01*
X214297038Y-90063920D01*
X214325879Y-90208907D01*
X214325882Y-90208917D01*
X214382451Y-90345488D01*
X214382458Y-90345501D01*
X214464587Y-90468415D01*
X214464590Y-90468419D01*
X214569119Y-90572948D01*
X214569123Y-90572951D01*
X214692037Y-90655080D01*
X214692050Y-90655087D01*
X214787748Y-90694726D01*
X214828626Y-90711658D01*
X214828630Y-90711658D01*
X214828631Y-90711659D01*
X214973618Y-90740500D01*
X214973621Y-90740500D01*
X215121459Y-90740500D01*
X215219001Y-90721096D01*
X215266452Y-90711658D01*
X215378892Y-90665084D01*
X215403027Y-90655087D01*
X215403027Y-90655086D01*
X215403034Y-90655084D01*
X215525955Y-90572951D01*
X215630490Y-90468416D01*
X215712623Y-90345495D01*
X215724243Y-90317443D01*
X215749200Y-90257189D01*
X215769197Y-90208913D01*
X215780945Y-90149853D01*
X215798039Y-90063920D01*
X215798039Y-89916079D01*
X215769198Y-89771092D01*
X215769197Y-89771091D01*
X215769197Y-89771087D01*
X215760670Y-89750500D01*
X215712626Y-89634511D01*
X215712619Y-89634498D01*
X215667471Y-89566929D01*
X215646593Y-89500251D01*
X215665078Y-89432871D01*
X215701682Y-89394936D01*
X215723417Y-89380414D01*
X215827952Y-89275879D01*
X215910085Y-89152958D01*
X215966659Y-89016376D01*
X215991984Y-88889061D01*
X215995501Y-88871383D01*
X215995501Y-88723542D01*
X215966660Y-88578555D01*
X215966659Y-88578554D01*
X215966659Y-88578550D01*
X215951348Y-88541585D01*
X215910088Y-88441974D01*
X215910081Y-88441961D01*
X215827952Y-88319047D01*
X215827949Y-88319043D01*
X215723420Y-88214514D01*
X215723416Y-88214511D01*
X215600502Y-88132382D01*
X215600489Y-88132375D01*
X215463918Y-88075806D01*
X215463908Y-88075803D01*
X215318921Y-88046963D01*
X215318919Y-88046963D01*
X215171083Y-88046963D01*
X215171081Y-88046963D01*
X215026093Y-88075803D01*
X215026083Y-88075806D01*
X214889512Y-88132375D01*
X214889499Y-88132382D01*
X214766585Y-88214511D01*
X214766581Y-88214514D01*
X214662052Y-88319043D01*
X214662049Y-88319047D01*
X214579920Y-88441961D01*
X214579913Y-88441974D01*
X214523344Y-88578545D01*
X214523341Y-88578555D01*
X214494501Y-88723542D01*
X214494501Y-88723545D01*
X214494501Y-88871381D01*
X214494501Y-88871383D01*
X214494500Y-88871383D01*
X214523341Y-89016370D01*
X214523344Y-89016380D01*
X214579913Y-89152951D01*
X214579919Y-89152962D01*
X214625069Y-89220534D01*
X214645946Y-89287211D01*
X214627461Y-89354591D01*
X214590858Y-89392525D01*
X214569125Y-89407046D01*
X214569119Y-89407051D01*
X214464590Y-89511580D01*
X214464587Y-89511584D01*
X214382458Y-89634498D01*
X214382451Y-89634511D01*
X214325882Y-89771082D01*
X214325879Y-89771092D01*
X214297039Y-89916079D01*
X214297039Y-89916082D01*
X214297039Y-90063918D01*
X214297039Y-90063920D01*
X214297038Y-90063920D01*
X206656025Y-90063920D01*
X207712320Y-89007625D01*
X207773641Y-88974142D01*
X207843333Y-88979126D01*
X207879713Y-89002507D01*
X207880616Y-89001408D01*
X207885326Y-89005273D01*
X207885329Y-89005275D01*
X207885331Y-89005277D01*
X207988061Y-89073918D01*
X207991873Y-89076465D01*
X208110256Y-89125501D01*
X208110260Y-89125501D01*
X208110261Y-89125502D01*
X208235928Y-89150500D01*
X208235931Y-89150500D01*
X212164071Y-89150500D01*
X212250386Y-89133330D01*
X212289744Y-89125501D01*
X212408127Y-89076465D01*
X212411939Y-89073918D01*
X212514669Y-89005277D01*
X214767344Y-86752600D01*
X214813642Y-86724852D01*
X214813285Y-86723989D01*
X214955488Y-86665087D01*
X214955488Y-86665086D01*
X214955495Y-86665084D01*
X215078416Y-86582951D01*
X215108766Y-86552601D01*
X215174549Y-86486819D01*
X215235872Y-86453334D01*
X215262230Y-86450500D01*
X218986160Y-86450500D01*
X218993357Y-86452302D01*
G37*
%TD.AperFunction*%
%TA.AperFunction,Conductor*%
G36*
X222484892Y-85395185D02*
G01*
X222505534Y-85411819D01*
X227373722Y-90280007D01*
X227407207Y-90341330D01*
X227402223Y-90411022D01*
X227385308Y-90441999D01*
X227306204Y-90547668D01*
X227306202Y-90547671D01*
X227255908Y-90682517D01*
X227249501Y-90742116D01*
X227249500Y-90742135D01*
X227249500Y-90865500D01*
X227229815Y-90932539D01*
X227177011Y-90978294D01*
X227125500Y-90989500D01*
X223960808Y-90989500D01*
X223893769Y-90969815D01*
X223873127Y-90953181D01*
X222552602Y-89632656D01*
X222547547Y-89624991D01*
X222542799Y-89621609D01*
X222533319Y-89603418D01*
X222525157Y-89591041D01*
X222522136Y-89583491D01*
X222521658Y-89581087D01*
X222507429Y-89546737D01*
X222507161Y-89546066D01*
X222503914Y-89512004D01*
X222500257Y-89477984D01*
X222500570Y-89476915D01*
X222500532Y-89476511D01*
X222500897Y-89475801D01*
X222507726Y-89452547D01*
X222515876Y-89432871D01*
X222521658Y-89418913D01*
X222538366Y-89334919D01*
X222550500Y-89273920D01*
X222550500Y-89126079D01*
X222521659Y-88981092D01*
X222521658Y-88981091D01*
X222521658Y-88981087D01*
X222518781Y-88974142D01*
X222465087Y-88844511D01*
X222465080Y-88844498D01*
X222382951Y-88721584D01*
X222382948Y-88721580D01*
X222278419Y-88617051D01*
X222278415Y-88617048D01*
X222155501Y-88534919D01*
X222155488Y-88534912D01*
X222018917Y-88478343D01*
X222018908Y-88478340D01*
X221950307Y-88464694D01*
X221888396Y-88432308D01*
X221853823Y-88371592D01*
X221850500Y-88343077D01*
X221850500Y-87535928D01*
X221825502Y-87410261D01*
X221825501Y-87410260D01*
X221825501Y-87410256D01*
X221776465Y-87291873D01*
X221767424Y-87278342D01*
X221762147Y-87270445D01*
X221705274Y-87185327D01*
X221705271Y-87185324D01*
X220152601Y-85632655D01*
X220147551Y-85624998D01*
X220142807Y-85621620D01*
X220133339Y-85603451D01*
X220125162Y-85591054D01*
X220122137Y-85583498D01*
X220121658Y-85581087D01*
X220107231Y-85546257D01*
X220106960Y-85545580D01*
X220103708Y-85511508D01*
X220100050Y-85477482D01*
X220100395Y-85476792D01*
X220100322Y-85476026D01*
X220115997Y-85445624D01*
X220131326Y-85415003D01*
X220131988Y-85414609D01*
X220132342Y-85413925D01*
X220161974Y-85396818D01*
X220191415Y-85379352D01*
X220192460Y-85379220D01*
X220192853Y-85378994D01*
X220193876Y-85379042D01*
X220222080Y-85375500D01*
X222417853Y-85375500D01*
X222484892Y-85395185D01*
G37*
%TD.AperFunction*%
%TA.AperFunction,Conductor*%
G36*
X223043942Y-83461830D02*
G01*
X223064584Y-83478464D01*
X227600431Y-88014311D01*
X227633916Y-88075634D01*
X227628932Y-88145326D01*
X227600431Y-88189673D01*
X227569894Y-88220209D01*
X227569890Y-88220213D01*
X227444949Y-88392182D01*
X227410607Y-88459582D01*
X227362633Y-88510377D01*
X227294812Y-88527172D01*
X227228677Y-88504634D01*
X227212442Y-88490967D01*
X223060962Y-84339487D01*
X223060960Y-84339485D01*
X222995345Y-84301602D01*
X222929731Y-84263719D01*
X222856545Y-84244109D01*
X222783361Y-84224500D01*
X222783360Y-84224500D01*
X213080659Y-84224500D01*
X213013620Y-84204815D01*
X212967865Y-84152011D01*
X212957921Y-84082853D01*
X212966098Y-84053047D01*
X212990065Y-83995185D01*
X213021658Y-83918913D01*
X213033275Y-83860512D01*
X213050500Y-83773920D01*
X213050500Y-83626079D01*
X213043390Y-83590337D01*
X213049617Y-83520746D01*
X213092479Y-83465568D01*
X213158369Y-83442323D01*
X213165007Y-83442145D01*
X222976903Y-83442145D01*
X223043942Y-83461830D01*
G37*
%TD.AperFunction*%
%TA.AperFunction,Conductor*%
G36*
X213949710Y-85395185D02*
G01*
X213995465Y-85447989D01*
X214005409Y-85517147D01*
X213985773Y-85568391D01*
X213934919Y-85644498D01*
X213934914Y-85644507D01*
X213876011Y-85786714D01*
X213875149Y-85786357D01*
X213847398Y-85832654D01*
X211866873Y-87813181D01*
X211805550Y-87846666D01*
X211779192Y-87849500D01*
X208620808Y-87849500D01*
X208553769Y-87829815D01*
X208533127Y-87813181D01*
X208214674Y-87494727D01*
X208214673Y-87494726D01*
X208190154Y-87478343D01*
X208108127Y-87423535D01*
X208076066Y-87410255D01*
X207989744Y-87374499D01*
X207989738Y-87374497D01*
X207864071Y-87349500D01*
X207864069Y-87349500D01*
X204613840Y-87349500D01*
X204561479Y-87336385D01*
X204561122Y-87337247D01*
X204555495Y-87334916D01*
X204418913Y-87278342D01*
X204418907Y-87278340D01*
X204273920Y-87249500D01*
X204273918Y-87249500D01*
X204126082Y-87249500D01*
X204126080Y-87249500D01*
X203981092Y-87278340D01*
X203981086Y-87278342D01*
X203947451Y-87292274D01*
X203917662Y-87295475D01*
X203888237Y-87301153D01*
X203881179Y-87299397D01*
X203877981Y-87299741D01*
X203853936Y-87292839D01*
X203853236Y-87292559D01*
X203818913Y-87278342D01*
X203816508Y-87277863D01*
X203808959Y-87274843D01*
X203795565Y-87264314D01*
X203767342Y-87247397D01*
X202107127Y-85587181D01*
X202073642Y-85525858D01*
X202078626Y-85456166D01*
X202120498Y-85400233D01*
X202185962Y-85375816D01*
X202194808Y-85375500D01*
X213882671Y-85375500D01*
X213949710Y-85395185D01*
G37*
%TD.AperFunction*%
%TA.AperFunction,Conductor*%
G36*
X210063842Y-83461830D02*
G01*
X210109597Y-83514634D01*
X210120803Y-83566145D01*
X210120803Y-83660151D01*
X210120803Y-83660153D01*
X210120802Y-83660153D01*
X210149643Y-83805140D01*
X210149646Y-83805150D01*
X210206215Y-83941721D01*
X210206222Y-83941734D01*
X210266275Y-84031609D01*
X210287153Y-84098287D01*
X210268668Y-84165667D01*
X210216690Y-84212357D01*
X210163173Y-84224500D01*
X201292196Y-84224500D01*
X201225157Y-84204815D01*
X201204515Y-84188181D01*
X200670160Y-83653826D01*
X200636675Y-83592503D01*
X200641659Y-83522811D01*
X200683531Y-83466878D01*
X200748995Y-83442461D01*
X200757841Y-83442145D01*
X209996803Y-83442145D01*
X210063842Y-83461830D01*
G37*
%TD.AperFunction*%
%TA.AperFunction,Conductor*%
G36*
X222263586Y-78020185D02*
G01*
X222309341Y-78072989D01*
X222319285Y-78142147D01*
X222290260Y-78205703D01*
X222252843Y-78234984D01*
X222232443Y-78245378D01*
X222232440Y-78245380D01*
X222178282Y-78284727D01*
X222178282Y-78284728D01*
X222810591Y-78917037D01*
X222747007Y-78934075D01*
X222632993Y-78999901D01*
X222539901Y-79092993D01*
X222474075Y-79207007D01*
X222457037Y-79270591D01*
X221824728Y-78638282D01*
X221824727Y-78638282D01*
X221785380Y-78692440D01*
X221785376Y-78692446D01*
X221780760Y-78701505D01*
X221732781Y-78752297D01*
X221664959Y-78769087D01*
X221598826Y-78746543D01*
X221559794Y-78701493D01*
X221555051Y-78692184D01*
X221555049Y-78692181D01*
X221555048Y-78692179D01*
X221430109Y-78520213D01*
X221279786Y-78369890D01*
X221107817Y-78244949D01*
X221088261Y-78234985D01*
X221037464Y-78187011D01*
X221020669Y-78119190D01*
X221043206Y-78053055D01*
X221097921Y-78009603D01*
X221144555Y-78000500D01*
X222196547Y-78000500D01*
X222263586Y-78020185D01*
G37*
%TD.AperFunction*%
%TA.AperFunction,Conductor*%
G36*
X224802485Y-78020185D02*
G01*
X224848240Y-78072989D01*
X224858184Y-78142147D01*
X224829159Y-78205703D01*
X224791740Y-78234985D01*
X224772183Y-78244949D01*
X224600214Y-78369890D01*
X224449891Y-78520213D01*
X224324951Y-78692181D01*
X224320201Y-78701503D01*
X224272224Y-78752296D01*
X224204402Y-78769088D01*
X224138268Y-78746547D01*
X224099232Y-78701493D01*
X224094624Y-78692449D01*
X224055270Y-78638282D01*
X224055269Y-78638282D01*
X223422962Y-79270590D01*
X223405925Y-79207007D01*
X223340099Y-79092993D01*
X223247007Y-78999901D01*
X223132993Y-78934075D01*
X223069409Y-78917037D01*
X223701716Y-78284728D01*
X223647547Y-78245373D01*
X223647548Y-78245373D01*
X223627159Y-78234985D01*
X223576362Y-78187011D01*
X223559567Y-78119190D01*
X223582104Y-78053055D01*
X223636819Y-78009603D01*
X223683453Y-78000500D01*
X224735446Y-78000500D01*
X224802485Y-78020185D01*
G37*
%TD.AperFunction*%
%TD*%
M02*
